<svg width="100%" height="100%" preserveAspectRatio="none"  viewBox="0 0 610 470" fill="none" xmlns="http://www.w3.org/2000/svg">
<path d="M410 20.0408V1H17L2 235.502L417 430.921L609 468V1H463V20.0408H410Z" fill="#F4F4F4" stroke="#575757" stroke-width="2"/>
<path id="z2" d="M3 235.502L133.529 296.633L192 170.268L105.118 129.241L96.0588 150.165L10.4118 113.24L3 235.502Z" fill="#BBBBBB" stroke="#575757"/>
<path d="M76.7925 192.384V183.844H74.6085V187.134H71.0805V183.844H68.8965V192.384H71.0805V188.87H74.6085V192.384H76.7925Z" fill="#231F20"/>
<path d="M85.5058 189.248C85.5058 187.316 84.1758 185.86 81.8658 185.86C79.5558 185.86 78.2258 187.316 78.2258 189.248C78.2258 191.18 79.5558 192.636 81.8658 192.636C84.1758 192.636 85.5058 191.18 85.5058 189.248ZM81.8658 191.138C80.9838 191.138 80.4378 190.494 80.4378 189.248C80.4378 188.002 80.9838 187.358 81.8658 187.358C82.7478 187.358 83.2938 188.002 83.2938 189.248C83.2938 190.494 82.7478 191.138 81.8658 191.138Z" fill="#231F20"/>
<path d="M97.4857 192.384V188.59C97.4857 186.812 96.7017 185.888 95.1897 185.888C94.3497 185.888 93.4397 186.308 92.9217 186.938C92.5717 186.266 91.9137 185.888 90.9617 185.888C90.1217 185.888 89.3377 186.266 88.8477 186.868H88.8337L88.6377 186.084H86.8737V192.384H89.0297V187.862C89.3237 187.68 89.7297 187.498 90.2337 187.498C90.8077 187.498 91.1157 187.82 91.1157 188.786V192.384H93.2437V188.38C93.2437 188.212 93.2297 188.044 93.2157 187.89C93.5097 187.708 93.9157 187.498 94.4617 187.498C95.0357 187.498 95.3297 187.82 95.3297 188.786V192.384H97.4857Z" fill="#231F20"/>
<path d="M105.018 190.592C104.29 190.97 103.646 191.18 102.82 191.18C101.574 191.18 100.888 190.732 100.846 189.794H105.368C105.466 189.5 105.48 189.206 105.48 188.87C105.48 187.302 104.388 185.86 102.26 185.86C100.076 185.86 98.8157 187.232 98.8157 189.178C98.8157 191.208 99.9637 192.636 102.498 192.636C103.408 192.636 104.304 192.454 105.018 192.118V190.592ZM100.846 188.604C100.916 187.75 101.434 187.218 102.274 187.218C103.072 187.218 103.576 187.708 103.618 188.604H100.846Z" fill="#231F20"/>
<path d="M71.1085 207.384V198.844H68.9245V207.384H71.1085Z" fill="#231F20"/>
<path d="M79.5377 207.384V203.576C79.5377 201.798 78.7677 200.888 77.1017 200.888C76.2617 200.888 75.4357 201.266 74.8617 201.868H74.8337L74.6377 201.084H72.8737V207.384H75.0297V202.946C75.3517 202.736 75.8137 202.526 76.3737 202.526C76.9757 202.526 77.3817 202.806 77.3817 203.716V207.384H79.5377Z" fill="#231F20"/>
<path d="M80.8505 207.272C81.2845 207.454 82.1665 207.636 83.2165 207.636C84.7425 207.636 86.0445 206.922 86.0445 205.536C86.0445 204.206 84.9385 203.758 84.0005 203.464C83.3425 203.254 82.8105 203.1 82.8105 202.75C82.8105 202.456 83.2305 202.246 83.9725 202.246C84.5465 202.246 85.0925 202.358 85.6525 202.624V201.182C85.2185 201.014 84.3645 200.86 83.5385 200.86C81.8165 200.86 80.8365 201.756 80.8365 202.848C80.8365 204.122 81.7885 204.486 82.6145 204.864C83.3145 205.158 84.0285 205.284 84.0285 205.69C84.0285 205.97 83.7065 206.208 82.7545 206.208C82.1805 206.208 81.4525 206.026 80.8505 205.788V207.272Z" fill="#231F20"/>
<path d="M89.5766 210.394V207.818C89.5766 207.356 89.5486 207.09 89.4926 206.852H89.5206C89.8426 207.188 90.4866 207.608 91.4946 207.608C93.0206 207.608 94.3366 206.362 94.3366 204.122C94.3366 202.232 93.2866 200.888 91.6626 200.888C90.6126 200.888 89.9686 201.308 89.5206 201.756H89.4926L89.3246 201.084H87.4206V210.394H89.5766ZM89.5766 203.058C89.9406 202.638 90.3606 202.428 90.8506 202.428C91.8586 202.428 92.1526 203.366 92.1526 204.178C92.1526 205.424 91.6766 206.04 90.9066 206.04C90.3326 206.04 89.8426 205.732 89.5766 205.522V203.058Z" fill="#231F20"/>
<path d="M97.9171 207.384V201.084H95.7891V207.384H97.9171ZM98.1831 199.25C98.1831 198.536 97.7491 198.088 96.8531 198.088C95.9571 198.088 95.5231 198.536 95.5231 199.25C95.5231 199.964 95.9571 200.412 96.8531 200.412C97.7491 200.412 98.1831 199.964 98.1831 199.25Z" fill="#231F20"/>
<path d="M101.813 207.384V203.702C102.261 203.254 102.933 202.932 103.675 202.932C103.885 202.932 104.109 202.946 104.333 202.988V200.986C104.123 200.93 103.885 200.902 103.717 200.902C102.863 200.902 102.121 201.476 101.715 202.428H101.687L101.351 201.084H99.6569V207.384H101.813Z" fill="#231F20"/>
<path d="M108.792 205.55C108.512 205.942 108.134 206.152 107.574 206.152C107.168 206.152 106.72 205.956 106.72 205.41C106.72 204.752 107.266 204.542 107.924 204.542C108.19 204.542 108.582 204.57 108.792 204.612V205.55ZM110.892 207.384V203.562C110.892 201.336 109.422 200.86 107.798 200.86C106.902 200.86 105.936 201.056 105.376 201.322V202.806C105.95 202.512 106.804 202.316 107.42 202.316C108.33 202.316 108.792 202.582 108.792 203.268V203.464C108.498 203.422 108.008 203.394 107.714 203.394C106.356 203.394 104.788 203.898 104.788 205.578C104.788 206.866 105.642 207.566 106.888 207.566C107.896 207.566 108.68 207.118 108.96 206.6H108.988L109.184 207.384H110.892Z" fill="#231F20"/>
<path d="M117.282 205.718C116.946 205.928 116.512 206.012 116.078 206.012C115.504 206.012 115.14 205.802 115.14 205.074V202.526H117.282V201.084H115.14V199.096H113.684L113.04 201.084H111.892V202.526H112.984V205.158C112.984 206.782 113.684 207.608 115.658 207.608C116.372 207.608 116.904 207.482 117.282 207.3V205.718Z" fill="#231F20"/>
<path d="M120.694 207.384V201.084H118.566V207.384H120.694ZM120.96 199.25C120.96 198.536 120.526 198.088 119.63 198.088C118.734 198.088 118.3 198.536 118.3 199.25C118.3 199.964 118.734 200.412 119.63 200.412C120.526 200.412 120.96 199.964 120.96 199.25Z" fill="#231F20"/>
<path d="M129.406 204.248C129.406 202.316 128.076 200.86 125.766 200.86C123.456 200.86 122.126 202.316 122.126 204.248C122.126 206.18 123.456 207.636 125.766 207.636C128.076 207.636 129.406 206.18 129.406 204.248ZM125.766 206.138C124.884 206.138 124.338 205.494 124.338 204.248C124.338 203.002 124.884 202.358 125.766 202.358C126.648 202.358 127.194 203.002 127.194 204.248C127.194 205.494 126.648 206.138 125.766 206.138Z" fill="#231F20"/>
<path d="M137.438 207.384V203.576C137.438 201.798 136.668 200.888 135.002 200.888C134.162 200.888 133.336 201.266 132.762 201.868H132.734L132.538 201.084H130.774V207.384H132.93V202.946C133.252 202.736 133.714 202.526 134.274 202.526C134.876 202.526 135.282 202.806 135.282 203.716V207.384H137.438Z" fill="#231F20"/>
<path d="M74.6925 222.384V220.648H71.0805V213.844H68.8965V222.384H74.6925Z" fill="#231F20"/>
<path d="M82.7031 219.248C82.7031 217.316 81.3731 215.86 79.0631 215.86C76.7531 215.86 75.4231 217.316 75.4231 219.248C75.4231 221.18 76.7531 222.636 79.0631 222.636C81.3731 222.636 82.7031 221.18 82.7031 219.248ZM79.0631 221.138C78.1811 221.138 77.6351 220.494 77.6351 219.248C77.6351 218.002 78.1811 217.358 79.0631 217.358C79.9451 217.358 80.4911 218.002 80.4911 219.248C80.4911 220.494 79.9451 221.138 79.0631 221.138Z" fill="#231F20"/>
<path d="M90.511 222.384V216.084H88.355V220.522C88.033 220.732 87.613 220.942 87.151 220.942C86.549 220.942 86.227 220.662 86.227 219.752V216.084H84.071V219.892C84.071 221.67 84.771 222.58 86.381 222.58C87.207 222.58 87.963 222.216 88.523 221.6H88.551L88.747 222.384H90.511Z" fill="#231F20"/>
<path d="M98.815 222.384V218.576C98.815 216.798 98.045 215.888 96.379 215.888C95.539 215.888 94.713 216.266 94.139 216.868H94.111L93.915 216.084H92.151V222.384H94.307V217.946C94.629 217.736 95.091 217.526 95.651 217.526C96.253 217.526 96.659 217.806 96.659 218.716V222.384H98.815Z" fill="#231F20"/>
<path d="M104.972 221.796C104.902 222.202 104.902 222.356 104.902 222.58C104.902 223.77 104.09 224.05 103.11 224.05C102.424 224.05 101.416 223.826 100.632 223.42V225.142C101.472 225.52 102.48 225.618 103.446 225.618C105.728 225.618 107.058 224.428 107.058 222.58V216.084H105.182L105.028 216.7H105C104.566 216.266 103.978 215.888 103.124 215.888C101.262 215.888 100.142 217.316 100.142 219.206C100.142 221.446 101.43 222.566 102.984 222.566C103.922 222.566 104.566 222.314 104.944 221.796H104.972ZM104.902 220.424C104.496 220.858 104.104 221.012 103.6 221.012C102.802 221.012 102.326 220.424 102.326 219.178C102.326 218.366 102.62 217.428 103.67 217.428C104.104 217.428 104.524 217.596 104.902 217.876V220.424Z" fill="#231F20"/>
<path d="M114.629 220.592C113.901 220.97 113.257 221.18 112.431 221.18C111.185 221.18 110.499 220.732 110.457 219.794H114.979C115.077 219.5 115.091 219.206 115.091 218.87C115.091 217.302 113.999 215.86 111.871 215.86C109.687 215.86 108.427 217.232 108.427 219.178C108.427 221.208 109.575 222.636 112.109 222.636C113.019 222.636 113.915 222.454 114.629 222.118V220.592ZM110.457 218.604C110.527 217.75 111.045 217.218 111.885 217.218C112.683 217.218 113.187 217.708 113.229 218.604H110.457Z" fill="#231F20"/>
<rect id="z2-text" x="29" y="180.384" width="33.5588" height="33.6309" rx="16.7794" fill="#EC1C24"/>
<path d="M49.16 202.406V200.366H44.91C46.695 199.227 48.956 197.561 48.956 195.3C48.956 193.481 47.919 191.764 44.74 191.764C43.227 191.764 42.241 192.07 41.578 192.359V194.603C42.479 194.076 43.431 193.804 44.519 193.804C45.709 193.804 46.304 194.348 46.304 195.419C46.304 196.796 45.369 197.969 41.51 200.57V202.406H49.16Z" fill="#F4F4F4"/>
<path id="z6" d="M512.969 187.959V154.328H443.838V292.215H456.59L594.853 231.006V187.959H512.969Z" fill="#BBBBBB" stroke="#575757"/>
<path d="M469.248 214.184C469.248 211.216 467.008 209.676 464.404 209.676C461.8 209.676 459.56 211.216 459.56 214.184C459.56 217.152 461.8 218.692 464.404 218.692C467.008 218.692 469.248 217.152 469.248 214.184ZM464.404 217.012C462.738 217.012 461.856 216.046 461.856 214.184C461.856 212.322 462.738 211.356 464.404 211.356C466.07 211.356 466.952 212.322 466.952 214.184C466.952 216.046 466.07 217.012 464.404 217.012Z" fill="#231F20"/>
<path d="M477.094 218.44V212.14H474.938V216.578C474.616 216.788 474.196 216.998 473.734 216.998C473.132 216.998 472.81 216.718 472.81 215.808V212.14H470.654V215.948C470.654 217.726 471.354 218.636 472.964 218.636C473.79 218.636 474.546 218.272 475.106 217.656H475.134L475.33 218.44H477.094Z" fill="#231F20"/>
<path d="M483.48 216.774C483.144 216.984 482.71 217.068 482.276 217.068C481.702 217.068 481.338 216.858 481.338 216.13V213.582H483.48V212.14H481.338V210.152H479.882L479.238 212.14H478.09V213.582H479.182V216.214C479.182 217.838 479.882 218.664 481.856 218.664C482.57 218.664 483.102 218.538 483.48 218.356V216.774Z" fill="#231F20"/>
<path d="M491.345 218.44V209.34H489.189V212.532H489.161C488.811 212.21 488.125 211.916 487.341 211.916C485.549 211.916 484.429 213.372 484.429 215.262C484.429 217.502 485.619 218.664 487.355 218.664C488.293 218.664 488.979 218.314 489.413 217.656H489.441L489.637 218.44H491.345ZM489.189 216.48C488.783 216.914 488.391 217.11 487.887 217.11C487.089 217.11 486.613 216.48 486.613 215.234C486.613 214.422 486.907 213.484 487.943 213.484C488.377 213.484 488.811 213.61 489.189 213.876V216.48Z" fill="#231F20"/>
<path d="M500.021 215.304C500.021 213.372 498.691 211.916 496.381 211.916C494.071 211.916 492.741 213.372 492.741 215.304C492.741 217.236 494.071 218.692 496.381 218.692C498.691 218.692 500.021 217.236 500.021 215.304ZM496.381 217.194C495.499 217.194 494.953 216.55 494.953 215.304C494.953 214.058 495.499 213.414 496.381 213.414C497.263 213.414 497.809 214.058 497.809 215.304C497.809 216.55 497.263 217.194 496.381 217.194Z" fill="#231F20"/>
<path d="M508.196 215.304C508.196 213.372 506.866 211.916 504.556 211.916C502.246 211.916 500.916 213.372 500.916 215.304C500.916 217.236 502.246 218.692 504.556 218.692C506.866 218.692 508.196 217.236 508.196 215.304ZM504.556 217.194C503.674 217.194 503.128 216.55 503.128 215.304C503.128 214.058 503.674 213.414 504.556 213.414C505.438 213.414 505.984 214.058 505.984 215.304C505.984 216.55 505.438 217.194 504.556 217.194Z" fill="#231F20"/>
<path d="M511.72 218.44V214.758C512.168 214.31 512.84 213.988 513.582 213.988C513.792 213.988 514.016 214.002 514.24 214.044V212.042C514.03 211.986 513.792 211.958 513.624 211.958C512.77 211.958 512.028 212.532 511.622 213.484H511.594L511.258 212.14H509.564V218.44H511.72Z" fill="#231F20"/>
<path d="M527.43 218.44L525.624 216.718C526.338 215.822 526.73 214.702 526.73 213.638H524.672C524.672 214.324 524.56 214.926 524.336 215.458L521.858 213.008C521.522 212.672 521.158 212.224 521.158 211.762C521.158 211.314 521.522 210.978 522.082 210.978C522.754 210.978 523.104 211.216 523.104 212.098H525.078C525.078 210.544 524.112 209.676 522.11 209.676C520.304 209.676 519.156 210.488 519.156 211.776C519.156 212.826 519.744 213.428 520.136 213.75C519.058 214.38 518.386 214.954 518.386 216.144C518.386 217.712 519.758 218.664 521.648 218.664C522.712 218.664 523.65 218.342 524.434 217.824L525.064 218.44H527.43ZM523.272 216.774C522.852 217.04 522.39 217.166 521.872 217.166C521.27 217.166 520.43 216.886 520.43 216.032C520.43 215.43 520.85 215.052 521.284 214.758L523.272 216.774Z" fill="#231F20"/>
<path d="M534.635 216.774C534.257 216.928 533.949 216.984 533.347 216.984C531.569 216.984 530.365 216.088 530.365 214.254C530.365 212.168 531.751 211.356 533.613 211.356C534.579 211.356 535.713 211.636 536.399 212.014V210.18C535.741 209.886 534.733 209.676 533.501 209.676C530.463 209.676 528.069 211.3 528.069 214.324C528.069 217.236 530.351 218.692 533.123 218.692C534.635 218.692 535.881 218.314 536.707 217.936V214.184H534.635V216.774Z" fill="#231F20"/>
<path d="M541.86 216.606C541.58 216.998 541.202 217.208 540.642 217.208C540.236 217.208 539.788 217.012 539.788 216.466C539.788 215.808 540.334 215.598 540.992 215.598C541.258 215.598 541.65 215.626 541.86 215.668V216.606ZM543.96 218.44V214.618C543.96 212.392 542.49 211.916 540.866 211.916C539.97 211.916 539.004 212.112 538.444 212.378V213.862C539.018 213.568 539.872 213.372 540.488 213.372C541.398 213.372 541.86 213.638 541.86 214.324V214.52C541.566 214.478 541.076 214.45 540.782 214.45C539.424 214.45 537.856 214.954 537.856 216.634C537.856 217.922 538.71 218.622 539.956 218.622C540.964 218.622 541.748 218.174 542.028 217.656H542.056L542.252 218.44H543.96Z" fill="#231F20"/>
<path d="M547.759 218.44V214.758C548.207 214.31 548.879 213.988 549.621 213.988C549.831 213.988 550.055 214.002 550.279 214.044V212.042C550.069 211.986 549.831 211.958 549.663 211.958C548.809 211.958 548.067 212.532 547.661 213.484H547.633L547.297 212.14H545.603V218.44H547.759Z" fill="#231F20"/>
<path d="M557.913 218.44V209.34H555.757V212.532H555.729C555.379 212.21 554.693 211.916 553.909 211.916C552.117 211.916 550.997 213.372 550.997 215.262C550.997 217.502 552.187 218.664 553.923 218.664C554.861 218.664 555.547 218.314 555.981 217.656H556.009L556.205 218.44H557.913ZM555.757 216.48C555.351 216.914 554.959 217.11 554.455 217.11C553.657 217.11 553.181 216.48 553.181 215.234C553.181 214.422 553.475 213.484 554.511 213.484C554.945 213.484 555.379 213.61 555.757 213.876V216.48Z" fill="#231F20"/>
<path d="M565.511 216.648C564.783 217.026 564.139 217.236 563.313 217.236C562.067 217.236 561.381 216.788 561.339 215.85H565.861C565.959 215.556 565.973 215.262 565.973 214.926C565.973 213.358 564.881 211.916 562.753 211.916C560.569 211.916 559.309 213.288 559.309 215.234C559.309 217.264 560.457 218.692 562.991 218.692C563.901 218.692 564.797 218.51 565.511 218.174V216.648ZM561.339 214.66C561.409 213.806 561.927 213.274 562.767 213.274C563.565 213.274 564.069 213.764 564.111 214.66H561.339Z" fill="#231F20"/>
<path d="M573.978 218.44V214.632C573.978 212.854 573.208 211.944 571.542 211.944C570.702 211.944 569.876 212.322 569.302 212.924H569.274L569.078 212.14H567.314V218.44H569.47V214.002C569.792 213.792 570.254 213.582 570.814 213.582C571.416 213.582 571.822 213.862 571.822 214.772V218.44H573.978Z" fill="#231F20"/>
<path d="M459.476 232.992C459.952 233.314 461.24 233.664 462.472 233.664C464.264 233.664 465.888 232.908 465.888 231.228C465.888 228.358 461.814 228.414 461.814 227.07C461.814 226.58 462.304 226.356 463.018 226.356C463.914 226.356 464.698 226.608 465.356 226.944V225.18C464.782 224.886 463.886 224.704 462.864 224.704C461.072 224.704 459.63 225.474 459.63 227.112C459.63 229.926 463.676 229.73 463.676 231.228C463.676 231.858 463.116 232.012 462.318 232.012C461.366 232.012 460.176 231.718 459.476 231.242V232.992Z" fill="#231F20"/>
<path d="M474.208 230.304C474.208 228.372 472.878 226.916 470.568 226.916C468.258 226.916 466.928 228.372 466.928 230.304C466.928 232.236 468.258 233.692 470.568 233.692C472.878 233.692 474.208 232.236 474.208 230.304ZM470.568 232.194C469.686 232.194 469.14 231.55 469.14 230.304C469.14 229.058 469.686 228.414 470.568 228.414C471.45 228.414 471.996 229.058 471.996 230.304C471.996 231.55 471.45 232.194 470.568 232.194Z" fill="#231F20"/>
<path d="M477.732 233.44V224.34H475.604V233.44H477.732Z" fill="#231F20"/>
<path d="M485.885 233.44V227.14H483.729V231.578C483.407 231.788 482.987 231.998 482.525 231.998C481.923 231.998 481.601 231.718 481.601 230.808V227.14H479.445V230.948C479.445 232.726 480.145 233.636 481.755 233.636C482.581 233.636 483.337 233.272 483.897 232.656H483.925L484.121 233.44H485.885Z" fill="#231F20"/>
<path d="M492.271 231.774C491.935 231.984 491.501 232.068 491.067 232.068C490.493 232.068 490.129 231.858 490.129 231.13V228.582H492.271V227.14H490.129V225.152H488.673L488.029 227.14H486.881V228.582H487.973V231.214C487.973 232.838 488.673 233.664 490.647 233.664C491.361 233.664 491.893 233.538 492.271 233.356V231.774Z" fill="#231F20"/>
<path d="M495.684 233.44V227.14H493.556V233.44H495.684ZM495.95 225.306C495.95 224.592 495.516 224.144 494.62 224.144C493.724 224.144 493.29 224.592 493.29 225.306C493.29 226.02 493.724 226.468 494.62 226.468C495.516 226.468 495.95 226.02 495.95 225.306Z" fill="#231F20"/>
<path d="M504.396 230.304C504.396 228.372 503.066 226.916 500.756 226.916C498.446 226.916 497.116 228.372 497.116 230.304C497.116 232.236 498.446 233.692 500.756 233.692C503.066 233.692 504.396 232.236 504.396 230.304ZM500.756 232.194C499.874 232.194 499.328 231.55 499.328 230.304C499.328 229.058 499.874 228.414 500.756 228.414C501.638 228.414 502.184 229.058 502.184 230.304C502.184 231.55 501.638 232.194 500.756 232.194Z" fill="#231F20"/>
<path d="M512.427 233.44V229.632C512.427 227.854 511.657 226.944 509.991 226.944C509.151 226.944 508.325 227.322 507.751 227.924H507.723L507.527 227.14H505.763V233.44H507.919V229.002C508.241 228.792 508.703 228.582 509.263 228.582C509.865 228.582 510.271 228.862 510.271 229.772V233.44H512.427Z" fill="#231F20"/>
<rect id="z6-text" x="454" y="168.358" width="33.5588" height="33.6309" rx="16.7794" fill="#EC1C24"/>
<path d="M474.143 180.132C473.582 179.945 472.8 179.741 471.695 179.741C468.771 179.741 466.68 181.662 466.68 185.283C466.68 188.887 468.448 190.604 471.202 190.604C473.684 190.604 475.163 189.108 475.163 186.898C475.163 185.079 474.024 183.583 471.729 183.583C470.726 183.583 469.893 183.872 469.264 184.433C469.4 182.852 470.046 181.747 472.018 181.747C472.851 181.747 473.65 181.951 474.143 182.223V180.132ZM469.23 186.49C469.621 185.878 470.369 185.351 471.168 185.351C472.273 185.351 472.715 186.167 472.715 186.932C472.715 188.309 471.746 188.598 471.066 188.598C470.097 188.598 469.349 187.782 469.23 186.49Z" fill="#F4F4F4"/>
<path id="z7" d="M331.752 355.399L319 383.979L419.005 431.405L608.948 467.726V235.001L331.752 355.399Z" fill="#BBBBBB" stroke="#575757"/>
<path d="M502.593 353.729V345.189H500.409V348.479H496.881V345.189H494.697V353.729H496.881V350.215H500.409V353.729H502.593Z" fill="#231F20"/>
<path d="M511.306 350.593C511.306 348.661 509.976 347.205 507.666 347.205C505.356 347.205 504.026 348.661 504.026 350.593C504.026 352.525 505.356 353.981 507.666 353.981C509.976 353.981 511.306 352.525 511.306 350.593ZM507.666 352.483C506.784 352.483 506.238 351.839 506.238 350.593C506.238 349.347 506.784 348.703 507.666 348.703C508.548 348.703 509.094 349.347 509.094 350.593C509.094 351.839 508.548 352.483 507.666 352.483Z" fill="#231F20"/>
<path d="M523.286 353.729V349.935C523.286 348.157 522.502 347.233 520.99 347.233C520.15 347.233 519.24 347.653 518.722 348.283C518.372 347.611 517.714 347.233 516.762 347.233C515.922 347.233 515.138 347.611 514.648 348.213H514.634L514.438 347.429H512.674V353.729H514.83V349.207C515.124 349.025 515.53 348.843 516.034 348.843C516.608 348.843 516.916 349.165 516.916 350.131V353.729H519.044V349.725C519.044 349.557 519.03 349.389 519.016 349.235C519.31 349.053 519.716 348.843 520.262 348.843C520.836 348.843 521.13 349.165 521.13 350.131V353.729H523.286Z" fill="#231F20"/>
<path d="M530.818 351.937C530.09 352.315 529.446 352.525 528.62 352.525C527.374 352.525 526.688 352.077 526.646 351.139H531.168C531.266 350.845 531.28 350.551 531.28 350.215C531.28 348.647 530.188 347.205 528.06 347.205C525.876 347.205 524.616 348.577 524.616 350.523C524.616 352.553 525.764 353.981 528.298 353.981C529.208 353.981 530.104 353.799 530.818 353.463V351.937ZM526.646 349.949C526.716 349.095 527.234 348.563 528.074 348.563C528.872 348.563 529.376 349.053 529.418 349.949H526.646Z" fill="#231F20"/>
<path d="M503.265 368.729L501.459 367.007C502.173 366.111 502.565 364.991 502.565 363.927H500.507C500.507 364.613 500.395 365.215 500.171 365.747L497.693 363.297C497.357 362.961 496.993 362.513 496.993 362.051C496.993 361.603 497.357 361.267 497.917 361.267C498.589 361.267 498.939 361.505 498.939 362.387H500.913C500.913 360.833 499.947 359.965 497.945 359.965C496.139 359.965 494.991 360.777 494.991 362.065C494.991 363.115 495.579 363.717 495.971 364.039C494.893 364.669 494.221 365.243 494.221 366.433C494.221 368.001 495.593 368.953 497.483 368.953C498.547 368.953 499.485 368.631 500.269 368.113L500.899 368.729H503.265ZM499.107 367.063C498.687 367.329 498.225 367.455 497.707 367.455C497.105 367.455 496.265 367.175 496.265 366.321C496.265 365.719 496.685 365.341 497.119 365.047L499.107 367.063Z" fill="#231F20"/>
<path d="M513.536 368.729V366.993H509.924V360.189H507.74V368.729H513.536Z" fill="#231F20"/>
<path d="M516.922 368.729V362.429H514.794V368.729H516.922ZM517.188 360.595C517.188 359.881 516.754 359.433 515.858 359.433C514.962 359.433 514.528 359.881 514.528 360.595C514.528 361.309 514.962 361.757 515.858 361.757C516.754 361.757 517.188 361.309 517.188 360.595Z" fill="#231F20"/>
<path d="M522.498 368.729L524.934 362.429H522.75L522.022 364.641L521.448 367.049H521.42L520.846 364.641L520.118 362.429H517.934L520.37 368.729H522.498Z" fill="#231F20"/>
<path d="M528.065 368.729V362.429H525.937V368.729H528.065ZM528.331 360.595C528.331 359.881 527.897 359.433 527.001 359.433C526.105 359.433 525.671 359.881 525.671 360.595C525.671 361.309 526.105 361.757 527.001 361.757C527.897 361.757 528.331 361.309 528.331 360.595Z" fill="#231F20"/>
<path d="M536.469 368.729V364.921C536.469 363.143 535.699 362.233 534.033 362.233C533.193 362.233 532.367 362.611 531.793 363.213H531.765L531.569 362.429H529.805V368.729H531.961V364.291C532.283 364.081 532.745 363.871 533.305 363.871C533.907 363.871 534.313 364.151 534.313 365.061V368.729H536.469Z" fill="#231F20"/>
<path d="M542.626 368.141C542.556 368.547 542.556 368.701 542.556 368.925C542.556 370.115 541.744 370.395 540.764 370.395C540.078 370.395 539.07 370.171 538.286 369.765V371.487C539.126 371.865 540.134 371.963 541.1 371.963C543.382 371.963 544.712 370.773 544.712 368.925V362.429H542.836L542.682 363.045H542.654C542.22 362.611 541.632 362.233 540.778 362.233C538.916 362.233 537.796 363.661 537.796 365.551C537.796 367.791 539.084 368.911 540.638 368.911C541.576 368.911 542.22 368.659 542.598 368.141H542.626ZM542.556 366.769C542.15 367.203 541.758 367.357 541.254 367.357C540.456 367.357 539.98 366.769 539.98 365.523C539.98 364.711 540.274 363.773 541.324 363.773C541.758 363.773 542.178 363.941 542.556 364.221V366.769Z" fill="#231F20"/>
<path d="M494.277 383.281C494.753 383.603 496.041 383.953 497.273 383.953C499.065 383.953 500.689 383.197 500.689 381.517C500.689 378.647 496.615 378.703 496.615 377.359C496.615 376.869 497.105 376.645 497.819 376.645C498.715 376.645 499.499 376.897 500.157 377.233V375.469C499.583 375.175 498.687 374.993 497.665 374.993C495.873 374.993 494.431 375.763 494.431 377.401C494.431 380.215 498.477 380.019 498.477 381.517C498.477 382.147 497.917 382.301 497.119 382.301C496.167 382.301 494.977 382.007 494.277 381.531V383.281Z" fill="#231F20"/>
<path d="M509.009 380.593C509.009 378.661 507.679 377.205 505.369 377.205C503.059 377.205 501.729 378.661 501.729 380.593C501.729 382.525 503.059 383.981 505.369 383.981C507.679 383.981 509.009 382.525 509.009 380.593ZM505.369 382.483C504.487 382.483 503.941 381.839 503.941 380.593C503.941 379.347 504.487 378.703 505.369 378.703C506.251 378.703 506.797 379.347 506.797 380.593C506.797 381.839 506.251 382.483 505.369 382.483Z" fill="#231F20"/>
<path d="M512.533 383.729V374.629H510.405V383.729H512.533Z" fill="#231F20"/>
<path d="M520.686 383.729V377.429H518.53V381.867C518.208 382.077 517.788 382.287 517.326 382.287C516.724 382.287 516.402 382.007 516.402 381.097V377.429H514.246V381.237C514.246 383.015 514.946 383.925 516.556 383.925C517.382 383.925 518.138 383.561 518.698 382.945H518.726L518.922 383.729H520.686Z" fill="#231F20"/>
<path d="M527.072 382.063C526.736 382.273 526.302 382.357 525.868 382.357C525.294 382.357 524.93 382.147 524.93 381.419V378.871H527.072V377.429H524.93V375.441H523.474L522.83 377.429H521.682V378.871H522.774V381.503C522.774 383.127 523.474 383.953 525.448 383.953C526.162 383.953 526.694 383.827 527.072 383.645V382.063Z" fill="#231F20"/>
<path d="M530.485 383.729V377.429H528.357V383.729H530.485ZM530.751 375.595C530.751 374.881 530.317 374.433 529.421 374.433C528.525 374.433 528.091 374.881 528.091 375.595C528.091 376.309 528.525 376.757 529.421 376.757C530.317 376.757 530.751 376.309 530.751 375.595Z" fill="#231F20"/>
<path d="M539.197 380.593C539.197 378.661 537.867 377.205 535.557 377.205C533.247 377.205 531.917 378.661 531.917 380.593C531.917 382.525 533.247 383.981 535.557 383.981C537.867 383.981 539.197 382.525 539.197 380.593ZM535.557 382.483C534.675 382.483 534.129 381.839 534.129 380.593C534.129 379.347 534.675 378.703 535.557 378.703C536.439 378.703 536.985 379.347 536.985 380.593C536.985 381.839 536.439 382.483 535.557 382.483Z" fill="#231F20"/>
<path d="M547.229 383.729V379.921C547.229 378.143 546.459 377.233 544.793 377.233C543.953 377.233 543.127 377.611 542.553 378.213H542.525L542.329 377.429H540.565V383.729H542.721V379.291C543.043 379.081 543.505 378.871 544.065 378.871C544.667 378.871 545.073 379.151 545.073 380.061V383.729H547.229Z" fill="#231F20"/>
<rect id="z7-text" x="454" y="343.644" width="33.5588" height="33.6309" rx="16.7794" fill="#EC1C24"/>
<path d="M471.182 365.666L474.905 357.149V355.296H467.204V357.336H472.066L468.394 365.666H471.182Z" fill="#F4F4F4"/>
<path id="z4" d="M284 215.57L223.131 185.395L212.39 207.405L201.65 228.589L189.813 223.052L181 242.422L256.19 277.592L284 215.57Z" fill="#BBBBBB" stroke="#575757"/>
<path d="M224.124 191.936C224.6 192.258 225.888 192.608 227.12 192.608C228.912 192.608 230.536 191.852 230.536 190.172C230.536 187.302 226.462 187.358 226.462 186.014C226.462 185.524 226.952 185.3 227.666 185.3C228.562 185.3 229.346 185.552 230.004 185.888V184.124C229.43 183.83 228.534 183.648 227.512 183.648C225.72 183.648 224.278 184.418 224.278 186.056C224.278 188.87 228.324 188.674 228.324 190.172C228.324 190.802 227.764 190.956 226.966 190.956C226.014 190.956 224.824 190.662 224.124 190.186V191.936Z" fill="#231F20"/>
<path d="M239.361 190.186C238.675 190.704 237.807 190.956 236.897 190.956C235.161 190.956 233.901 189.934 233.901 188.1C233.901 186.35 234.993 185.3 236.799 185.3C237.863 185.3 238.633 185.566 239.263 185.972V184.11C238.717 183.872 237.891 183.62 236.603 183.62C233.901 183.62 231.605 185.216 231.605 188.1C231.605 191.194 233.915 192.636 236.561 192.636C237.975 192.636 238.927 192.3 239.361 192.02V190.186Z" fill="#231F20"/>
<path d="M246.825 190.718C246.447 190.872 246.139 190.928 245.537 190.928C243.759 190.928 242.555 190.032 242.555 188.198C242.555 186.112 243.941 185.3 245.803 185.3C246.769 185.3 247.903 185.58 248.589 185.958V184.124C247.931 183.83 246.923 183.62 245.691 183.62C242.653 183.62 240.259 185.244 240.259 188.268C240.259 191.18 242.541 192.636 245.313 192.636C246.825 192.636 248.071 192.258 248.897 191.88V188.128H246.825V190.718Z" fill="#231F20"/>
<path d="M261.889 192.384V183.844H259.705V187.134H256.177V183.844H253.993V192.384H256.177V188.87H259.705V192.384H261.889Z" fill="#231F20"/>
<path d="M270.603 189.248C270.603 187.316 269.273 185.86 266.963 185.86C264.653 185.86 263.323 187.316 263.323 189.248C263.323 191.18 264.653 192.636 266.963 192.636C269.273 192.636 270.603 191.18 270.603 189.248ZM266.963 191.138C266.081 191.138 265.535 190.494 265.535 189.248C265.535 188.002 266.081 187.358 266.963 187.358C267.845 187.358 268.391 188.002 268.391 189.248C268.391 190.494 267.845 191.138 266.963 191.138Z" fill="#231F20"/>
<path d="M282.582 192.384V188.59C282.582 186.812 281.798 185.888 280.286 185.888C279.446 185.888 278.536 186.308 278.018 186.938C277.668 186.266 277.01 185.888 276.058 185.888C275.218 185.888 274.434 186.266 273.944 186.868H273.93L273.734 186.084H271.97V192.384H274.126V187.862C274.42 187.68 274.826 187.498 275.33 187.498C275.904 187.498 276.212 187.82 276.212 188.786V192.384H278.34V188.38C278.34 188.212 278.326 188.044 278.312 187.89C278.606 187.708 279.012 187.498 279.558 187.498C280.132 187.498 280.426 187.82 280.426 188.786V192.384H282.582Z" fill="#231F20"/>
<path d="M290.114 190.592C289.386 190.97 288.742 191.18 287.916 191.18C286.67 191.18 285.984 190.732 285.942 189.794H290.464C290.562 189.5 290.576 189.206 290.576 188.87C290.576 187.302 289.484 185.86 287.356 185.86C285.172 185.86 283.912 187.232 283.912 189.178C283.912 191.208 285.06 192.636 287.594 192.636C288.504 192.636 289.4 192.454 290.114 192.118V190.592ZM285.942 188.604C286.012 187.75 286.53 187.218 287.37 187.218C288.168 187.218 288.672 187.708 288.714 188.604H285.942Z" fill="#231F20"/>
<path d="M224.124 206.936C224.6 207.258 225.888 207.608 227.12 207.608C228.912 207.608 230.536 206.852 230.536 205.172C230.536 202.302 226.462 202.358 226.462 201.014C226.462 200.524 226.952 200.3 227.666 200.3C228.562 200.3 229.346 200.552 230.004 200.888V199.124C229.43 198.83 228.534 198.648 227.512 198.648C225.72 198.648 224.278 199.418 224.278 201.056C224.278 203.87 228.324 203.674 228.324 205.172C228.324 205.802 227.764 205.956 226.966 205.956C226.014 205.956 224.824 205.662 224.124 205.186V206.936Z" fill="#231F20"/>
<path d="M237.779 205.592C237.051 205.97 236.407 206.18 235.581 206.18C234.335 206.18 233.649 205.732 233.607 204.794H238.129C238.227 204.5 238.241 204.206 238.241 203.87C238.241 202.302 237.149 200.86 235.021 200.86C232.837 200.86 231.577 202.232 231.577 204.178C231.577 206.208 232.725 207.636 235.259 207.636C236.169 207.636 237.065 207.454 237.779 207.118V205.592ZM233.607 203.604C233.677 202.75 234.195 202.218 235.035 202.218C235.833 202.218 236.337 202.708 236.379 203.604H233.607Z" fill="#231F20"/>
<path d="M241.738 207.384V198.284H239.61V207.384H241.738Z" fill="#231F20"/>
<path d="M249.345 205.592C248.617 205.97 247.973 206.18 247.147 206.18C245.901 206.18 245.215 205.732 245.173 204.794H249.695C249.793 204.5 249.807 204.206 249.807 203.87C249.807 202.302 248.715 200.86 246.587 200.86C244.403 200.86 243.143 202.232 243.143 204.178C243.143 206.208 244.291 207.636 246.825 207.636C247.735 207.636 248.631 207.454 249.345 207.118V205.592ZM245.173 203.604C245.243 202.75 245.761 202.218 246.601 202.218C247.399 202.218 247.903 202.708 247.945 203.604H245.173Z" fill="#231F20"/>
<path d="M256.678 205.62C256.062 206.012 255.572 206.166 254.858 206.166C253.78 206.166 253.052 205.48 253.052 204.234C253.052 202.988 253.696 202.33 254.886 202.33C255.572 202.33 256.104 202.526 256.594 202.848V201.308C256.202 201.084 255.46 200.86 254.522 200.86C252.352 200.86 250.84 202.232 250.84 204.234C250.84 206.376 252.436 207.636 254.564 207.636C255.586 207.636 256.132 207.468 256.678 207.132V205.62Z" fill="#231F20"/>
<path d="M262.798 205.718C262.462 205.928 262.028 206.012 261.594 206.012C261.02 206.012 260.656 205.802 260.656 205.074V202.526H262.798V201.084H260.656V199.096H259.2L258.556 201.084H257.408V202.526H258.5V205.158C258.5 206.782 259.2 207.608 261.174 207.608C261.888 207.608 262.42 207.482 262.798 207.3V205.718Z" fill="#231F20"/>
<path d="M269.784 205.592C269.056 205.97 268.412 206.18 267.586 206.18C266.34 206.18 265.654 205.732 265.612 204.794H270.134C270.232 204.5 270.246 204.206 270.246 203.87C270.246 202.302 269.154 200.86 267.026 200.86C264.842 200.86 263.582 202.232 263.582 204.178C263.582 206.208 264.73 207.636 267.264 207.636C268.174 207.636 269.07 207.454 269.784 207.118V205.592ZM265.612 203.604C265.682 202.75 266.2 202.218 267.04 202.218C267.838 202.218 268.342 202.708 268.384 203.604H265.612Z" fill="#231F20"/>
<path d="M278.224 207.384V198.284H276.068V201.476H276.04C275.69 201.154 275.004 200.86 274.22 200.86C272.428 200.86 271.308 202.316 271.308 204.206C271.308 206.446 272.498 207.608 274.234 207.608C275.172 207.608 275.858 207.258 276.292 206.6H276.32L276.516 207.384H278.224ZM276.068 205.424C275.662 205.858 275.27 206.054 274.766 206.054C273.968 206.054 273.492 205.424 273.492 204.178C273.492 203.366 273.786 202.428 274.822 202.428C275.256 202.428 275.69 202.554 276.068 202.82V205.424Z" fill="#231F20"/>
<rect id="z4-text" x="218" y="213.226" width="33.5588" height="33.6309" rx="16.7794" fill="#EC1C24"/>
<path d="M238.007 235.248V233.327H239.435V231.372H238.007V224.878H235.389L230.204 231.593V233.327H235.457V235.248H238.007ZM235.457 231.372H232.805L235.457 227.887V231.372Z" fill="#F4F4F4"/>
<path id="z3" d="M224 185.225L163.566 156.333L142 200.869L202.716 229.489L224 185.225Z" fill="#BBBBBB" stroke="#575757"/>
<path d="M168.692 144.281V142.545H165.08V135.741H162.896V144.281H168.692Z" fill="#231F20"/>
<path d="M172.079 144.281V137.981H169.951V144.281H172.079ZM172.345 136.147C172.345 135.433 171.911 134.985 171.015 134.985C170.119 134.985 169.685 135.433 169.685 136.147C169.685 136.861 170.119 137.309 171.015 137.309C171.911 137.309 172.345 136.861 172.345 136.147Z" fill="#231F20"/>
<path d="M177.655 144.281L180.091 137.981H177.907L177.179 140.193L176.605 142.601H176.577L176.003 140.193L175.275 137.981H173.091L175.527 144.281H177.655Z" fill="#231F20"/>
<path d="M183.222 144.281V137.981H181.094V144.281H183.222ZM183.488 136.147C183.488 135.433 183.054 134.985 182.158 134.985C181.262 134.985 180.828 135.433 180.828 136.147C180.828 136.861 181.262 137.309 182.158 137.309C183.054 137.309 183.488 136.861 183.488 136.147Z" fill="#231F20"/>
<path d="M191.626 144.281V140.473C191.626 138.695 190.856 137.785 189.19 137.785C188.35 137.785 187.524 138.163 186.95 138.765H186.922L186.726 137.981H184.962V144.281H187.118V139.843C187.44 139.633 187.902 139.423 188.462 139.423C189.064 139.423 189.47 139.703 189.47 140.613V144.281H191.626Z" fill="#231F20"/>
<path d="M197.782 143.693C197.712 144.099 197.712 144.253 197.712 144.477C197.712 145.667 196.9 145.947 195.92 145.947C195.234 145.947 194.226 145.723 193.442 145.317V147.039C194.282 147.417 195.29 147.515 196.256 147.515C198.538 147.515 199.868 146.325 199.868 144.477V137.981H197.992L197.838 138.597H197.81C197.376 138.163 196.788 137.785 195.934 137.785C194.072 137.785 192.952 139.213 192.952 141.103C192.952 143.343 194.24 144.463 195.794 144.463C196.732 144.463 197.376 144.211 197.754 143.693H197.782ZM197.712 142.321C197.306 142.755 196.914 142.909 196.41 142.909C195.612 142.909 195.136 142.321 195.136 141.075C195.136 140.263 195.43 139.325 196.48 139.325C196.914 139.325 197.334 139.493 197.712 139.773V142.321Z" fill="#231F20"/>
<path d="M165.08 157.573V152.449H166.34C167.922 152.449 168.678 153.149 168.678 154.885C168.678 156.733 168.048 157.573 166.298 157.573H165.08ZM166.326 159.281C169 159.281 170.89 157.979 170.89 154.885C170.89 152.029 168.944 150.741 166.368 150.741H162.896V159.281H166.326Z" fill="#231F20"/>
<path d="M178.182 157.489C177.454 157.867 176.81 158.077 175.984 158.077C174.738 158.077 174.052 157.629 174.01 156.691H178.532C178.63 156.397 178.644 156.103 178.644 155.767C178.644 154.199 177.552 152.757 175.424 152.757C173.24 152.757 171.98 154.129 171.98 156.075C171.98 158.105 173.128 159.533 175.662 159.533C176.572 159.533 177.468 159.351 178.182 159.015V157.489ZM174.01 155.501C174.08 154.647 174.598 154.115 175.438 154.115C176.236 154.115 176.74 154.605 176.782 155.501H174.01Z" fill="#231F20"/>
<path d="M179.663 159.169C180.097 159.351 180.979 159.533 182.029 159.533C183.555 159.533 184.857 158.819 184.857 157.433C184.857 156.103 183.751 155.655 182.813 155.361C182.155 155.151 181.623 154.997 181.623 154.647C181.623 154.353 182.043 154.143 182.785 154.143C183.359 154.143 183.905 154.255 184.465 154.521V153.079C184.031 152.911 183.177 152.757 182.351 152.757C180.629 152.757 179.649 153.653 179.649 154.745C179.649 156.019 180.601 156.383 181.427 156.761C182.127 157.055 182.841 157.181 182.841 157.587C182.841 157.867 182.519 158.105 181.567 158.105C180.993 158.105 180.265 157.923 179.663 157.685V159.169Z" fill="#231F20"/>
<path d="M188.417 159.281V152.981H186.289V159.281H188.417ZM188.683 151.147C188.683 150.433 188.249 149.985 187.353 149.985C186.457 149.985 186.023 150.433 186.023 151.147C186.023 151.861 186.457 152.309 187.353 152.309C188.249 152.309 188.683 151.861 188.683 151.147Z" fill="#231F20"/>
<path d="M194.679 158.693C194.609 159.099 194.609 159.253 194.609 159.477C194.609 160.667 193.797 160.947 192.817 160.947C192.131 160.947 191.123 160.723 190.339 160.317V162.039C191.179 162.417 192.187 162.515 193.153 162.515C195.435 162.515 196.765 161.325 196.765 159.477V152.981H194.889L194.735 153.597H194.707C194.273 153.163 193.685 152.785 192.831 152.785C190.969 152.785 189.849 154.213 189.849 156.103C189.849 158.343 191.137 159.463 192.691 159.463C193.629 159.463 194.273 159.211 194.651 158.693H194.679ZM194.609 157.321C194.203 157.755 193.811 157.909 193.307 157.909C192.509 157.909 192.033 157.321 192.033 156.075C192.033 155.263 192.327 154.325 193.377 154.325C193.811 154.325 194.231 154.493 194.609 154.773V157.321Z" fill="#231F20"/>
<path d="M205.106 159.281V155.473C205.106 153.695 204.336 152.785 202.67 152.785C201.83 152.785 201.004 153.163 200.43 153.765H200.402L200.206 152.981H198.442V159.281H200.598V154.843C200.92 154.633 201.382 154.423 201.942 154.423C202.544 154.423 202.95 154.703 202.95 155.613V159.281H205.106Z" fill="#231F20"/>
<path d="M209.877 158.833C210.353 159.155 211.641 159.505 212.873 159.505C214.665 159.505 216.289 158.749 216.289 157.069C216.289 154.199 212.215 154.255 212.215 152.911C212.215 152.421 212.705 152.197 213.419 152.197C214.315 152.197 215.099 152.449 215.757 152.785V151.021C215.183 150.727 214.287 150.545 213.265 150.545C211.473 150.545 210.031 151.315 210.031 152.953C210.031 155.767 214.077 155.571 214.077 157.069C214.077 157.699 213.517 157.853 212.719 157.853C211.767 157.853 210.577 157.559 209.877 157.083V158.833Z" fill="#231F20"/>
<path d="M222.383 157.615C222.047 157.825 221.613 157.909 221.179 157.909C220.605 157.909 220.241 157.699 220.241 156.971V154.423H222.383V152.981H220.241V150.993H218.785L218.141 152.981H216.993V154.423H218.085V157.055C218.085 158.679 218.785 159.505 220.759 159.505C221.473 159.505 222.005 159.379 222.383 159.197V157.615Z" fill="#231F20"/>
<path d="M230.052 159.281V152.981H227.896V157.419C227.574 157.629 227.154 157.839 226.692 157.839C226.09 157.839 225.768 157.559 225.768 156.649V152.981H223.612V156.789C223.612 158.567 224.312 159.477 225.922 159.477C226.748 159.477 227.504 159.113 228.064 158.497H228.092L228.288 159.281H230.052Z" fill="#231F20"/>
<path d="M238.328 159.281V150.181H236.172V153.373H236.144C235.794 153.051 235.108 152.757 234.324 152.757C232.532 152.757 231.412 154.213 231.412 156.103C231.412 158.343 232.602 159.505 234.338 159.505C235.276 159.505 235.962 159.155 236.396 158.497H236.424L236.62 159.281H238.328ZM236.172 157.321C235.766 157.755 235.374 157.951 234.87 157.951C234.072 157.951 233.596 157.321 233.596 156.075C233.596 155.263 233.89 154.325 234.926 154.325C235.36 154.325 235.794 154.451 236.172 154.717V157.321Z" fill="#231F20"/>
<path d="M242.216 159.281V152.981H240.088V159.281H242.216ZM242.482 151.147C242.482 150.433 242.048 149.985 241.152 149.985C240.256 149.985 239.822 150.433 239.822 151.147C239.822 151.861 240.256 152.309 241.152 152.309C242.048 152.309 242.482 151.861 242.482 151.147Z" fill="#231F20"/>
<path d="M250.928 156.145C250.928 154.213 249.598 152.757 247.288 152.757C244.978 152.757 243.648 154.213 243.648 156.145C243.648 158.077 244.978 159.533 247.288 159.533C249.598 159.533 250.928 158.077 250.928 156.145ZM247.288 158.035C246.406 158.035 245.86 157.391 245.86 156.145C245.86 154.899 246.406 154.255 247.288 154.255C248.17 154.255 248.716 154.899 248.716 156.145C248.716 157.391 248.17 158.035 247.288 158.035Z" fill="#231F20"/>
<rect id="z3-text" x="168.342" y="174.931" width="33.5588" height="33.6309" rx="16.7794" fill="#EC1C24"/>
<path d="M186.343 191.513C187.482 191.173 188.128 190.374 188.128 189.167C188.128 187.263 186.632 186.345 184.252 186.345C182.909 186.345 181.719 186.6 181.09 186.889V188.929C181.753 188.538 182.773 188.317 183.64 188.317C184.915 188.317 185.561 188.691 185.561 189.439C185.561 190.425 184.32 190.68 182.875 190.68V192.55C184.439 192.414 185.782 192.601 185.782 193.808C185.782 194.879 184.915 195.219 183.708 195.219C182.909 195.219 181.532 194.947 180.92 194.59V196.664C181.515 196.936 182.569 197.225 184.082 197.225C186.598 197.225 188.434 196.137 188.434 194.029C188.434 192.669 187.618 191.802 186.343 191.547V191.513Z" fill="#F4F4F4"/>
<path d="M594 14.0278H564V44.0922H594V14.0278ZM593.126 43.2685H564.874V14.9231H593.126V43.2685Z" fill="#575757"/>
<path d="M579.325 40.3499C579.394 40.3499 579.461 40.3216 579.51 40.2712C579.559 40.2209 579.587 40.1525 579.587 40.0813V17.5733C579.587 17.5021 579.559 17.4337 579.51 17.3834C579.461 17.333 579.394 17.3047 579.325 17.3047C579.255 17.3047 579.188 17.333 579.139 17.3834C579.09 17.4337 579.062 17.5021 579.063 17.5733V40.0813C579.062 40.1525 579.09 40.2209 579.139 40.2712C579.188 40.3216 579.255 40.3499 579.325 40.3499Z" fill="#575757"/>
<path fill-rule="evenodd" clip-rule="evenodd" d="M570.208 25.1854C570.297 24.9466 570.433 24.7289 570.606 24.5453C570.781 24.3678 570.989 24.2281 571.217 24.1345C571.445 24.041 571.69 23.9954 571.935 24.0005H574.593C574.839 23.9954 575.083 24.041 575.312 24.1345C575.54 24.2281 575.748 24.3678 575.922 24.5453C576.1 24.7283 576.24 24.946 576.334 25.1854C576.34 25.2397 576.34 25.2945 576.334 25.3488L577.663 30.4561C577.712 30.6492 577.685 30.8544 577.588 31.0275C577.492 31.2007 577.332 31.328 577.145 31.3822C576.958 31.432 576.76 31.4042 576.593 31.3047C576.426 31.2052 576.304 31.0421 576.254 30.851L575.138 26.6154H574.753L576.44 33.1254H575.112V37.3746C575.112 37.5733 575.035 37.7638 574.897 37.9043C574.76 38.0448 574.574 38.1236 574.381 38.1236H574.181C573.987 38.1236 573.802 38.0448 573.664 37.9043C573.527 37.7638 573.45 37.5733 573.45 37.3746V33.2071H573.118V37.3746C573.118 37.5733 573.041 37.7638 572.904 37.9043C572.767 38.0448 572.581 38.1236 572.387 38.1236H572.188C571.994 38.1236 571.808 38.0448 571.671 37.9043C571.534 37.7638 571.457 37.5733 571.457 37.3746V33.1254H570.128L571.803 26.6154H571.417L570.314 30.851C570.261 31.0431 570.137 31.2063 569.968 31.3056C569.799 31.4049 569.599 31.4324 569.41 31.3822C569.223 31.328 569.064 31.2007 568.967 31.0275C568.87 30.8544 568.843 30.6492 568.892 30.4561L570.221 25.3488C570.216 25.2945 570.216 25.2397 570.221 25.1854H570.208ZM573.278 20.5957C573.47 20.5957 573.66 20.6345 573.837 20.7098C574.014 20.785 574.176 20.8954 574.311 21.0345C574.447 21.1736 574.555 21.3388 574.628 21.5205C574.702 21.7023 574.739 21.8971 574.739 22.0938C574.739 22.2906 574.702 22.4854 574.628 22.6671C574.555 22.8489 574.447 23.0141 574.311 23.1532C574.176 23.2923 574.014 23.4026 573.837 23.4779C573.66 23.5532 573.47 23.592 573.278 23.5919C573.086 23.592 572.896 23.5532 572.718 23.4779C572.541 23.4026 572.38 23.2923 572.244 23.1532C572.108 23.0141 572.001 22.8489 571.927 22.6671C571.854 22.4854 571.816 22.2906 571.816 22.0938C571.816 21.8971 571.854 21.7023 571.927 21.5205C572.001 21.3388 572.108 21.1736 572.244 21.0345C572.38 20.8954 572.541 20.785 572.718 20.7098C572.896 20.6345 573.086 20.5957 573.278 20.5957Z" fill="#212121"/>
<path fill-rule="evenodd" clip-rule="evenodd" d="M583.07 26.6154V37.3746C583.07 37.5733 583.147 37.7638 583.284 37.9043C583.421 38.0448 583.607 38.1236 583.801 38.1236H584C584.194 38.1236 584.38 38.0448 584.517 37.9043C584.654 37.7638 584.731 37.5733 584.731 37.3746V31.6273H585.077V37.4291C585.077 37.6278 585.154 37.8182 585.291 37.9587C585.428 38.0992 585.614 38.1781 585.808 38.1781H586.007C586.201 38.1781 586.387 38.0992 586.524 37.9587C586.661 37.8182 586.738 37.6278 586.738 37.4291V26.6699H587.15V30.8782C587.15 31.0769 587.227 31.2674 587.364 31.4079C587.501 31.5484 587.687 31.6273 587.881 31.6273C588.075 31.6273 588.261 31.5484 588.398 31.4079C588.535 31.2674 588.612 31.0769 588.612 30.8782V25.9345C588.616 25.4266 588.425 24.9374 588.08 24.5725C587.906 24.3951 587.698 24.2554 587.47 24.1618C587.241 24.0682 586.997 24.0226 586.751 24.0278H582.964C582.722 24.026 582.483 24.0733 582.26 24.1671C582.037 24.2609 581.834 24.3993 581.663 24.5742C581.492 24.7491 581.357 24.957 581.266 25.1858C581.174 25.4147 581.128 25.6599 581.13 25.9072V30.851C581.13 31.0496 581.207 31.2402 581.344 31.3807C581.481 31.5211 581.667 31.6001 581.861 31.6001C582.055 31.6001 582.241 31.5211 582.378 31.3807C582.515 31.2402 582.592 31.0496 582.592 30.851V26.6426L583.07 26.6154ZM584.917 20.5957C585.206 20.5957 585.489 20.6836 585.73 20.8482C585.97 21.0128 586.157 21.2468 586.268 21.5205C586.379 21.7943 586.407 22.0955 586.351 22.3861C586.295 22.6767 586.155 22.9437 585.951 23.1532C585.747 23.3627 585.486 23.5053 585.203 23.5631C584.919 23.621 584.625 23.5913 584.358 23.4779C584.091 23.3645 583.863 23.1725 583.702 22.9261C583.541 22.6798 583.456 22.3901 583.456 22.0938C583.456 21.6965 583.61 21.3154 583.884 21.0345C584.158 20.7535 584.53 20.5957 584.917 20.5957Z" fill="#212121"/>
<path id="z5" d="M316 59.1245V1H382.5V41.5869L365 59.1245H316Z" fill="#C4C4C4" stroke="#575757"/>
<path id="z1" d="M221.112 119.253L11 104.597L15.7416 20.041L293.022 51.6086L311 119.253L272.798 146.311L221.112 119.253Z" fill="#C4C4C4" stroke="#575757"/>
<path d="M97.2941 66.37C96.6081 66.888 95.7401 67.14 94.8301 67.14C93.0941 67.14 91.8341 66.118 91.8341 64.284C91.8341 62.534 92.9261 61.484 94.7321 61.484C95.7961 61.484 96.5661 61.75 97.1961 62.156V60.294C96.6501 60.056 95.8241 59.804 94.5361 59.804C91.8341 59.804 89.5381 61.4 89.5381 64.284C89.5381 67.378 91.8481 68.82 94.4941 68.82C95.9081 68.82 96.8601 68.484 97.2941 68.204V66.37Z" fill="#231F20"/>
<path d="M102.303 66.734C102.023 67.126 101.645 67.336 101.085 67.336C100.679 67.336 100.231 67.14 100.231 66.594C100.231 65.936 100.777 65.726 101.435 65.726C101.701 65.726 102.093 65.754 102.303 65.796V66.734ZM104.403 68.568V64.746C104.403 62.52 102.933 62.044 101.309 62.044C100.413 62.044 99.4471 62.24 98.8871 62.506V63.99C99.4611 63.696 100.315 63.5 100.931 63.5C101.841 63.5 102.303 63.766 102.303 64.452V64.648C102.009 64.606 101.519 64.578 101.225 64.578C99.8671 64.578 98.2991 65.082 98.2991 66.762C98.2991 68.05 99.1531 68.75 100.399 68.75C101.407 68.75 102.191 68.302 102.471 67.784H102.499L102.695 68.568H104.403Z" fill="#231F20"/>
<path d="M108.203 68.568V64.886C108.651 64.438 109.323 64.116 110.065 64.116C110.275 64.116 110.499 64.13 110.723 64.172V62.17C110.513 62.114 110.275 62.086 110.107 62.086C109.253 62.086 108.511 62.66 108.105 63.612H108.077L107.741 62.268H106.047V68.568H108.203Z" fill="#231F20"/>
<path d="M117.546 66.776C116.818 67.154 116.174 67.364 115.348 67.364C114.102 67.364 113.416 66.916 113.374 65.978H117.896C117.994 65.684 118.008 65.39 118.008 65.054C118.008 63.486 116.916 62.044 114.788 62.044C112.604 62.044 111.344 63.416 111.344 65.362C111.344 67.392 112.492 68.82 115.026 68.82C115.936 68.82 116.832 68.638 117.546 68.302V66.776ZM113.374 64.788C113.444 63.934 113.962 63.402 114.802 63.402C115.6 63.402 116.104 63.892 116.146 64.788H113.374Z" fill="#231F20"/>
<path d="M128.701 68.568V66.832H125.089V60.028H122.905V68.568H128.701Z" fill="#231F20"/>
<path d="M132.088 68.568V62.268H129.96V68.568H132.088ZM132.354 60.434C132.354 59.72 131.92 59.272 131.024 59.272C130.128 59.272 129.694 59.72 129.694 60.434C129.694 61.148 130.128 61.596 131.024 61.596C131.92 61.596 132.354 61.148 132.354 60.434Z" fill="#231F20"/>
<path d="M137.664 68.568L140.1 62.268H137.916L137.188 64.48L136.614 66.888H136.586L136.012 64.48L135.284 62.268H133.1L135.536 68.568H137.664Z" fill="#231F20"/>
<path d="M143.231 68.568V62.268H141.103V68.568H143.231ZM143.497 60.434C143.497 59.72 143.063 59.272 142.167 59.272C141.271 59.272 140.837 59.72 140.837 60.434C140.837 61.148 141.271 61.596 142.167 61.596C143.063 61.596 143.497 61.148 143.497 60.434Z" fill="#231F20"/>
<path d="M151.634 68.568V64.76C151.634 62.982 150.864 62.072 149.198 62.072C148.358 62.072 147.532 62.45 146.958 63.052H146.93L146.734 62.268H144.97V68.568H147.126V64.13C147.448 63.92 147.91 63.71 148.47 63.71C149.072 63.71 149.478 63.99 149.478 64.9V68.568H151.634Z" fill="#231F20"/>
<path d="M157.791 67.98C157.721 68.386 157.721 68.54 157.721 68.764C157.721 69.954 156.909 70.234 155.929 70.234C155.243 70.234 154.235 70.01 153.451 69.604V71.326C154.291 71.704 155.299 71.802 156.265 71.802C158.547 71.802 159.877 70.612 159.877 68.764V62.268H158.001L157.847 62.884H157.819C157.385 62.45 156.797 62.072 155.943 62.072C154.081 62.072 152.961 63.5 152.961 65.39C152.961 67.63 154.249 68.75 155.803 68.75C156.741 68.75 157.385 68.498 157.763 67.98H157.791ZM157.721 66.608C157.315 67.042 156.923 67.196 156.419 67.196C155.621 67.196 155.145 66.608 155.145 65.362C155.145 64.55 155.439 63.612 156.489 63.612C156.923 63.612 157.343 63.78 157.721 64.06V66.608Z" fill="#231F20"/>
<path d="M89.4541 83.12C89.9301 83.442 91.2181 83.792 92.4501 83.792C94.2421 83.792 95.8661 83.036 95.8661 81.356C95.8661 78.486 91.7921 78.542 91.7921 77.198C91.7921 76.708 92.2821 76.484 92.9961 76.484C93.8921 76.484 94.6761 76.736 95.3341 77.072V75.308C94.7601 75.014 93.8641 74.832 92.8421 74.832C91.0501 74.832 89.6081 75.602 89.6081 77.24C89.6081 80.054 93.6541 79.858 93.6541 81.356C93.6541 81.986 93.0941 82.14 92.2961 82.14C91.3441 82.14 90.1541 81.846 89.4541 81.37V83.12Z" fill="#231F20"/>
<path d="M104.187 80.432C104.187 78.5 102.857 77.044 100.547 77.044C98.2366 77.044 96.9066 78.5 96.9066 80.432C96.9066 82.364 98.2366 83.82 100.547 83.82C102.857 83.82 104.187 82.364 104.187 80.432ZM100.547 82.322C99.6646 82.322 99.1186 81.678 99.1186 80.432C99.1186 79.186 99.6646 78.542 100.547 78.542C101.429 78.542 101.975 79.186 101.975 80.432C101.975 81.678 101.429 82.322 100.547 82.322Z" fill="#231F20"/>
<path d="M107.71 83.568V74.468H105.582V83.568H107.71Z" fill="#231F20"/>
<path d="M115.864 83.568V77.268H113.708V81.706C113.386 81.916 112.966 82.126 112.504 82.126C111.902 82.126 111.58 81.846 111.58 80.936V77.268H109.424V81.076C109.424 82.854 110.124 83.764 111.734 83.764C112.56 83.764 113.316 83.4 113.876 82.784H113.904L114.1 83.568H115.864Z" fill="#231F20"/>
<path d="M122.25 81.902C121.914 82.112 121.48 82.196 121.046 82.196C120.472 82.196 120.108 81.986 120.108 81.258V78.71H122.25V77.268H120.108V75.28H118.652L118.008 77.268H116.86V78.71H117.952V81.342C117.952 82.966 118.652 83.792 120.626 83.792C121.34 83.792 121.872 83.666 122.25 83.484V81.902Z" fill="#231F20"/>
<path d="M125.662 83.568V77.268H123.534V83.568H125.662ZM125.928 75.434C125.928 74.72 125.494 74.272 124.598 74.272C123.702 74.272 123.268 74.72 123.268 75.434C123.268 76.148 123.702 76.596 124.598 76.596C125.494 76.596 125.928 76.148 125.928 75.434Z" fill="#231F20"/>
<path d="M134.374 80.432C134.374 78.5 133.044 77.044 130.734 77.044C128.424 77.044 127.094 78.5 127.094 80.432C127.094 82.364 128.424 83.82 130.734 83.82C133.044 83.82 134.374 82.364 134.374 80.432ZM130.734 82.322C129.852 82.322 129.306 81.678 129.306 80.432C129.306 79.186 129.852 78.542 130.734 78.542C131.616 78.542 132.162 79.186 132.162 80.432C132.162 81.678 131.616 82.322 130.734 82.322Z" fill="#231F20"/>
<path d="M142.406 83.568V79.76C142.406 77.982 141.636 77.072 139.97 77.072C139.13 77.072 138.304 77.45 137.73 78.052H137.702L137.506 77.268H135.742V83.568H137.898V79.13C138.22 78.92 138.682 78.71 139.242 78.71C139.844 78.71 140.25 78.99 140.25 79.9V83.568H142.406Z" fill="#231F20"/>
<rect id="z1-text" x="50" y="52.1094" width="33.5588" height="33.6308" rx="16.7794" fill="#EC1C24"/>
<path d="M68.814 74.1309V63.7609H66.604C66.298 64.2879 65.023 65.1549 63.374 65.0699V67.2629C64.411 67.2799 65.584 67.0759 66.264 66.3279V74.1309H68.814Z" fill="#F4F4F4"/>
<path d="M310.863 161.549C308.56 166.949 307.374 172.766 307.377 178.644C307.377 190.153 311.916 201.191 319.995 209.329C328.074 217.467 339.032 222.039 350.458 222.039C358.682 222.051 366.736 219.677 373.657 215.201L319.57 168.952L310.863 161.549Z" fill="#BBBBBB" stroke="#575757" stroke-width="0.5" stroke-miterlimit="10"/>
<path d="M350.459 135.288C342.111 135.289 333.944 137.743 326.96 142.349L335.863 150.055L389.663 196.712C392.235 191.072 393.57 184.941 393.579 178.735C393.586 173.029 392.476 167.377 390.311 162.104C388.147 156.83 384.971 152.038 380.966 148.002C376.96 143.967 372.204 140.766 366.969 138.585C361.735 136.403 356.124 135.282 350.459 135.288Z" fill="#BBBBBB" stroke="#575757" stroke-width="0.5" stroke-miterlimit="10"/>
<path d="M318.866 149.185C317.908 150.22 317.007 151.298 316.163 152.42L326.111 161.033L381.385 208.873C382.299 207.927 383.161 206.94 383.996 205.928L329.166 158.14L318.866 149.185Z" fill="#BBBBBB" stroke="#575757" stroke-width="0.5" stroke-miterlimit="10"/>
<path d="M335.81 150.055L326.907 142.349L321.411 137.536L314.23 145.097L318.865 149.135L329.139 158.09L383.97 205.877C386.243 203.04 388.151 199.925 389.649 196.606L335.81 150.055Z" fill="#F4F4F4" stroke="#575757" stroke-width="0.5" stroke-miterlimit="10"/>
<path d="M326.111 161.034L316.163 152.421L311.947 148.765L304.767 156.326L310.863 161.586L319.571 169.029L373.657 215.278C376.471 213.467 379.064 211.331 381.386 208.914L326.111 161.034Z" fill="#F4F4F4" stroke="#575757" stroke-width="0.5" stroke-miterlimit="10"/>
<path d="M328.592 157.969L335.772 150.302" stroke="#575757" stroke-width="0.5" stroke-miterlimit="10"/>
<path d="M331.098 160.062L338.278 152.383" stroke="#575757" stroke-width="0.5" stroke-miterlimit="10"/>
<path d="M333.592 162.138L340.772 154.471" stroke="#575757" stroke-width="0.5" stroke-miterlimit="10"/>
<path d="M336.099 164.218L343.279 156.552" stroke="#575757" stroke-width="0.5" stroke-miterlimit="10"/>
<path d="M338.605 166.307L345.786 158.627" stroke="#575757" stroke-width="0.5" stroke-miterlimit="10"/>
<path d="M341.099 168.387L348.279 160.721" stroke="#575757" stroke-width="0.5" stroke-miterlimit="10"/>
<path d="M343.605 170.463L350.786 162.796" stroke="#575757" stroke-width="0.5" stroke-miterlimit="10"/>
<path d="M346.111 172.554L353.292 164.875" stroke="#575757" stroke-width="0.5" stroke-miterlimit="10"/>
<path d="M348.605 174.632L355.786 166.965" stroke="#575757" stroke-width="0.5" stroke-miterlimit="10"/>
<path d="M350.837 177.039L358.291 169.043" stroke="#575757" stroke-width="0.5" stroke-miterlimit="10"/>
<path d="M353.291 179.182L360.471 171.502" stroke="#575757" stroke-width="0.5" stroke-miterlimit="10"/>
<path d="M355.785 181.259L362.965 173.593" stroke="#575757" stroke-width="0.5" stroke-miterlimit="10"/>
<path d="M358.345 183.231L365.525 175.565" stroke="#575757" stroke-width="0.5" stroke-miterlimit="10"/>
<path d="M360.799 185.377L367.979 177.697" stroke="#575757" stroke-width="0.5" stroke-miterlimit="10"/>
<path d="M363.292 187.613L370.472 179.946" stroke="#575757" stroke-width="0.5" stroke-miterlimit="10"/>
<path d="M365.693 189.702L372.874 182.022" stroke="#575757" stroke-width="0.5" stroke-miterlimit="10"/>
<path d="M368.135 191.727L375.315 184.061" stroke="#575757" stroke-width="0.5" stroke-miterlimit="10"/>
<path d="M370.524 193.805L377.705 186.139" stroke="#575757" stroke-width="0.5" stroke-miterlimit="10"/>
<path d="M372.873 196.054L380.053 188.388" stroke="#575757" stroke-width="0.5" stroke-miterlimit="10"/>
<path d="M375.367 198.078L382.547 190.412" stroke="#575757" stroke-width="0.5" stroke-miterlimit="10"/>
<path d="M377.549 200.224L384.729 192.544" stroke="#575757" stroke-width="0.5" stroke-miterlimit="10"/>
<path d="M380.159 202.142L387.339 194.462" stroke="#575757" stroke-width="0.5" stroke-miterlimit="10"/>
<path d="M382.443 204.219L389.624 196.553" stroke="#575757" stroke-width="0.5" stroke-miterlimit="10"/>
<path d="M318.5 168.031L325.68 160.365" stroke="#575757" stroke-width="0.5" stroke-miterlimit="10"/>
<path d="M320.994 170.11L328.174 162.443" stroke="#575757" stroke-width="0.5" stroke-miterlimit="10"/>
<path d="M323.5 172.199L330.68 164.519" stroke="#575757" stroke-width="0.5" stroke-miterlimit="10"/>
<path d="M326.006 174.279L332.834 166.901" stroke="#575757" stroke-width="0.5" stroke-miterlimit="10"/>
<path d="M328.5 176.355L335.341 169.043" stroke="#575757" stroke-width="0.5" stroke-miterlimit="10"/>
<path d="M331.008 178.446L337.731 171.174" stroke="#575757" stroke-width="0.5" stroke-miterlimit="10"/>
<path d="M333.514 180.523L340.172 173.316" stroke="#575757" stroke-width="0.5" stroke-miterlimit="10"/>
<path d="M336.008 182.602L342.679 175.449" stroke="#575757" stroke-width="0.5" stroke-miterlimit="10"/>
<path d="M338.514 184.692L345.133 177.591" stroke="#575757" stroke-width="0.5" stroke-miterlimit="10"/>
<path d="M340.746 187.099L347.574 179.669" stroke="#575757" stroke-width="0.5" stroke-miterlimit="10"/>
<path d="M343.188 189.229L350.368 181.562" stroke="#575757" stroke-width="0.5" stroke-miterlimit="10"/>
<path d="M345.693 191.319L352.521 183.942" stroke="#575757" stroke-width="0.5" stroke-miterlimit="10"/>
<path d="M348.253 193.292L354.924 186.139" stroke="#575757" stroke-width="0.5" stroke-miterlimit="10"/>
<path d="M350.694 195.421L357.418 188.163" stroke="#575757" stroke-width="0.5" stroke-miterlimit="10"/>
<path d="M353.201 197.67L359.924 190.412" stroke="#575757" stroke-width="0.5" stroke-miterlimit="10"/>
<path d="M355.59 199.751L362.313 192.544" stroke="#575757" stroke-width="0.5" stroke-miterlimit="10"/>
<path d="M358.044 201.787L364.715 194.581" stroke="#575757" stroke-width="0.5" stroke-miterlimit="10"/>
<path d="M360.433 203.866L367.208 196.765" stroke="#575757" stroke-width="0.5" stroke-miterlimit="10"/>
<path d="M362.77 206.113L369.662 198.789" stroke="#575757" stroke-width="0.5" stroke-miterlimit="10"/>
<path d="M365.275 208.14L372.103 200.934" stroke="#575757" stroke-width="0.5" stroke-miterlimit="10"/>
<path d="M367.457 210.269L374.637 202.602" stroke="#575757" stroke-width="0.5" stroke-miterlimit="10"/>
<path d="M370.068 212.188L376.792 204.981" stroke="#575757" stroke-width="0.5" stroke-miterlimit="10"/>
<path d="M372.353 214.278L379.076 206.954" stroke="#575757" stroke-width="0.5" stroke-miterlimit="10"/>
<path d="M340.47 230.792H339.993C317.818 230.281 305.359 218.535 302.935 195.869V195.417L290 195.889V196.381C290 207.084 295.345 218.535 304.167 226.995C311.142 233.685 323.401 241.515 342.536 241.515H344.523H345V237.679H340.529L340.47 230.792ZM343.947 238.761V240.492C324.315 240.886 311.817 232.996 304.783 226.267C296.464 218.583 291.478 208.004 290.874 196.754L301.942 196.322C304.525 219.105 317.122 230.989 339.417 231.737V238.662L343.947 238.761Z" fill="#575757"/>
<rect id="z5-text" x="332" y="13.0259" width="33.5588" height="33.6309" rx="16.7794" fill="#EC1C24"/>
<path d="M344.578 34.7611C345.139 35.0331 346.397 35.2881 347.621 35.2881C350.358 35.2881 352.432 34.0301 352.432 31.5821C352.432 29.6611 351.157 28.2161 348.165 28.2161C347.944 28.2161 347.536 28.2161 347.281 28.2331L347.349 26.6861H351.905V24.6461H345.037L344.833 30.3241C345.496 30.2391 346.261 30.1541 347.23 30.1541C348.913 30.1541 349.763 30.6471 349.763 31.6161C349.763 32.7891 348.862 33.2651 347.298 33.2651C346.295 33.2651 345.241 33.0271 344.578 32.7041V34.7611Z" fill="#F4F4F4"/>
<path d="M341.792 76.1351V67.5951H339.608V70.8851H336.08V67.5951H333.896V76.1351H336.08V72.6211H339.608V76.1351H341.792Z" fill="#231F20"/>
<path d="M350.506 72.9991C350.506 71.0671 349.176 69.6111 346.866 69.6111C344.556 69.6111 343.226 71.0671 343.226 72.9991C343.226 74.9311 344.556 76.3871 346.866 76.3871C349.176 76.3871 350.506 74.9311 350.506 72.9991ZM346.866 74.8891C345.984 74.8891 345.438 74.2451 345.438 72.9991C345.438 71.7531 345.984 71.1091 346.866 71.1091C347.748 71.1091 348.294 71.7531 348.294 72.9991C348.294 74.2451 347.748 74.8891 346.866 74.8891Z" fill="#231F20"/>
<path d="M362.486 76.1351V72.3411C362.486 70.5631 361.702 69.6391 360.19 69.6391C359.35 69.6391 358.44 70.0591 357.922 70.6891C357.572 70.0171 356.914 69.6391 355.962 69.6391C355.122 69.6391 354.338 70.0171 353.848 70.6191H353.834L353.638 69.8351H351.874V76.1351H354.03V71.6131C354.324 71.4311 354.73 71.2491 355.234 71.2491C355.808 71.2491 356.116 71.5711 356.116 72.5371V76.1351H358.244V72.1311C358.244 71.9631 358.23 71.7951 358.216 71.6411C358.51 71.4591 358.916 71.2491 359.462 71.2491C360.036 71.2491 360.33 71.5711 360.33 72.5371V76.1351H362.486Z" fill="#231F20"/>
<path d="M370.018 74.3431C369.29 74.7211 368.646 74.9311 367.82 74.9311C366.574 74.9311 365.888 74.4831 365.846 73.5451H370.368C370.466 73.2511 370.48 72.9571 370.48 72.6211C370.48 71.0531 369.388 69.6111 367.26 69.6111C365.076 69.6111 363.816 70.9831 363.816 72.9291C363.816 74.9591 364.964 76.3871 367.498 76.3871C368.408 76.3871 369.304 76.2051 370.018 75.8691V74.3431ZM365.846 72.3551C365.916 71.5011 366.434 70.9691 367.274 70.9691C368.072 70.9691 368.576 71.4591 368.618 72.3551H365.846Z" fill="#231F20"/>
<path d="M383.945 76.1351L382.139 74.4131C382.853 73.5171 383.245 72.3971 383.245 71.3331H381.187C381.187 72.0191 381.075 72.6211 380.851 73.1531L378.373 70.7031C378.037 70.3671 377.673 69.9191 377.673 69.4571C377.673 69.0091 378.037 68.6731 378.597 68.6731C379.269 68.6731 379.619 68.9111 379.619 69.7931H381.593C381.593 68.2391 380.627 67.3711 378.625 67.3711C376.819 67.3711 375.671 68.1831 375.671 69.4711C375.671 70.5211 376.259 71.1231 376.651 71.4451C375.573 72.0751 374.901 72.6491 374.901 73.8391C374.901 75.4071 376.273 76.3591 378.163 76.3591C379.227 76.3591 380.165 76.0371 380.949 75.5191L381.579 76.1351H383.945ZM379.787 74.4691C379.367 74.7351 378.905 74.8611 378.387 74.8611C377.785 74.8611 376.945 74.5811 376.945 73.7271C376.945 73.1251 377.365 72.7471 377.799 72.4531L379.787 74.4691Z" fill="#231F20"/>
<path d="M390.604 74.4271V69.3031H391.864C393.446 69.3031 394.202 70.0031 394.202 71.7391C394.202 73.5871 393.572 74.4271 391.822 74.4271H390.604ZM391.85 76.1351C394.524 76.1351 396.414 74.8331 396.414 71.7391C396.414 68.8831 394.468 67.5951 391.892 67.5951H388.42V76.1351H391.85Z" fill="#231F20"/>
<path d="M403.705 74.3431C402.977 74.7211 402.333 74.9311 401.507 74.9311C400.261 74.9311 399.575 74.4831 399.533 73.5451H404.055C404.153 73.2511 404.167 72.9571 404.167 72.6211C404.167 71.0531 403.075 69.6111 400.947 69.6111C398.763 69.6111 397.503 70.9831 397.503 72.9291C397.503 74.9591 398.651 76.3871 401.185 76.3871C402.095 76.3871 402.991 76.2051 403.705 75.8691V74.3431ZM399.533 72.3551C399.603 71.5011 400.121 70.9691 400.961 70.9691C401.759 70.9691 402.263 71.4591 402.305 72.3551H399.533Z" fill="#231F20"/>
<path d="M411.038 74.3711C410.422 74.7631 409.932 74.9171 409.218 74.9171C408.14 74.9171 407.412 74.2311 407.412 72.9851C407.412 71.7391 408.056 71.0811 409.246 71.0811C409.932 71.0811 410.464 71.2771 410.954 71.5991V70.0591C410.562 69.8351 409.82 69.6111 408.882 69.6111C406.712 69.6111 405.2 70.9831 405.2 72.9851C405.2 75.1271 406.796 76.3871 408.924 76.3871C409.946 76.3871 410.492 76.2191 411.038 75.8831V74.3711Z" fill="#231F20"/>
<path d="M419.221 72.9991C419.221 71.0671 417.891 69.6111 415.581 69.6111C413.271 69.6111 411.941 71.0671 411.941 72.9991C411.941 74.9311 413.271 76.3871 415.581 76.3871C417.891 76.3871 419.221 74.9311 419.221 72.9991ZM415.581 74.8891C414.699 74.8891 414.153 74.2451 414.153 72.9991C414.153 71.7531 414.699 71.1091 415.581 71.1091C416.463 71.1091 417.009 71.7531 417.009 72.9991C417.009 74.2451 416.463 74.8891 415.581 74.8891Z" fill="#231F20"/>
<path d="M422.745 76.1351V72.4531C423.193 72.0051 423.865 71.6831 424.607 71.6831C424.817 71.6831 425.041 71.6971 425.265 71.7391V69.7371C425.055 69.6811 424.817 69.6531 424.649 69.6531C423.795 69.6531 423.053 70.2271 422.647 71.1791H422.619L422.283 69.8351H420.589V76.1351H422.745Z" fill="#231F20"/>
<path d="M337.718 91.1351C339.706 91.1351 341.134 90.4491 341.134 88.6851C341.134 87.4391 340.406 86.8511 339.706 86.6271V86.5991C340.196 86.2771 340.7 85.6611 340.7 84.7791C340.7 83.1831 339.356 82.5951 337.648 82.5951H333.896V91.1351H337.718ZM336.038 86.0111V84.2331H337.396C338.236 84.2331 338.502 84.4711 338.502 85.0871C338.502 85.4651 338.404 85.8011 338.292 86.0111H336.038ZM336.038 89.4971V87.6491H337.466C338.292 87.6491 338.922 87.6911 338.922 88.5171C338.922 89.3991 338.166 89.4971 337.536 89.4971H336.038Z" fill="#231F20"/>
<path d="M349.371 87.9991C349.371 86.0671 348.041 84.6111 345.731 84.6111C343.421 84.6111 342.091 86.0671 342.091 87.9991C342.091 89.9311 343.421 91.3871 345.731 91.3871C348.041 91.3871 349.371 89.9311 349.371 87.9991ZM345.731 89.8891C344.849 89.8891 344.303 89.2451 344.303 87.9991C344.303 86.7531 344.849 86.1091 345.731 86.1091C346.613 86.1091 347.159 86.7531 347.159 87.9991C347.159 89.2451 346.613 89.8891 345.731 89.8891Z" fill="#231F20"/>
<path d="M357.179 91.1351V84.8351H355.023V89.2731C354.701 89.4831 354.281 89.6931 353.819 89.6931C353.217 89.6931 352.895 89.4131 352.895 88.5031V84.8351H350.739V88.6431C350.739 90.4211 351.439 91.3311 353.049 91.3311C353.875 91.3311 354.631 90.9671 355.191 90.3511H355.219L355.415 91.1351H357.179Z" fill="#231F20"/>
<path d="M363.565 89.4691C363.229 89.6791 362.795 89.7631 362.361 89.7631C361.787 89.7631 361.423 89.5531 361.423 88.8251V86.2771H363.565V84.8351H361.423V82.8471H359.967L359.323 84.8351H358.175V86.2771H359.267V88.9091C359.267 90.5331 359.967 91.3591 361.941 91.3591C362.655 91.3591 363.187 91.2331 363.565 91.0511V89.4691Z" fill="#231F20"/>
<path d="M366.978 91.1351V84.8351H364.85V91.1351H366.978ZM367.244 83.0011C367.244 82.2871 366.81 81.8391 365.914 81.8391C365.018 81.8391 364.584 82.2871 364.584 83.0011C364.584 83.7151 365.018 84.1631 365.914 84.1631C366.81 84.1631 367.244 83.7151 367.244 83.0011Z" fill="#231F20"/>
<path d="M375.283 94.1451V84.8351H373.449L373.281 85.4371H373.253C372.805 84.9891 372.147 84.6111 371.251 84.6111C369.473 84.6111 368.367 86.0671 368.367 87.9571C368.367 90.1971 369.641 91.3591 371.321 91.3591C371.979 91.3591 372.763 91.0931 373.169 90.6311H373.197C373.127 90.9671 373.099 91.5831 373.099 91.8631V94.1451H375.283ZM373.127 89.3011C372.721 89.7351 372.329 89.8751 371.825 89.8751C371.027 89.8751 370.551 89.1751 370.551 87.9291C370.551 87.1171 370.845 86.1791 371.867 86.1791C372.301 86.1791 372.679 86.3191 373.127 86.6551V89.3011Z" fill="#231F20"/>
<path d="M383.402 91.1351V84.8351H381.246V89.2731C380.924 89.4831 380.504 89.6931 380.042 89.6931C379.44 89.6931 379.118 89.4131 379.118 88.5031V84.8351H376.962V88.6431C376.962 90.4211 377.662 91.3311 379.272 91.3311C380.098 91.3311 380.854 90.9671 381.414 90.3511H381.442L381.638 91.1351H383.402Z" fill="#231F20"/>
<path d="M390.936 89.3431C390.208 89.7211 389.564 89.9311 388.738 89.9311C387.492 89.9311 386.806 89.4831 386.764 88.5451H391.286C391.384 88.2511 391.398 87.9571 391.398 87.6211C391.398 86.0531 390.306 84.6111 388.178 84.6111C385.994 84.6111 384.734 85.9831 384.734 87.9291C384.734 89.9591 385.882 91.3871 388.416 91.3871C389.326 91.3871 390.222 91.2051 390.936 90.8691V89.3431ZM386.764 87.3551C386.834 86.5011 387.352 85.9691 388.192 85.9691C388.99 85.9691 389.494 86.4591 389.536 87.3551H386.764Z" fill="#231F20"/>
<path fill-rule="evenodd" clip-rule="evenodd" d="M319.5 270.981C325.841 270.981 330.981 265.841 330.981 259.5C330.981 253.159 325.841 248.019 319.5 248.019C313.159 248.019 308.019 253.159 308.019 259.5C308.019 265.841 313.159 270.981 319.5 270.981ZM319.5 272C326.404 272 332 266.404 332 259.5C332 252.596 326.404 247 319.5 247C312.596 247 307 252.596 307 259.5C307 266.404 312.596 272 319.5 272Z" fill="black"/>
<path d="M320.479 263.954V257.991H318.465V263.954H320.479ZM320.731 256.255C320.731 255.579 320.32 255.155 319.472 255.155C318.624 255.155 318.213 255.579 318.213 256.255C318.213 256.931 318.624 257.355 319.472 257.355C320.32 257.355 320.731 256.931 320.731 256.255Z" fill="black"/>
</svg>
