<svg width="100%" height="100%" preserveAspectRatio="none"  viewBox="0 0 610 507" fill="none" xmlns="http://www.w3.org/2000/svg">
<path d="M410 58V39H17L2 273L417 468L609 505V39H463V58H410Z" fill="#F4F4F4" stroke="#575757" stroke-width="2"/>
<path id="z2" d="M3 273L133.529 334L192 207.906L105.118 166.966L96.0588 187.846L10.4118 151L3 273Z" fill="#BBBBBB" stroke="#575757"/>
<path d="M76.792 230V221.46H74.608V224.75H71.08V221.46H68.896V230H71.08V226.486H74.608V230H76.792ZM85.5054 226.864C85.5054 224.932 84.1754 223.476 81.8654 223.476C79.5554 223.476 78.2254 224.932 78.2254 226.864C78.2254 228.796 79.5554 230.252 81.8654 230.252C84.1754 230.252 85.5054 228.796 85.5054 226.864ZM81.8654 228.754C80.9834 228.754 80.4374 228.11 80.4374 226.864C80.4374 225.618 80.9834 224.974 81.8654 224.974C82.7474 224.974 83.2934 225.618 83.2934 226.864C83.2934 228.11 82.7474 228.754 81.8654 228.754ZM97.4852 230V226.206C97.4852 224.428 96.7012 223.504 95.1892 223.504C94.3492 223.504 93.4392 223.924 92.9212 224.554C92.5712 223.882 91.9132 223.504 90.9612 223.504C90.1212 223.504 89.3372 223.882 88.8472 224.484H88.8332L88.6372 223.7H86.8732V230H89.0292V225.478C89.3232 225.296 89.7292 225.114 90.2332 225.114C90.8072 225.114 91.1152 225.436 91.1152 226.402V230H93.2432V225.996C93.2432 225.828 93.2292 225.66 93.2152 225.506C93.5092 225.324 93.9152 225.114 94.4612 225.114C95.0352 225.114 95.3292 225.436 95.3292 226.402V230H97.4852ZM105.017 228.208C104.289 228.586 103.645 228.796 102.819 228.796C101.573 228.796 100.887 228.348 100.845 227.41H105.367C105.465 227.116 105.479 226.822 105.479 226.486C105.479 224.918 104.387 223.476 102.259 223.476C100.075 223.476 98.8152 224.848 98.8152 226.794C98.8152 228.824 99.9632 230.252 102.497 230.252C103.407 230.252 104.303 230.07 105.017 229.734V228.208ZM100.845 226.22C100.915 225.366 101.433 224.834 102.273 224.834C103.071 224.834 103.575 225.324 103.617 226.22H100.845ZM71.108 245V236.46H68.924V245H71.108ZM79.5372 245V241.192C79.5372 239.414 78.7672 238.504 77.1012 238.504C76.2612 238.504 75.4352 238.882 74.8612 239.484H74.8332L74.6372 238.7H72.8732V245H75.0292V240.562C75.3512 240.352 75.8132 240.142 76.3732 240.142C76.9752 240.142 77.3812 240.422 77.3812 241.332V245H79.5372ZM80.85 244.888C81.284 245.07 82.166 245.252 83.216 245.252C84.742 245.252 86.044 244.538 86.044 243.152C86.044 241.822 84.938 241.374 84 241.08C83.342 240.87 82.81 240.716 82.81 240.366C82.81 240.072 83.23 239.862 83.972 239.862C84.546 239.862 85.092 239.974 85.652 240.24V238.798C85.218 238.63 84.364 238.476 83.538 238.476C81.816 238.476 80.836 239.372 80.836 240.464C80.836 241.738 81.788 242.102 82.614 242.48C83.314 242.774 84.028 242.9 84.028 243.306C84.028 243.586 83.706 243.824 82.754 243.824C82.18 243.824 81.452 243.642 80.85 243.404V244.888ZM89.5761 248.01V245.434C89.5761 244.972 89.5481 244.706 89.4921 244.468H89.5201C89.8421 244.804 90.4861 245.224 91.4941 245.224C93.0201 245.224 94.3361 243.978 94.3361 241.738C94.3361 239.848 93.2861 238.504 91.6621 238.504C90.6121 238.504 89.9681 238.924 89.5201 239.372H89.4921L89.3241 238.7H87.4201V248.01H89.5761ZM89.5761 240.674C89.9401 240.254 90.3601 240.044 90.8501 240.044C91.8581 240.044 92.1521 240.982 92.1521 241.794C92.1521 243.04 91.6761 243.656 90.9061 243.656C90.3321 243.656 89.8421 243.348 89.5761 243.138V240.674ZM97.9166 245V238.7H95.7886V245H97.9166ZM98.1826 236.866C98.1826 236.152 97.7486 235.704 96.8526 235.704C95.9566 235.704 95.5226 236.152 95.5226 236.866C95.5226 237.58 95.9566 238.028 96.8526 238.028C97.7486 238.028 98.1826 237.58 98.1826 236.866ZM101.812 245V241.318C102.26 240.87 102.932 240.548 103.674 240.548C103.884 240.548 104.108 240.562 104.332 240.604V238.602C104.122 238.546 103.884 238.518 103.716 238.518C102.862 238.518 102.12 239.092 101.714 240.044H101.686L101.35 238.7H99.6564V245H101.812ZM108.792 243.166C108.512 243.558 108.134 243.768 107.574 243.768C107.168 243.768 106.72 243.572 106.72 243.026C106.72 242.368 107.266 242.158 107.924 242.158C108.19 242.158 108.582 242.186 108.792 242.228V243.166ZM110.892 245V241.178C110.892 238.952 109.422 238.476 107.798 238.476C106.902 238.476 105.936 238.672 105.376 238.938V240.422C105.95 240.128 106.804 239.932 107.42 239.932C108.33 239.932 108.792 240.198 108.792 240.884V241.08C108.498 241.038 108.008 241.01 107.714 241.01C106.356 241.01 104.788 241.514 104.788 243.194C104.788 244.482 105.642 245.182 106.888 245.182C107.896 245.182 108.68 244.734 108.96 244.216H108.988L109.184 245H110.892ZM117.281 243.334C116.945 243.544 116.511 243.628 116.077 243.628C115.503 243.628 115.139 243.418 115.139 242.69V240.142H117.281V238.7H115.139V236.712H113.683L113.039 238.7H111.891V240.142H112.983V242.774C112.983 244.398 113.683 245.224 115.657 245.224C116.371 245.224 116.903 245.098 117.281 244.916V243.334ZM120.694 245V238.7H118.566V245H120.694ZM120.96 236.866C120.96 236.152 120.526 235.704 119.63 235.704C118.734 235.704 118.3 236.152 118.3 236.866C118.3 237.58 118.734 238.028 119.63 238.028C120.526 238.028 120.96 237.58 120.96 236.866ZM129.406 241.864C129.406 239.932 128.076 238.476 125.766 238.476C123.456 238.476 122.126 239.932 122.126 241.864C122.126 243.796 123.456 245.252 125.766 245.252C128.076 245.252 129.406 243.796 129.406 241.864ZM125.766 243.754C124.884 243.754 124.338 243.11 124.338 241.864C124.338 240.618 124.884 239.974 125.766 239.974C126.648 239.974 127.194 240.618 127.194 241.864C127.194 243.11 126.648 243.754 125.766 243.754ZM137.438 245V241.192C137.438 239.414 136.668 238.504 135.002 238.504C134.162 238.504 133.336 238.882 132.762 239.484H132.734L132.538 238.7H130.774V245H132.93V240.562C133.252 240.352 133.714 240.142 134.274 240.142C134.876 240.142 135.282 240.422 135.282 241.332V245H137.438ZM74.692 260V258.264H71.08V251.46H68.896V260H74.692ZM82.7026 256.864C82.7026 254.932 81.3726 253.476 79.0626 253.476C76.7526 253.476 75.4226 254.932 75.4226 256.864C75.4226 258.796 76.7526 260.252 79.0626 260.252C81.3726 260.252 82.7026 258.796 82.7026 256.864ZM79.0626 258.754C78.1806 258.754 77.6346 258.11 77.6346 256.864C77.6346 255.618 78.1806 254.974 79.0626 254.974C79.9446 254.974 80.4906 255.618 80.4906 256.864C80.4906 258.11 79.9446 258.754 79.0626 258.754ZM90.5105 260V253.7H88.3545V258.138C88.0325 258.348 87.6125 258.558 87.1505 258.558C86.5485 258.558 86.2265 258.278 86.2265 257.368V253.7H84.0705V257.508C84.0705 259.286 84.7705 260.196 86.3805 260.196C87.2065 260.196 87.9625 259.832 88.5225 259.216H88.5505L88.7465 260H90.5105ZM98.8145 260V256.192C98.8145 254.414 98.0445 253.504 96.3785 253.504C95.5385 253.504 94.7125 253.882 94.1385 254.484H94.1105L93.9145 253.7H92.1505V260H94.3065V255.562C94.6285 255.352 95.0905 255.142 95.6505 255.142C96.2525 255.142 96.6585 255.422 96.6585 256.332V260H98.8145ZM104.971 259.412C104.901 259.818 104.901 259.972 104.901 260.196C104.901 261.386 104.089 261.666 103.109 261.666C102.423 261.666 101.415 261.442 100.631 261.036V262.758C101.471 263.136 102.479 263.234 103.445 263.234C105.727 263.234 107.057 262.044 107.057 260.196V253.7H105.181L105.027 254.316H104.999C104.565 253.882 103.977 253.504 103.123 253.504C101.261 253.504 100.141 254.932 100.141 256.822C100.141 259.062 101.429 260.182 102.983 260.182C103.921 260.182 104.565 259.93 104.943 259.412H104.971ZM104.901 258.04C104.495 258.474 104.103 258.628 103.599 258.628C102.801 258.628 102.325 258.04 102.325 256.794C102.325 255.982 102.619 255.044 103.669 255.044C104.103 255.044 104.523 255.212 104.901 255.492V258.04ZM114.629 258.208C113.901 258.586 113.257 258.796 112.431 258.796C111.185 258.796 110.499 258.348 110.457 257.41H114.979C115.077 257.116 115.091 256.822 115.091 256.486C115.091 254.918 113.999 253.476 111.871 253.476C109.687 253.476 108.427 254.848 108.427 256.794C108.427 258.824 109.575 260.252 112.109 260.252C113.019 260.252 113.915 260.07 114.629 259.734V258.208ZM110.457 256.22C110.527 255.366 111.045 254.834 111.885 254.834C112.683 254.834 113.187 255.324 113.229 256.22H110.457Z" fill="#231F20"/>
<rect id="z2-text" x="29" y="218" width="33.5588" height="33.5588" rx="16.7794" fill="#EC1C24"/>
<path d="M49.16 240V237.96H44.91C46.695 236.821 48.956 235.155 48.956 232.894C48.956 231.075 47.919 229.358 44.74 229.358C43.227 229.358 42.241 229.664 41.578 229.953V232.197C42.479 231.67 43.431 231.398 44.519 231.398C45.709 231.398 46.304 231.942 46.304 233.013C46.304 234.39 45.369 235.563 41.51 238.164V240H49.16Z" fill="white"/>
<path id="z6" d="M512.969 225.559V192H443.838V329.591H456.59L594.853 268.514V225.559H512.969Z" fill="#BBBBBB" stroke="#575757"/>
<path d="M469.248 251.744C469.248 248.776 467.008 247.236 464.404 247.236C461.8 247.236 459.56 248.776 459.56 251.744C459.56 254.712 461.8 256.252 464.404 256.252C467.008 256.252 469.248 254.712 469.248 251.744ZM464.404 254.572C462.738 254.572 461.856 253.606 461.856 251.744C461.856 249.882 462.738 248.916 464.404 248.916C466.07 248.916 466.952 249.882 466.952 251.744C466.952 253.606 466.07 254.572 464.404 254.572ZM477.094 256V249.7H474.938V254.138C474.616 254.348 474.196 254.558 473.734 254.558C473.132 254.558 472.81 254.278 472.81 253.368V249.7H470.654V253.508C470.654 255.286 471.354 256.196 472.964 256.196C473.79 256.196 474.546 255.832 475.106 255.216H475.134L475.33 256H477.094ZM483.481 254.334C483.145 254.544 482.711 254.628 482.277 254.628C481.703 254.628 481.339 254.418 481.339 253.69V251.142H483.481V249.7H481.339V247.712H479.883L479.239 249.7H478.091V251.142H479.183V253.774C479.183 255.398 479.883 256.224 481.857 256.224C482.571 256.224 483.103 256.098 483.481 255.916V254.334ZM491.345 256V246.9H489.189V250.092H489.161C488.811 249.77 488.125 249.476 487.341 249.476C485.549 249.476 484.429 250.932 484.429 252.822C484.429 255.062 485.619 256.224 487.355 256.224C488.293 256.224 488.979 255.874 489.413 255.216H489.441L489.637 256H491.345ZM489.189 254.04C488.783 254.474 488.391 254.67 487.887 254.67C487.089 254.67 486.613 254.04 486.613 252.794C486.613 251.982 486.907 251.044 487.943 251.044C488.377 251.044 488.811 251.17 489.189 251.436V254.04ZM500.021 252.864C500.021 250.932 498.691 249.476 496.381 249.476C494.071 249.476 492.741 250.932 492.741 252.864C492.741 254.796 494.071 256.252 496.381 256.252C498.691 256.252 500.021 254.796 500.021 252.864ZM496.381 254.754C495.499 254.754 494.953 254.11 494.953 252.864C494.953 251.618 495.499 250.974 496.381 250.974C497.263 250.974 497.809 251.618 497.809 252.864C497.809 254.11 497.263 254.754 496.381 254.754ZM508.197 252.864C508.197 250.932 506.867 249.476 504.557 249.476C502.247 249.476 500.917 250.932 500.917 252.864C500.917 254.796 502.247 256.252 504.557 256.252C506.867 256.252 508.197 254.796 508.197 252.864ZM504.557 254.754C503.675 254.754 503.129 254.11 503.129 252.864C503.129 251.618 503.675 250.974 504.557 250.974C505.439 250.974 505.985 251.618 505.985 252.864C505.985 254.11 505.439 254.754 504.557 254.754ZM511.721 256V252.318C512.169 251.87 512.841 251.548 513.583 251.548C513.793 251.548 514.017 251.562 514.241 251.604V249.602C514.031 249.546 513.793 249.518 513.625 249.518C512.771 249.518 512.029 250.092 511.623 251.044H511.595L511.259 249.7H509.565V256H511.721ZM527.431 256L525.625 254.278C526.339 253.382 526.731 252.262 526.731 251.198H524.673C524.673 251.884 524.561 252.486 524.337 253.018L521.859 250.568C521.523 250.232 521.159 249.784 521.159 249.322C521.159 248.874 521.523 248.538 522.083 248.538C522.755 248.538 523.105 248.776 523.105 249.658H525.079C525.079 248.104 524.113 247.236 522.111 247.236C520.305 247.236 519.157 248.048 519.157 249.336C519.157 250.386 519.745 250.988 520.137 251.31C519.059 251.94 518.387 252.514 518.387 253.704C518.387 255.272 519.759 256.224 521.649 256.224C522.713 256.224 523.651 255.902 524.435 255.384L525.065 256H527.431ZM523.273 254.334C522.853 254.6 522.391 254.726 521.873 254.726C521.271 254.726 520.431 254.446 520.431 253.592C520.431 252.99 520.851 252.612 521.285 252.318L523.273 254.334ZM534.636 254.334C534.258 254.488 533.95 254.544 533.348 254.544C531.57 254.544 530.366 253.648 530.366 251.814C530.366 249.728 531.752 248.916 533.614 248.916C534.58 248.916 535.714 249.196 536.4 249.574V247.74C535.742 247.446 534.734 247.236 533.502 247.236C530.464 247.236 528.07 248.86 528.07 251.884C528.07 254.796 530.352 256.252 533.124 256.252C534.636 256.252 535.882 255.874 536.708 255.496V251.744H534.636V254.334ZM541.86 254.166C541.58 254.558 541.202 254.768 540.642 254.768C540.236 254.768 539.788 254.572 539.788 254.026C539.788 253.368 540.334 253.158 540.992 253.158C541.258 253.158 541.65 253.186 541.86 253.228V254.166ZM543.96 256V252.178C543.96 249.952 542.49 249.476 540.866 249.476C539.97 249.476 539.004 249.672 538.444 249.938V251.422C539.018 251.128 539.872 250.932 540.488 250.932C541.398 250.932 541.86 251.198 541.86 251.884V252.08C541.566 252.038 541.076 252.01 540.782 252.01C539.424 252.01 537.856 252.514 537.856 254.194C537.856 255.482 538.71 256.182 539.956 256.182C540.964 256.182 541.748 255.734 542.028 255.216H542.056L542.252 256H543.96ZM547.76 256V252.318C548.208 251.87 548.88 251.548 549.622 251.548C549.832 251.548 550.056 251.562 550.28 251.604V249.602C550.07 249.546 549.832 249.518 549.664 249.518C548.81 249.518 548.068 250.092 547.662 251.044H547.634L547.298 249.7H545.604V256H547.76ZM557.914 256V246.9H555.758V250.092H555.73C555.38 249.77 554.694 249.476 553.91 249.476C552.118 249.476 550.998 250.932 550.998 252.822C550.998 255.062 552.188 256.224 553.924 256.224C554.862 256.224 555.548 255.874 555.982 255.216H556.01L556.206 256H557.914ZM555.758 254.04C555.352 254.474 554.96 254.67 554.456 254.67C553.658 254.67 553.182 254.04 553.182 252.794C553.182 251.982 553.476 251.044 554.512 251.044C554.946 251.044 555.38 251.17 555.758 251.436V254.04ZM565.511 254.208C564.783 254.586 564.139 254.796 563.313 254.796C562.067 254.796 561.381 254.348 561.339 253.41H565.861C565.959 253.116 565.973 252.822 565.973 252.486C565.973 250.918 564.881 249.476 562.753 249.476C560.569 249.476 559.309 250.848 559.309 252.794C559.309 254.824 560.457 256.252 562.991 256.252C563.901 256.252 564.797 256.07 565.511 255.734V254.208ZM561.339 252.22C561.409 251.366 561.927 250.834 562.767 250.834C563.565 250.834 564.069 251.324 564.111 252.22H561.339ZM573.979 256V252.192C573.979 250.414 573.209 249.504 571.543 249.504C570.703 249.504 569.877 249.882 569.303 250.484H569.275L569.079 249.7H567.315V256H569.471V251.562C569.793 251.352 570.255 251.142 570.815 251.142C571.417 251.142 571.823 251.422 571.823 252.332V256H573.979ZM459.476 270.552C459.952 270.874 461.24 271.224 462.472 271.224C464.264 271.224 465.888 270.468 465.888 268.788C465.888 265.918 461.814 265.974 461.814 264.63C461.814 264.14 462.304 263.916 463.018 263.916C463.914 263.916 464.698 264.168 465.356 264.504V262.74C464.782 262.446 463.886 262.264 462.864 262.264C461.072 262.264 459.63 263.034 459.63 264.672C459.63 267.486 463.676 267.29 463.676 268.788C463.676 269.418 463.116 269.572 462.318 269.572C461.366 269.572 460.176 269.278 459.476 268.802V270.552ZM474.208 267.864C474.208 265.932 472.878 264.476 470.568 264.476C468.258 264.476 466.928 265.932 466.928 267.864C466.928 269.796 468.258 271.252 470.568 271.252C472.878 271.252 474.208 269.796 474.208 267.864ZM470.568 269.754C469.686 269.754 469.14 269.11 469.14 267.864C469.14 266.618 469.686 265.974 470.568 265.974C471.45 265.974 471.996 266.618 471.996 267.864C471.996 269.11 471.45 269.754 470.568 269.754ZM477.732 271V261.9H475.604V271H477.732ZM485.885 271V264.7H483.729V269.138C483.407 269.348 482.987 269.558 482.525 269.558C481.923 269.558 481.601 269.278 481.601 268.368V264.7H479.445V268.508C479.445 270.286 480.145 271.196 481.755 271.196C482.581 271.196 483.337 270.832 483.897 270.216H483.925L484.121 271H485.885ZM492.272 269.334C491.936 269.544 491.502 269.628 491.068 269.628C490.494 269.628 490.13 269.418 490.13 268.69V266.142H492.272V264.7H490.13V262.712H488.674L488.03 264.7H486.882V266.142H487.974V268.774C487.974 270.398 488.674 271.224 490.648 271.224C491.362 271.224 491.894 271.098 492.272 270.916V269.334ZM495.684 271V264.7H493.556V271H495.684ZM495.95 262.866C495.95 262.152 495.516 261.704 494.62 261.704C493.724 261.704 493.29 262.152 493.29 262.866C493.29 263.58 493.724 264.028 494.62 264.028C495.516 264.028 495.95 263.58 495.95 262.866ZM504.396 267.864C504.396 265.932 503.066 264.476 500.756 264.476C498.446 264.476 497.116 265.932 497.116 267.864C497.116 269.796 498.446 271.252 500.756 271.252C503.066 271.252 504.396 269.796 504.396 267.864ZM500.756 269.754C499.874 269.754 499.328 269.11 499.328 267.864C499.328 266.618 499.874 265.974 500.756 265.974C501.638 265.974 502.184 266.618 502.184 267.864C502.184 269.11 501.638 269.754 500.756 269.754ZM512.428 271V267.192C512.428 265.414 511.658 264.504 509.992 264.504C509.152 264.504 508.326 264.882 507.752 265.484H507.724L507.528 264.7H505.764V271H507.92V266.562C508.242 266.352 508.704 266.142 509.264 266.142C509.866 266.142 510.272 266.422 510.272 267.332V271H512.428Z" fill="#231F20"/>
<rect id="z6-text" x="454" y="206" width="33.5588" height="33.5588" rx="16.7794" fill="#EC1C24"/>
<path d="M474.143 217.748C473.582 217.561 472.8 217.357 471.695 217.357C468.771 217.357 466.68 219.278 466.68 222.899C466.68 226.503 468.448 228.22 471.202 228.22C473.684 228.22 475.163 226.724 475.163 224.514C475.163 222.695 474.024 221.199 471.729 221.199C470.726 221.199 469.893 221.488 469.264 222.049C469.4 220.468 470.046 219.363 472.018 219.363C472.851 219.363 473.65 219.567 474.143 219.839V217.748ZM469.23 224.106C469.621 223.494 470.369 222.967 471.168 222.967C472.273 222.967 472.715 223.783 472.715 224.548C472.715 225.925 471.746 226.214 471.066 226.214C470.097 226.214 469.349 225.398 469.23 224.106Z" fill="white"/>
<path id="z7" d="M331.752 392.641L319 421.159L419.005 468.484L608.948 504.727V272.5L331.752 392.641Z" fill="#BBBBBB" stroke="#575757"/>
<path d="M502.593 391V382.46H500.409V385.75H496.881V382.46H494.697V391H496.881V387.486H500.409V391H502.593ZM511.306 387.864C511.306 385.932 509.976 384.476 507.666 384.476C505.356 384.476 504.026 385.932 504.026 387.864C504.026 389.796 505.356 391.252 507.666 391.252C509.976 391.252 511.306 389.796 511.306 387.864ZM507.666 389.754C506.784 389.754 506.238 389.11 506.238 387.864C506.238 386.618 506.784 385.974 507.666 385.974C508.548 385.974 509.094 386.618 509.094 387.864C509.094 389.11 508.548 389.754 507.666 389.754ZM523.286 391V387.206C523.286 385.428 522.502 384.504 520.99 384.504C520.15 384.504 519.24 384.924 518.722 385.554C518.372 384.882 517.714 384.504 516.762 384.504C515.922 384.504 515.138 384.882 514.648 385.484H514.634L514.438 384.7H512.674V391H514.83V386.478C515.124 386.296 515.53 386.114 516.034 386.114C516.608 386.114 516.916 386.436 516.916 387.402V391H519.044V386.996C519.044 386.828 519.03 386.66 519.016 386.506C519.31 386.324 519.716 386.114 520.262 386.114C520.836 386.114 521.13 386.436 521.13 387.402V391H523.286ZM530.818 389.208C530.09 389.586 529.446 389.796 528.62 389.796C527.374 389.796 526.688 389.348 526.646 388.41H531.168C531.266 388.116 531.28 387.822 531.28 387.486C531.28 385.918 530.188 384.476 528.06 384.476C525.876 384.476 524.616 385.848 524.616 387.794C524.616 389.824 525.764 391.252 528.298 391.252C529.208 391.252 530.104 391.07 530.818 390.734V389.208ZM526.646 387.22C526.716 386.366 527.234 385.834 528.074 385.834C528.872 385.834 529.376 386.324 529.418 387.22H526.646ZM503.265 406L501.459 404.278C502.173 403.382 502.565 402.262 502.565 401.198H500.507C500.507 401.884 500.395 402.486 500.171 403.018L497.693 400.568C497.357 400.232 496.993 399.784 496.993 399.322C496.993 398.874 497.357 398.538 497.917 398.538C498.589 398.538 498.939 398.776 498.939 399.658H500.913C500.913 398.104 499.947 397.236 497.945 397.236C496.139 397.236 494.991 398.048 494.991 399.336C494.991 400.386 495.579 400.988 495.971 401.31C494.893 401.94 494.221 402.514 494.221 403.704C494.221 405.272 495.593 406.224 497.483 406.224C498.547 406.224 499.485 405.902 500.269 405.384L500.899 406H503.265ZM499.107 404.334C498.687 404.6 498.225 404.726 497.707 404.726C497.105 404.726 496.265 404.446 496.265 403.592C496.265 402.99 496.685 402.612 497.119 402.318L499.107 404.334ZM513.536 406V404.264H509.924V397.46H507.74V406H513.536ZM516.922 406V399.7H514.794V406H516.922ZM517.188 397.866C517.188 397.152 516.754 396.704 515.858 396.704C514.962 396.704 514.528 397.152 514.528 397.866C514.528 398.58 514.962 399.028 515.858 399.028C516.754 399.028 517.188 398.58 517.188 397.866ZM522.498 406L524.934 399.7H522.75L522.022 401.912L521.448 404.32H521.42L520.846 401.912L520.118 399.7H517.934L520.37 406H522.498ZM528.065 406V399.7H525.937V406H528.065ZM528.331 397.866C528.331 397.152 527.897 396.704 527.001 396.704C526.105 396.704 525.671 397.152 525.671 397.866C525.671 398.58 526.105 399.028 527.001 399.028C527.897 399.028 528.331 398.58 528.331 397.866ZM536.469 406V402.192C536.469 400.414 535.699 399.504 534.033 399.504C533.193 399.504 532.367 399.882 531.793 400.484H531.765L531.569 399.7H529.805V406H531.961V401.562C532.283 401.352 532.745 401.142 533.305 401.142C533.907 401.142 534.313 401.422 534.313 402.332V406H536.469ZM542.626 405.412C542.556 405.818 542.556 405.972 542.556 406.196C542.556 407.386 541.744 407.666 540.764 407.666C540.078 407.666 539.07 407.442 538.286 407.036V408.758C539.126 409.136 540.134 409.234 541.1 409.234C543.382 409.234 544.712 408.044 544.712 406.196V399.7H542.836L542.682 400.316H542.654C542.22 399.882 541.632 399.504 540.778 399.504C538.916 399.504 537.796 400.932 537.796 402.822C537.796 405.062 539.084 406.182 540.638 406.182C541.576 406.182 542.22 405.93 542.598 405.412H542.626ZM542.556 404.04C542.15 404.474 541.758 404.628 541.254 404.628C540.456 404.628 539.98 404.04 539.98 402.794C539.98 401.982 540.274 401.044 541.324 401.044C541.758 401.044 542.178 401.212 542.556 401.492V404.04ZM494.277 420.552C494.753 420.874 496.041 421.224 497.273 421.224C499.065 421.224 500.689 420.468 500.689 418.788C500.689 415.918 496.615 415.974 496.615 414.63C496.615 414.14 497.105 413.916 497.819 413.916C498.715 413.916 499.499 414.168 500.157 414.504V412.74C499.583 412.446 498.687 412.264 497.665 412.264C495.873 412.264 494.431 413.034 494.431 414.672C494.431 417.486 498.477 417.29 498.477 418.788C498.477 419.418 497.917 419.572 497.119 419.572C496.167 419.572 494.977 419.278 494.277 418.802V420.552ZM509.009 417.864C509.009 415.932 507.679 414.476 505.369 414.476C503.059 414.476 501.729 415.932 501.729 417.864C501.729 419.796 503.059 421.252 505.369 421.252C507.679 421.252 509.009 419.796 509.009 417.864ZM505.369 419.754C504.487 419.754 503.941 419.11 503.941 417.864C503.941 416.618 504.487 415.974 505.369 415.974C506.251 415.974 506.797 416.618 506.797 417.864C506.797 419.11 506.251 419.754 505.369 419.754ZM512.533 421V411.9H510.405V421H512.533ZM520.686 421V414.7H518.53V419.138C518.208 419.348 517.788 419.558 517.326 419.558C516.724 419.558 516.402 419.278 516.402 418.368V414.7H514.246V418.508C514.246 420.286 514.946 421.196 516.556 421.196C517.382 421.196 518.138 420.832 518.698 420.216H518.726L518.922 421H520.686ZM527.072 419.334C526.736 419.544 526.302 419.628 525.868 419.628C525.294 419.628 524.93 419.418 524.93 418.69V416.142H527.072V414.7H524.93V412.712H523.474L522.83 414.7H521.682V416.142H522.774V418.774C522.774 420.398 523.474 421.224 525.448 421.224C526.162 421.224 526.694 421.098 527.072 420.916V419.334ZM530.485 421V414.7H528.357V421H530.485ZM530.751 412.866C530.751 412.152 530.317 411.704 529.421 411.704C528.525 411.704 528.091 412.152 528.091 412.866C528.091 413.58 528.525 414.028 529.421 414.028C530.317 414.028 530.751 413.58 530.751 412.866ZM539.197 417.864C539.197 415.932 537.867 414.476 535.557 414.476C533.247 414.476 531.917 415.932 531.917 417.864C531.917 419.796 533.247 421.252 535.557 421.252C537.867 421.252 539.197 419.796 539.197 417.864ZM535.557 419.754C534.675 419.754 534.129 419.11 534.129 417.864C534.129 416.618 534.675 415.974 535.557 415.974C536.439 415.974 536.985 416.618 536.985 417.864C536.985 419.11 536.439 419.754 535.557 419.754ZM547.229 421V417.192C547.229 415.414 546.459 414.504 544.793 414.504C543.953 414.504 543.127 414.882 542.553 415.484H542.525L542.329 414.7H540.565V421H542.721V416.562C543.043 416.352 543.505 416.142 544.065 416.142C544.667 416.142 545.073 416.422 545.073 417.332V421H547.229Z" fill="#231F20"/>
<rect id="z7-text" x="454" y="380.91" width="33.5588" height="33.5588" rx="16.7794" fill="#EC1C24"/>
<path d="M471.182 402.91L474.905 394.393V392.54H467.204V394.58H472.066L468.394 402.91H471.182Z" fill="white"/>
<path id="z4" d="M284 253.11L223.131 223L212.39 244.963L201.65 266.102L189.813 260.576L181 279.905L256.19 315L284 253.11Z" fill="#BBBBBB" stroke="#575757"/>
<path d="M224.124 229.552C224.6 229.874 225.888 230.224 227.12 230.224C228.912 230.224 230.536 229.468 230.536 227.788C230.536 224.918 226.462 224.974 226.462 223.63C226.462 223.14 226.952 222.916 227.666 222.916C228.562 222.916 229.346 223.168 230.004 223.504V221.74C229.43 221.446 228.534 221.264 227.512 221.264C225.72 221.264 224.278 222.034 224.278 223.672C224.278 226.486 228.324 226.29 228.324 227.788C228.324 228.418 227.764 228.572 226.966 228.572C226.014 228.572 224.824 228.278 224.124 227.802V229.552ZM239.361 227.802C238.675 228.32 237.807 228.572 236.897 228.572C235.161 228.572 233.901 227.55 233.901 225.716C233.901 223.966 234.993 222.916 236.799 222.916C237.863 222.916 238.633 223.182 239.263 223.588V221.726C238.717 221.488 237.891 221.236 236.603 221.236C233.901 221.236 231.605 222.832 231.605 225.716C231.605 228.81 233.915 230.252 236.561 230.252C237.975 230.252 238.927 229.916 239.361 229.636V227.802ZM246.825 228.334C246.447 228.488 246.139 228.544 245.537 228.544C243.759 228.544 242.555 227.648 242.555 225.814C242.555 223.728 243.941 222.916 245.803 222.916C246.769 222.916 247.903 223.196 248.589 223.574V221.74C247.931 221.446 246.923 221.236 245.691 221.236C242.653 221.236 240.259 222.86 240.259 225.884C240.259 228.796 242.541 230.252 245.313 230.252C246.825 230.252 248.071 229.874 248.897 229.496V225.744H246.825V228.334ZM261.89 230V221.46H259.706V224.75H256.178V221.46H253.994V230H256.178V226.486H259.706V230H261.89ZM270.603 226.864C270.603 224.932 269.273 223.476 266.963 223.476C264.653 223.476 263.323 224.932 263.323 226.864C263.323 228.796 264.653 230.252 266.963 230.252C269.273 230.252 270.603 228.796 270.603 226.864ZM266.963 228.754C266.081 228.754 265.535 228.11 265.535 226.864C265.535 225.618 266.081 224.974 266.963 224.974C267.845 224.974 268.391 225.618 268.391 226.864C268.391 228.11 267.845 228.754 266.963 228.754ZM282.583 230V226.206C282.583 224.428 281.799 223.504 280.287 223.504C279.447 223.504 278.537 223.924 278.019 224.554C277.669 223.882 277.011 223.504 276.059 223.504C275.219 223.504 274.435 223.882 273.945 224.484H273.931L273.735 223.7H271.971V230H274.127V225.478C274.421 225.296 274.827 225.114 275.331 225.114C275.905 225.114 276.213 225.436 276.213 226.402V230H278.341V225.996C278.341 225.828 278.327 225.66 278.313 225.506C278.607 225.324 279.013 225.114 279.559 225.114C280.133 225.114 280.427 225.436 280.427 226.402V230H282.583ZM290.115 228.208C289.387 228.586 288.743 228.796 287.917 228.796C286.671 228.796 285.985 228.348 285.943 227.41H290.465C290.563 227.116 290.577 226.822 290.577 226.486C290.577 224.918 289.485 223.476 287.357 223.476C285.173 223.476 283.913 224.848 283.913 226.794C283.913 228.824 285.061 230.252 287.595 230.252C288.505 230.252 289.401 230.07 290.115 229.734V228.208ZM285.943 226.22C286.013 225.366 286.531 224.834 287.371 224.834C288.169 224.834 288.673 225.324 288.715 226.22H285.943ZM224.124 244.552C224.6 244.874 225.888 245.224 227.12 245.224C228.912 245.224 230.536 244.468 230.536 242.788C230.536 239.918 226.462 239.974 226.462 238.63C226.462 238.14 226.952 237.916 227.666 237.916C228.562 237.916 229.346 238.168 230.004 238.504V236.74C229.43 236.446 228.534 236.264 227.512 236.264C225.72 236.264 224.278 237.034 224.278 238.672C224.278 241.486 228.324 241.29 228.324 242.788C228.324 243.418 227.764 243.572 226.966 243.572C226.014 243.572 224.824 243.278 224.124 242.802V244.552ZM237.779 243.208C237.051 243.586 236.407 243.796 235.581 243.796C234.335 243.796 233.649 243.348 233.607 242.41H238.129C238.227 242.116 238.241 241.822 238.241 241.486C238.241 239.918 237.149 238.476 235.021 238.476C232.837 238.476 231.577 239.848 231.577 241.794C231.577 243.824 232.725 245.252 235.259 245.252C236.169 245.252 237.065 245.07 237.779 244.734V243.208ZM233.607 241.22C233.677 240.366 234.195 239.834 235.035 239.834C235.833 239.834 236.337 240.324 236.379 241.22H233.607ZM241.738 245V235.9H239.61V245H241.738ZM249.345 243.208C248.617 243.586 247.973 243.796 247.147 243.796C245.901 243.796 245.215 243.348 245.173 242.41H249.695C249.793 242.116 249.807 241.822 249.807 241.486C249.807 239.918 248.715 238.476 246.587 238.476C244.403 238.476 243.143 239.848 243.143 241.794C243.143 243.824 244.291 245.252 246.825 245.252C247.735 245.252 248.631 245.07 249.345 244.734V243.208ZM245.173 241.22C245.243 240.366 245.761 239.834 246.601 239.834C247.399 239.834 247.903 240.324 247.945 241.22H245.173ZM256.679 243.236C256.063 243.628 255.573 243.782 254.859 243.782C253.781 243.782 253.053 243.096 253.053 241.85C253.053 240.604 253.697 239.946 254.887 239.946C255.573 239.946 256.105 240.142 256.595 240.464V238.924C256.203 238.7 255.461 238.476 254.523 238.476C252.353 238.476 250.841 239.848 250.841 241.85C250.841 243.992 252.437 245.252 254.565 245.252C255.587 245.252 256.133 245.084 256.679 244.748V243.236ZM262.799 243.334C262.463 243.544 262.029 243.628 261.595 243.628C261.021 243.628 260.657 243.418 260.657 242.69V240.142H262.799V238.7H260.657V236.712H259.201L258.557 238.7H257.409V240.142H258.501V242.774C258.501 244.398 259.201 245.224 261.175 245.224C261.889 245.224 262.421 245.098 262.799 244.916V243.334ZM269.785 243.208C269.057 243.586 268.413 243.796 267.587 243.796C266.341 243.796 265.655 243.348 265.613 242.41H270.135C270.233 242.116 270.247 241.822 270.247 241.486C270.247 239.918 269.155 238.476 267.027 238.476C264.843 238.476 263.583 239.848 263.583 241.794C263.583 243.824 264.731 245.252 267.265 245.252C268.175 245.252 269.071 245.07 269.785 244.734V243.208ZM265.613 241.22C265.683 240.366 266.201 239.834 267.041 239.834C267.839 239.834 268.343 240.324 268.385 241.22H265.613ZM278.224 245V235.9H276.068V239.092H276.04C275.69 238.77 275.004 238.476 274.22 238.476C272.428 238.476 271.308 239.932 271.308 241.822C271.308 244.062 272.498 245.224 274.234 245.224C275.172 245.224 275.858 244.874 276.292 244.216H276.32L276.516 245H278.224ZM276.068 243.04C275.662 243.474 275.27 243.67 274.766 243.67C273.968 243.67 273.492 243.04 273.492 241.794C273.492 240.982 273.786 240.044 274.822 240.044C275.256 240.044 275.69 240.17 276.068 240.436V243.04Z" fill="#231F20"/>
<rect id="z4-text" x="218" y="250.771" width="33.5588" height="33.5588" rx="16.7794" fill="#EC1C24"/>
<path d="M238.007 272.771V270.85H239.435V268.895H238.007V262.401H235.389L230.204 269.116V270.85H235.457V272.771H238.007ZM235.457 268.895H232.805L235.457 265.41V268.895Z" fill="white"/>
<path id="z3" d="M224 222.831L163.566 194L142 238.441L202.716 267L224 222.831Z" fill="#BBBBBB" stroke="#575757"/>
<path d="M168.692 182V180.264H165.08V173.46H162.896V182H168.692ZM172.079 182V175.7H169.951V182H172.079ZM172.345 173.866C172.345 173.152 171.911 172.704 171.015 172.704C170.119 172.704 169.685 173.152 169.685 173.866C169.685 174.58 170.119 175.028 171.015 175.028C171.911 175.028 172.345 174.58 172.345 173.866ZM177.655 182L180.091 175.7H177.907L177.179 177.912L176.605 180.32H176.577L176.003 177.912L175.275 175.7H173.091L175.527 182H177.655ZM183.221 182V175.7H181.093V182H183.221ZM183.487 173.866C183.487 173.152 183.053 172.704 182.157 172.704C181.261 172.704 180.827 173.152 180.827 173.866C180.827 174.58 181.261 175.028 182.157 175.028C183.053 175.028 183.487 174.58 183.487 173.866ZM191.625 182V178.192C191.625 176.414 190.855 175.504 189.189 175.504C188.349 175.504 187.523 175.882 186.949 176.484H186.921L186.725 175.7H184.961V182H187.117V177.562C187.439 177.352 187.901 177.142 188.461 177.142C189.063 177.142 189.469 177.422 189.469 178.332V182H191.625ZM197.782 181.412C197.712 181.818 197.712 181.972 197.712 182.196C197.712 183.386 196.9 183.666 195.92 183.666C195.234 183.666 194.226 183.442 193.442 183.036V184.758C194.282 185.136 195.29 185.234 196.256 185.234C198.538 185.234 199.868 184.044 199.868 182.196V175.7H197.992L197.838 176.316H197.81C197.376 175.882 196.788 175.504 195.934 175.504C194.072 175.504 192.952 176.932 192.952 178.822C192.952 181.062 194.24 182.182 195.794 182.182C196.732 182.182 197.376 181.93 197.754 181.412H197.782ZM197.712 180.04C197.306 180.474 196.914 180.628 196.41 180.628C195.612 180.628 195.136 180.04 195.136 178.794C195.136 177.982 195.43 177.044 196.48 177.044C196.914 177.044 197.334 177.212 197.712 177.492V180.04ZM165.08 195.292V190.168H166.34C167.922 190.168 168.678 190.868 168.678 192.604C168.678 194.452 168.048 195.292 166.298 195.292H165.08ZM166.326 197C169 197 170.89 195.698 170.89 192.604C170.89 189.748 168.944 188.46 166.368 188.46H162.896V197H166.326ZM178.181 195.208C177.453 195.586 176.809 195.796 175.983 195.796C174.737 195.796 174.051 195.348 174.009 194.41H178.531C178.629 194.116 178.643 193.822 178.643 193.486C178.643 191.918 177.551 190.476 175.423 190.476C173.239 190.476 171.979 191.848 171.979 193.794C171.979 195.824 173.127 197.252 175.661 197.252C176.571 197.252 177.467 197.07 178.181 196.734V195.208ZM174.009 193.22C174.079 192.366 174.597 191.834 175.437 191.834C176.235 191.834 176.739 192.324 176.781 193.22H174.009ZM179.663 196.888C180.097 197.07 180.979 197.252 182.029 197.252C183.555 197.252 184.857 196.538 184.857 195.152C184.857 193.822 183.751 193.374 182.813 193.08C182.155 192.87 181.623 192.716 181.623 192.366C181.623 192.072 182.043 191.862 182.785 191.862C183.359 191.862 183.905 191.974 184.465 192.24V190.798C184.031 190.63 183.177 190.476 182.351 190.476C180.629 190.476 179.649 191.372 179.649 192.464C179.649 193.738 180.601 194.102 181.427 194.48C182.127 194.774 182.841 194.9 182.841 195.306C182.841 195.586 182.519 195.824 181.567 195.824C180.993 195.824 180.265 195.642 179.663 195.404V196.888ZM188.417 197V190.7H186.289V197H188.417ZM188.683 188.866C188.683 188.152 188.249 187.704 187.353 187.704C186.457 187.704 186.023 188.152 186.023 188.866C186.023 189.58 186.457 190.028 187.353 190.028C188.249 190.028 188.683 189.58 188.683 188.866ZM194.678 196.412C194.608 196.818 194.608 196.972 194.608 197.196C194.608 198.386 193.796 198.666 192.816 198.666C192.13 198.666 191.122 198.442 190.338 198.036V199.758C191.178 200.136 192.186 200.234 193.152 200.234C195.434 200.234 196.764 199.044 196.764 197.196V190.7H194.888L194.734 191.316H194.706C194.272 190.882 193.684 190.504 192.83 190.504C190.968 190.504 189.848 191.932 189.848 193.822C189.848 196.062 191.136 197.182 192.69 197.182C193.628 197.182 194.272 196.93 194.65 196.412H194.678ZM194.608 195.04C194.202 195.474 193.81 195.628 193.306 195.628C192.508 195.628 192.032 195.04 192.032 193.794C192.032 192.982 192.326 192.044 193.376 192.044C193.81 192.044 194.23 192.212 194.608 192.492V195.04ZM205.106 197V193.192C205.106 191.414 204.336 190.504 202.67 190.504C201.83 190.504 201.004 190.882 200.43 191.484H200.402L200.206 190.7H198.442V197H200.598V192.562C200.92 192.352 201.382 192.142 201.942 192.142C202.544 192.142 202.95 192.422 202.95 193.332V197H205.106ZM209.876 196.552C210.352 196.874 211.64 197.224 212.872 197.224C214.664 197.224 216.288 196.468 216.288 194.788C216.288 191.918 212.214 191.974 212.214 190.63C212.214 190.14 212.704 189.916 213.418 189.916C214.314 189.916 215.098 190.168 215.756 190.504V188.74C215.182 188.446 214.286 188.264 213.264 188.264C211.472 188.264 210.03 189.034 210.03 190.672C210.03 193.486 214.076 193.29 214.076 194.788C214.076 195.418 213.516 195.572 212.718 195.572C211.766 195.572 210.576 195.278 209.876 194.802V196.552ZM222.383 195.334C222.047 195.544 221.613 195.628 221.179 195.628C220.605 195.628 220.241 195.418 220.241 194.69V192.142H222.383V190.7H220.241V188.712H218.785L218.141 190.7H216.993V192.142H218.085V194.774C218.085 196.398 218.785 197.224 220.759 197.224C221.473 197.224 222.005 197.098 222.383 196.916V195.334ZM230.051 197V190.7H227.895V195.138C227.573 195.348 227.153 195.558 226.691 195.558C226.089 195.558 225.767 195.278 225.767 194.368V190.7H223.611V194.508C223.611 196.286 224.311 197.196 225.921 197.196C226.747 197.196 227.503 196.832 228.063 196.216H228.091L228.287 197H230.051ZM238.328 197V187.9H236.172V191.092H236.144C235.794 190.77 235.108 190.476 234.324 190.476C232.532 190.476 231.412 191.932 231.412 193.822C231.412 196.062 232.602 197.224 234.338 197.224C235.276 197.224 235.962 196.874 236.396 196.216H236.424L236.62 197H238.328ZM236.172 195.04C235.766 195.474 235.374 195.67 234.87 195.67C234.072 195.67 233.596 195.04 233.596 193.794C233.596 192.982 233.89 192.044 234.926 192.044C235.36 192.044 235.794 192.17 236.172 192.436V195.04ZM242.215 197V190.7H240.087V197H242.215ZM242.481 188.866C242.481 188.152 242.047 187.704 241.151 187.704C240.255 187.704 239.821 188.152 239.821 188.866C239.821 189.58 240.255 190.028 241.151 190.028C242.047 190.028 242.481 189.58 242.481 188.866ZM250.927 193.864C250.927 191.932 249.597 190.476 247.287 190.476C244.977 190.476 243.647 191.932 243.647 193.864C243.647 195.796 244.977 197.252 247.287 197.252C249.597 197.252 250.927 195.796 250.927 193.864ZM247.287 195.754C246.405 195.754 245.859 195.11 245.859 193.864C245.859 192.618 246.405 191.974 247.287 191.974C248.169 191.974 248.715 192.618 248.715 193.864C248.715 195.11 248.169 195.754 247.287 195.754Z" fill="#231F20"/>
<rect id="z3-text" x="168.342" y="212.559" width="33.5588" height="33.5588" rx="16.7794" fill="#EC1C24"/>
<path d="M186.343 229.119C187.482 228.779 188.128 227.98 188.128 226.773C188.128 224.869 186.632 223.951 184.252 223.951C182.909 223.951 181.719 224.206 181.09 224.495V226.535C181.753 226.144 182.773 225.923 183.64 225.923C184.915 225.923 185.561 226.297 185.561 227.045C185.561 228.031 184.32 228.286 182.875 228.286V230.156C184.439 230.02 185.782 230.207 185.782 231.414C185.782 232.485 184.915 232.825 183.708 232.825C182.909 232.825 181.532 232.553 180.92 232.196V234.27C181.515 234.542 182.569 234.831 184.082 234.831C186.598 234.831 188.434 233.743 188.434 231.635C188.434 230.275 187.618 229.408 186.343 229.153V229.119Z" fill="white"/>
<path d="M594 52H564V82H594V52ZM593.126 81.1781H564.874V52.8934H593.126V81.1781Z" fill="#575757"/>
<path d="M579.325 78.2659C579.394 78.2659 579.461 78.2376 579.51 78.1874C579.559 78.1371 579.587 78.0689 579.587 77.9978V55.5381C579.587 55.467 579.559 55.3988 579.51 55.3485C579.461 55.2983 579.394 55.27 579.325 55.27C579.255 55.27 579.188 55.2983 579.139 55.3485C579.09 55.3988 579.062 55.467 579.063 55.5381V77.9978C579.062 78.0689 579.09 78.1371 579.139 78.1874C579.188 78.2376 579.255 78.2659 579.325 78.2659V78.2659Z" fill="#575757"/>
<path fillRule="evenodd" clipRule="evenodd" d="M570.208 63.134C570.297 62.8958 570.433 62.6785 570.606 62.4953C570.781 62.3182 570.989 62.1789 571.217 62.0855C571.445 61.9921 571.69 61.9466 571.935 61.9517H574.593C574.839 61.9466 575.083 61.9921 575.312 62.0855C575.54 62.1789 575.748 62.3182 575.922 62.4953C576.1 62.678 576.24 62.8951 576.334 63.134C576.34 63.1882 576.34 63.243 576.334 63.2972L577.663 68.3934C577.712 68.5862 577.685 68.7909 577.588 68.9637C577.492 69.1365 577.332 69.2635 577.145 69.3175C576.958 69.3673 576.76 69.3395 576.593 69.2402C576.426 69.1409 576.304 68.9782 576.254 68.7875L575.138 64.561H574.753L576.44 71.0571H575.112V75.2972C575.112 75.4954 575.035 75.6855 574.897 75.8257C574.76 75.9659 574.574 76.0446 574.381 76.0446H574.181C573.987 76.0446 573.802 75.9659 573.664 75.8257C573.527 75.6855 573.45 75.4954 573.45 75.2972V71.1386H573.118V75.2972C573.118 75.4954 573.041 75.6855 572.904 75.8257C572.767 75.9659 572.581 76.0446 572.387 76.0446H572.188C571.994 76.0446 571.808 75.9659 571.671 75.8257C571.534 75.6855 571.457 75.4954 571.457 75.2972V71.0571H570.128L571.803 64.561H571.417L570.314 68.7875C570.261 68.9792 570.137 69.1421 569.968 69.2412C569.799 69.3403 569.599 69.3677 569.41 69.3175V69.3175C569.223 69.2635 569.064 69.1365 568.967 68.9637C568.87 68.7909 568.843 68.5862 568.892 68.3934L570.221 63.2972C570.216 63.2429 570.216 63.1883 570.221 63.134H570.208ZM573.278 58.5542C573.47 58.5542 573.66 58.5929 573.837 58.668C574.014 58.7431 574.176 58.8532 574.311 58.992C574.447 59.1309 574.555 59.2957 574.628 59.477C574.702 59.6584 574.739 59.8528 574.739 60.0491C574.739 60.2454 574.702 60.4398 574.628 60.6212C574.555 60.8026 574.447 60.9674 574.311 61.1062C574.176 61.245 574.014 61.3551 573.837 61.4302C573.66 61.5054 573.47 61.544 573.278 61.544C573.086 61.544 572.896 61.5054 572.718 61.4302C572.541 61.3551 572.38 61.245 572.244 61.1062C572.108 60.9674 572.001 60.8026 571.927 60.6212C571.854 60.4398 571.816 60.2454 571.816 60.0491C571.816 59.8528 571.854 59.6584 571.927 59.477C572.001 59.2957 572.108 59.1309 572.244 58.992C572.38 58.8532 572.541 58.7431 572.718 58.668C572.896 58.5929 573.086 58.5542 573.278 58.5542Z" fill="#212121"/>
<path fillRule="evenodd" clipRule="evenodd" d="M583.07 64.561V75.2972C583.07 75.4954 583.147 75.6855 583.284 75.8257C583.421 75.9659 583.607 76.0446 583.801 76.0446H584C584.194 76.0446 584.38 75.9659 584.517 75.8257C584.654 75.6855 584.731 75.4954 584.731 75.2972V69.5622H585.077V75.3515C585.077 75.5498 585.154 75.7399 585.291 75.88C585.428 76.0202 585.614 76.099 585.808 76.099H586.007C586.201 76.099 586.387 76.0202 586.524 75.88C586.661 75.7399 586.738 75.5498 586.738 75.3515V64.6154H587.15V68.8147C587.15 69.013 587.227 69.203 587.364 69.3432C587.501 69.4834 587.687 69.5622 587.881 69.5622C588.075 69.5622 588.261 69.4834 588.398 69.3432C588.535 69.203 588.612 69.013 588.612 68.8147V63.8815C588.616 63.3747 588.425 62.8866 588.08 62.5225C587.906 62.3454 587.698 62.206 587.47 62.1126C587.241 62.0192 586.997 61.9738 586.751 61.9789H582.964C582.722 61.9771 582.483 62.0244 582.26 62.118C582.037 62.2116 581.834 62.3497 581.663 62.5242C581.492 62.6987 581.357 62.9061 581.266 63.1345C581.174 63.3629 581.128 63.6075 581.13 63.8543V68.7875C581.13 68.9858 581.207 69.1759 581.344 69.3161C581.481 69.4562 581.667 69.535 581.861 69.535V69.535C582.055 69.535 582.241 69.4562 582.378 69.3161C582.515 69.1759 582.592 68.9858 582.592 68.7875V64.5882L583.07 64.561ZM584.917 58.5542C585.206 58.5542 585.489 58.6419 585.73 58.8062C585.97 58.9704 586.157 59.2039 586.268 59.477C586.379 59.7502 586.407 60.0508 586.351 60.3408C586.295 60.6307 586.155 60.8971 585.951 61.1062C585.747 61.3153 585.486 61.4576 585.203 61.5153C584.919 61.573 584.625 61.5434 584.358 61.4302C584.091 61.3171 583.863 61.1255 583.702 60.8796C583.541 60.6338 583.456 60.3448 583.456 60.0491C583.456 59.6526 583.61 59.2724 583.884 58.992C584.158 58.7117 584.53 58.5542 584.917 58.5542V58.5542Z" fill="#212121"/>
<path id="z5" d="M316 97V39H382.5V79.5L365 97H316Z" fill="#C4C4C4" stroke="#575757"/>
<path id="z1" d="M221.112 157L11 142.375L15.7416 58L293.022 89.5L311 157L272.798 184L221.112 157Z" fill="#C4C4C4" stroke="#575757"/>
<path d="M97.2945 104.251C96.6085 104.769 95.7405 105.021 94.8305 105.021C93.0945 105.021 91.8345 103.999 91.8345 102.165C91.8345 100.415 92.9265 99.3652 94.7325 99.3652C95.7965 99.3652 96.5665 99.6312 97.1965 100.037V98.1752C96.6505 97.9372 95.8245 97.6852 94.5365 97.6852C91.8345 97.6852 89.5385 99.2812 89.5385 102.165C89.5385 105.259 91.8485 106.701 94.4945 106.701C95.9085 106.701 96.8605 106.365 97.2945 106.085V104.251ZM102.304 104.615C102.024 105.007 101.646 105.217 101.086 105.217C100.68 105.217 100.232 105.021 100.232 104.475C100.232 103.817 100.778 103.607 101.436 103.607C101.702 103.607 102.094 103.635 102.304 103.677V104.615ZM104.404 106.449V102.627C104.404 100.401 102.934 99.9252 101.31 99.9252C100.414 99.9252 99.4476 100.121 98.8876 100.387V101.871C99.4616 101.577 100.316 101.381 100.932 101.381C101.842 101.381 102.304 101.647 102.304 102.333V102.529C102.01 102.487 101.52 102.459 101.226 102.459C99.8676 102.459 98.2996 102.963 98.2996 104.643C98.2996 105.931 99.1536 106.631 100.4 106.631C101.408 106.631 102.192 106.183 102.472 105.665H102.5L102.696 106.449H104.404ZM108.203 106.449V102.767C108.651 102.319 109.323 101.997 110.065 101.997C110.275 101.997 110.499 102.011 110.723 102.053V100.051C110.513 99.9952 110.275 99.9672 110.107 99.9672C109.253 99.9672 108.511 100.541 108.105 101.493H108.077L107.741 100.149H106.047V106.449H108.203ZM117.547 104.657C116.819 105.035 116.175 105.245 115.349 105.245C114.103 105.245 113.417 104.797 113.375 103.859H117.897C117.995 103.565 118.008 103.271 118.008 102.935C118.008 101.367 116.917 99.9252 114.789 99.9252C112.605 99.9252 111.345 101.297 111.345 103.243C111.345 105.273 112.493 106.701 115.027 106.701C115.937 106.701 116.833 106.519 117.547 106.183V104.657ZM113.375 102.669C113.445 101.815 113.963 101.283 114.803 101.283C115.601 101.283 116.105 101.773 116.147 102.669H113.375ZM128.702 106.449V104.713H125.09V97.9092H122.906V106.449H128.702ZM132.088 106.449V100.149H129.96V106.449H132.088ZM132.354 98.3152C132.354 97.6012 131.92 97.1532 131.024 97.1532C130.128 97.1532 129.694 97.6012 129.694 98.3152C129.694 99.0292 130.128 99.4772 131.024 99.4772C131.92 99.4772 132.354 99.0292 132.354 98.3152ZM137.664 106.449L140.1 100.149H137.916L137.188 102.361L136.614 104.769H136.586L136.012 102.361L135.284 100.149H133.1L135.536 106.449H137.664ZM143.231 106.449V100.149H141.103V106.449H143.231ZM143.497 98.3152C143.497 97.6012 143.063 97.1532 142.167 97.1532C141.271 97.1532 140.837 97.6012 140.837 98.3152C140.837 99.0292 141.271 99.4772 142.167 99.4772C143.063 99.4772 143.497 99.0292 143.497 98.3152ZM151.635 106.449V102.641C151.635 100.863 150.865 99.9532 149.199 99.9532C148.359 99.9532 147.533 100.331 146.959 100.933H146.931L146.735 100.149H144.971V106.449H147.127V102.011C147.449 101.801 147.911 101.591 148.471 101.591C149.073 101.591 149.479 101.871 149.479 102.781V106.449H151.635ZM157.792 105.861C157.722 106.267 157.722 106.421 157.722 106.645C157.722 107.835 156.91 108.115 155.93 108.115C155.244 108.115 154.236 107.891 153.452 107.485V109.207C154.292 109.585 155.3 109.683 156.266 109.683C158.548 109.683 159.878 108.493 159.878 106.645V100.149H158.002L157.848 100.765H157.82C157.386 100.331 156.798 99.9532 155.944 99.9532C154.082 99.9532 152.962 101.381 152.962 103.271C152.962 105.511 154.25 106.631 155.804 106.631C156.742 106.631 157.386 106.379 157.764 105.861H157.792ZM157.722 104.489C157.316 104.923 156.924 105.077 156.42 105.077C155.622 105.077 155.146 104.489 155.146 103.243C155.146 102.431 155.44 101.493 156.49 101.493C156.924 101.493 157.344 101.661 157.722 101.941V104.489ZM89.4545 121.001C89.9305 121.323 91.2185 121.673 92.4505 121.673C94.2425 121.673 95.8665 120.917 95.8665 119.237C95.8665 116.367 91.7925 116.423 91.7925 115.079C91.7925 114.589 92.2825 114.365 92.9965 114.365C93.8925 114.365 94.6765 114.617 95.3345 114.953V113.189C94.7605 112.895 93.8645 112.713 92.8425 112.713C91.0505 112.713 89.6085 113.483 89.6085 115.121C89.6085 117.935 93.6545 117.739 93.6545 119.237C93.6545 119.867 93.0945 120.021 92.2965 120.021C91.3445 120.021 90.1545 119.727 89.4545 119.251V121.001ZM104.187 118.313C104.187 116.381 102.857 114.925 100.547 114.925C98.237 114.925 96.907 116.381 96.907 118.313C96.907 120.245 98.237 121.701 100.547 121.701C102.857 121.701 104.187 120.245 104.187 118.313ZM100.547 120.203C99.665 120.203 99.119 119.559 99.119 118.313C99.119 117.067 99.665 116.423 100.547 116.423C101.429 116.423 101.975 117.067 101.975 118.313C101.975 119.559 101.429 120.203 100.547 120.203ZM107.711 121.449V112.349H105.583V121.449H107.711ZM115.864 121.449V115.149H113.708V119.587C113.386 119.797 112.966 120.007 112.504 120.007C111.902 120.007 111.58 119.727 111.58 118.817V115.149H109.424V118.957C109.424 120.735 110.124 121.645 111.734 121.645C112.56 121.645 113.316 121.281 113.876 120.665H113.904L114.1 121.449H115.864ZM122.25 119.783C121.914 119.993 121.48 120.077 121.046 120.077C120.472 120.077 120.108 119.867 120.108 119.139V116.591H122.25V115.149H120.108V113.161H118.652L118.008 115.149H116.86V116.591H117.952V119.223C117.952 120.847 118.652 121.673 120.626 121.673C121.34 121.673 121.872 121.547 122.25 121.365V119.783ZM125.663 121.449V115.149H123.535V121.449H125.663ZM125.929 113.315C125.929 112.601 125.495 112.153 124.599 112.153C123.703 112.153 123.269 112.601 123.269 113.315C123.269 114.029 123.703 114.477 124.599 114.477C125.495 114.477 125.929 114.029 125.929 113.315ZM134.375 118.313C134.375 116.381 133.045 114.925 130.735 114.925C128.425 114.925 127.095 116.381 127.095 118.313C127.095 120.245 128.425 121.701 130.735 121.701C133.045 121.701 134.375 120.245 134.375 118.313ZM130.735 120.203C129.853 120.203 129.307 119.559 129.307 118.313C129.307 117.067 129.853 116.423 130.735 116.423C131.617 116.423 132.163 117.067 132.163 118.313C132.163 119.559 131.617 120.203 130.735 120.203ZM142.406 121.449V117.641C142.406 115.863 141.636 114.953 139.97 114.953C139.13 114.953 138.304 115.331 137.73 115.933H137.702L137.506 115.149H135.742V121.449H137.898V117.011C138.22 116.801 138.682 116.591 139.242 116.591C139.844 116.591 140.25 116.871 140.25 117.781V121.449H142.406Z" fill="#231F20"/>
<rect id="z1-text" x="50" y="90" width="33.5588" height="33.5588" rx="16.7794" fill="#EC1C24"/>
<path d="M68.814 112V101.63H66.604C66.298 102.157 65.023 103.024 63.374 102.939V105.132C64.411 105.149 65.584 104.945 66.264 104.197V112H68.814Z" fill="white"/>
<path d="M310.863 199.205C308.56 204.594 307.374 210.398 307.377 216.263C307.377 227.748 311.916 238.762 319.996 246.882C328.075 255.003 339.033 259.565 350.459 259.565C358.683 259.577 366.736 257.208 373.657 252.742L319.571 206.592L310.863 199.205Z" fill="#BBBBBB" stroke="#575757" stroke-width="0.5" stroke-miterlimit="10"/>
<path d="M350.459 173C342.111 173.001 333.944 175.45 326.96 180.046L335.863 187.736L389.663 234.293C392.235 228.665 393.57 222.547 393.579 216.355C393.586 210.661 392.476 205.021 390.311 199.759C388.147 194.496 384.971 189.715 380.966 185.688C376.96 181.661 372.204 178.467 366.969 176.29C361.735 174.113 356.124 172.995 350.459 173V173Z" fill="#BBBBBB" stroke="#575757" stroke-width="0.5" stroke-miterlimit="10"/>
<path d="M318.866 186.868C317.909 187.9 317.008 188.976 316.164 190.096L326.111 198.691L381.386 246.429C382.3 245.484 383.161 244.5 383.997 243.489L329.166 195.804L318.866 186.868Z" fill="#BBBBBB" stroke="#575757" stroke-width="0.5" stroke-miterlimit="10"/>
<path d="M335.811 187.736L326.907 180.047L321.411 175.244L314.231 182.789L318.866 186.818L329.14 195.754L383.97 243.439C386.244 240.608 388.152 237.5 389.649 234.188L335.811 187.736Z" fill="white" stroke="#575757" stroke-width="0.5" stroke-miterlimit="10"/>
<path d="M326.111 198.691L316.163 190.097L311.947 186.449L304.767 193.994L310.863 199.243L319.571 206.67L373.657 252.819C376.471 251.012 379.064 248.881 381.386 246.468L326.111 198.691Z" fill="white" stroke="#575757" stroke-width="0.5" stroke-miterlimit="10"/>
<path d="M328.592 195.633L335.772 187.982" stroke="#575757" stroke-width="0.5" stroke-miterlimit="10"/>
<path d="M331.098 197.722L338.278 190.059" stroke="#575757" stroke-width="0.5" stroke-miterlimit="10"/>
<path d="M333.592 199.793L340.772 192.143" stroke="#575757" stroke-width="0.5" stroke-miterlimit="10"/>
<path d="M336.099 201.869L343.279 194.219" stroke="#575757" stroke-width="0.5" stroke-miterlimit="10"/>
<path d="M338.605 203.953L345.786 196.29" stroke="#575757" stroke-width="0.5" stroke-miterlimit="10"/>
<path d="M341.099 206.029L348.279 198.379" stroke="#575757" stroke-width="0.5" stroke-miterlimit="10"/>
<path d="M343.605 208.1L350.785 200.45" stroke="#575757" stroke-width="0.5" stroke-miterlimit="10"/>
<path d="M346.111 210.187L353.292 202.524" stroke="#575757" stroke-width="0.5" stroke-miterlimit="10"/>
<path d="M348.605 212.26L355.785 204.61" stroke="#575757" stroke-width="0.5" stroke-miterlimit="10"/>
<path d="M350.837 214.662L358.291 206.684" stroke="#575757" stroke-width="0.5" stroke-miterlimit="10"/>
<path d="M353.291 216.8L360.471 209.137" stroke="#575757" stroke-width="0.5" stroke-miterlimit="10"/>
<path d="M355.785 218.873L362.965 211.223" stroke="#575757" stroke-width="0.5" stroke-miterlimit="10"/>
<path d="M358.345 220.841L365.525 213.191" stroke="#575757" stroke-width="0.5" stroke-miterlimit="10"/>
<path d="M360.799 222.983L367.979 215.319" stroke="#575757" stroke-width="0.5" stroke-miterlimit="10"/>
<path d="M363.292 225.213L370.473 217.563" stroke="#575757" stroke-width="0.5" stroke-miterlimit="10"/>
<path d="M365.694 227.297L372.874 219.634" stroke="#575757" stroke-width="0.5" stroke-miterlimit="10"/>
<path d="M368.135 229.319L375.315 221.669" stroke="#575757" stroke-width="0.5" stroke-miterlimit="10"/>
<path d="M370.524 231.393L377.704 223.743" stroke="#575757" stroke-width="0.5" stroke-miterlimit="10"/>
<path d="M372.874 233.636L380.054 225.986" stroke="#575757" stroke-width="0.5" stroke-miterlimit="10"/>
<path d="M375.367 235.656L382.547 228.006" stroke="#575757" stroke-width="0.5" stroke-miterlimit="10"/>
<path d="M377.548 237.797L384.729 230.134" stroke="#575757" stroke-width="0.5" stroke-miterlimit="10"/>
<path d="M380.16 239.711L387.34 232.047" stroke="#575757" stroke-width="0.5" stroke-miterlimit="10"/>
<path d="M382.444 241.784L389.624 234.134" stroke="#575757" stroke-width="0.5" stroke-miterlimit="10"/>
<path d="M318.5 205.674L325.68 198.023" stroke="#575757" stroke-width="0.5" stroke-miterlimit="10"/>
<path d="M320.994 207.747L328.174 200.097" stroke="#575757" stroke-width="0.5" stroke-miterlimit="10"/>
<path d="M323.5 209.832L330.68 202.168" stroke="#575757" stroke-width="0.5" stroke-miterlimit="10"/>
<path d="M326.006 211.907L332.834 204.546" stroke="#575757" stroke-width="0.5" stroke-miterlimit="10"/>
<path d="M328.5 213.979L335.341 206.684" stroke="#575757" stroke-width="0.5" stroke-miterlimit="10"/>
<path d="M331.008 216.066L337.731 208.809" stroke="#575757" stroke-width="0.5" stroke-miterlimit="10"/>
<path d="M333.514 218.138L340.172 210.947" stroke="#575757" stroke-width="0.5" stroke-miterlimit="10"/>
<path d="M336.007 220.214L342.678 213.075" stroke="#575757" stroke-width="0.5" stroke-miterlimit="10"/>
<path d="M338.514 222.299L345.133 215.213" stroke="#575757" stroke-width="0.5" stroke-miterlimit="10"/>
<path d="M340.746 224.701L347.573 217.287" stroke="#575757" stroke-width="0.5" stroke-miterlimit="10"/>
<path d="M343.187 226.826L350.367 219.176" stroke="#575757" stroke-width="0.5" stroke-miterlimit="10"/>
<path d="M345.693 228.912L352.521 221.55" stroke="#575757" stroke-width="0.5" stroke-miterlimit="10"/>
<path d="M348.253 230.881L354.924 223.743" stroke="#575757" stroke-width="0.5" stroke-miterlimit="10"/>
<path d="M350.694 233.006L357.418 225.762" stroke="#575757" stroke-width="0.5" stroke-miterlimit="10"/>
<path d="M353.201 235.249L359.924 228.006" stroke="#575757" stroke-width="0.5" stroke-miterlimit="10"/>
<path d="M355.589 237.325L362.313 230.134" stroke="#575757" stroke-width="0.5" stroke-miterlimit="10"/>
<path d="M358.044 239.357L364.715 232.166" stroke="#575757" stroke-width="0.5" stroke-miterlimit="10"/>
<path d="M360.433 241.432L367.208 234.346" stroke="#575757" stroke-width="0.5" stroke-miterlimit="10"/>
<path d="M362.769 243.674L369.662 236.365" stroke="#575757" stroke-width="0.5" stroke-miterlimit="10"/>
<path d="M365.276 245.697L372.104 238.506" stroke="#575757" stroke-width="0.5" stroke-miterlimit="10"/>
<path d="M367.457 247.82L374.637 240.17" stroke="#575757" stroke-width="0.5" stroke-miterlimit="10"/>
<path d="M370.068 249.736L376.791 242.545" stroke="#575757" stroke-width="0.5" stroke-miterlimit="10"/>
<path d="M372.352 251.822L379.075 244.513" stroke="#575757" stroke-width="0.5" stroke-miterlimit="10"/>
<path d="M340.47 268.3H339.993C317.818 267.79 305.359 256.069 302.935 233.452V233L290 233.471V233.962C290 244.642 295.345 256.069 304.167 264.511C311.142 271.186 323.401 279 342.536 279H344.523H345V275.172H340.529L340.47 268.3ZM343.947 276.251V277.979C324.315 278.372 311.817 270.499 304.783 263.784C296.464 256.117 291.478 245.56 290.874 234.335L301.942 233.903C304.525 256.638 317.122 268.496 339.417 269.242V276.153L343.947 276.251Z" fill="#575757"/>
<rect id="z5-text" x="332" y="51" width="33.5588" height="33.5588" rx="16.7794" fill="#EC1C24"/>
<path d="M344.578 72.7098C345.139 72.9818 346.397 73.2368 347.621 73.2368C350.358 73.2368 352.432 71.9788 352.432 69.5308C352.432 67.6098 351.157 66.1648 348.165 66.1648C347.944 66.1648 347.536 66.1648 347.281 66.1818L347.349 64.6348H351.905V62.5948H345.037L344.833 68.2728C345.496 68.1878 346.261 68.1028 347.23 68.1028C348.913 68.1028 349.763 68.5958 349.763 69.5648C349.763 70.7378 348.862 71.2138 347.298 71.2138C346.295 71.2138 345.241 70.9758 344.578 70.6528V72.7098Z" fill="white"/>
<path d="M341.792 114V105.46H339.608V108.75H336.08V105.46H333.896V114H336.08V110.486H339.608V114H341.792ZM350.505 110.864C350.505 108.932 349.175 107.476 346.865 107.476C344.555 107.476 343.225 108.932 343.225 110.864C343.225 112.796 344.555 114.252 346.865 114.252C349.175 114.252 350.505 112.796 350.505 110.864ZM346.865 112.754C345.983 112.754 345.437 112.11 345.437 110.864C345.437 109.618 345.983 108.974 346.865 108.974C347.747 108.974 348.293 109.618 348.293 110.864C348.293 112.11 347.747 112.754 346.865 112.754ZM362.485 114V110.206C362.485 108.428 361.701 107.504 360.189 107.504C359.349 107.504 358.439 107.924 357.921 108.554C357.571 107.882 356.913 107.504 355.961 107.504C355.121 107.504 354.337 107.882 353.847 108.484H353.833L353.637 107.7H351.873V114H354.029V109.478C354.323 109.296 354.729 109.114 355.233 109.114C355.807 109.114 356.115 109.436 356.115 110.402V114H358.243V109.996C358.243 109.828 358.229 109.66 358.215 109.506C358.509 109.324 358.915 109.114 359.461 109.114C360.035 109.114 360.329 109.436 360.329 110.402V114H362.485ZM370.017 112.208C369.289 112.586 368.645 112.796 367.819 112.796C366.573 112.796 365.887 112.348 365.845 111.41H370.367C370.465 111.116 370.479 110.822 370.479 110.486C370.479 108.918 369.387 107.476 367.259 107.476C365.075 107.476 363.815 108.848 363.815 110.794C363.815 112.824 364.963 114.252 367.497 114.252C368.407 114.252 369.303 114.07 370.017 113.734V112.208ZM365.845 110.22C365.915 109.366 366.433 108.834 367.273 108.834C368.071 108.834 368.575 109.324 368.617 110.22H365.845ZM383.944 114L382.138 112.278C382.852 111.382 383.244 110.262 383.244 109.198H381.186C381.186 109.884 381.074 110.486 380.85 111.018L378.372 108.568C378.036 108.232 377.672 107.784 377.672 107.322C377.672 106.874 378.036 106.538 378.596 106.538C379.268 106.538 379.618 106.776 379.618 107.658H381.592C381.592 106.104 380.626 105.236 378.624 105.236C376.818 105.236 375.67 106.048 375.67 107.336C375.67 108.386 376.258 108.988 376.65 109.31C375.572 109.94 374.9 110.514 374.9 111.704C374.9 113.272 376.272 114.224 378.162 114.224C379.226 114.224 380.164 113.902 380.948 113.384L381.578 114H383.944ZM379.786 112.334C379.366 112.6 378.904 112.726 378.386 112.726C377.784 112.726 376.944 112.446 376.944 111.592C376.944 110.99 377.364 110.612 377.798 110.318L379.786 112.334ZM390.603 112.292V107.168H391.863C393.445 107.168 394.201 107.868 394.201 109.604C394.201 111.452 393.571 112.292 391.821 112.292H390.603ZM391.849 114C394.523 114 396.413 112.698 396.413 109.604C396.413 106.748 394.467 105.46 391.891 105.46H388.419V114H391.849ZM403.705 112.208C402.977 112.586 402.333 112.796 401.507 112.796C400.261 112.796 399.575 112.348 399.533 111.41H404.055C404.153 111.116 404.167 110.822 404.167 110.486C404.167 108.918 403.075 107.476 400.947 107.476C398.763 107.476 397.503 108.848 397.503 110.794C397.503 112.824 398.651 114.252 401.185 114.252C402.095 114.252 402.991 114.07 403.705 113.734V112.208ZM399.533 110.22C399.603 109.366 400.121 108.834 400.961 108.834C401.759 108.834 402.263 109.324 402.305 110.22H399.533ZM411.038 112.236C410.422 112.628 409.932 112.782 409.218 112.782C408.14 112.782 407.412 112.096 407.412 110.85C407.412 109.604 408.056 108.946 409.246 108.946C409.932 108.946 410.464 109.142 410.954 109.464V107.924C410.562 107.7 409.82 107.476 408.882 107.476C406.712 107.476 405.2 108.848 405.2 110.85C405.2 112.992 406.796 114.252 408.924 114.252C409.946 114.252 410.492 114.084 411.038 113.748V112.236ZM419.22 110.864C419.22 108.932 417.89 107.476 415.58 107.476C413.27 107.476 411.94 108.932 411.94 110.864C411.94 112.796 413.27 114.252 415.58 114.252C417.89 114.252 419.22 112.796 419.22 110.864ZM415.58 112.754C414.698 112.754 414.152 112.11 414.152 110.864C414.152 109.618 414.698 108.974 415.58 108.974C416.462 108.974 417.008 109.618 417.008 110.864C417.008 112.11 416.462 112.754 415.58 112.754ZM422.744 114V110.318C423.192 109.87 423.864 109.548 424.606 109.548C424.816 109.548 425.04 109.562 425.264 109.604V107.602C425.054 107.546 424.816 107.518 424.648 107.518C423.794 107.518 423.052 108.092 422.646 109.044H422.618L422.282 107.7H420.588V114H422.744ZM337.718 129C339.706 129 341.134 128.314 341.134 126.55C341.134 125.304 340.406 124.716 339.706 124.492V124.464C340.196 124.142 340.7 123.526 340.7 122.644C340.7 121.048 339.356 120.46 337.648 120.46H333.896V129H337.718ZM336.038 123.876V122.098H337.396C338.236 122.098 338.502 122.336 338.502 122.952C338.502 123.33 338.404 123.666 338.292 123.876H336.038ZM336.038 127.362V125.514H337.466C338.292 125.514 338.922 125.556 338.922 126.382C338.922 127.264 338.166 127.362 337.536 127.362H336.038ZM349.371 125.864C349.371 123.932 348.041 122.476 345.731 122.476C343.421 122.476 342.091 123.932 342.091 125.864C342.091 127.796 343.421 129.252 345.731 129.252C348.041 129.252 349.371 127.796 349.371 125.864ZM345.731 127.754C344.849 127.754 344.303 127.11 344.303 125.864C344.303 124.618 344.849 123.974 345.731 123.974C346.613 123.974 347.159 124.618 347.159 125.864C347.159 127.11 346.613 127.754 345.731 127.754ZM357.178 129V122.7H355.022V127.138C354.7 127.348 354.28 127.558 353.818 127.558C353.216 127.558 352.894 127.278 352.894 126.368V122.7H350.738V126.508C350.738 128.286 351.438 129.196 353.048 129.196C353.874 129.196 354.63 128.832 355.19 128.216H355.218L355.414 129H357.178ZM363.565 127.334C363.229 127.544 362.795 127.628 362.361 127.628C361.787 127.628 361.423 127.418 361.423 126.69V124.142H363.565V122.7H361.423V120.712H359.967L359.323 122.7H358.175V124.142H359.267V126.774C359.267 128.398 359.967 129.224 361.941 129.224C362.655 129.224 363.187 129.098 363.565 128.916V127.334ZM366.977 129V122.7H364.849V129H366.977ZM367.243 120.866C367.243 120.152 366.809 119.704 365.913 119.704C365.017 119.704 364.583 120.152 364.583 120.866C364.583 121.58 365.017 122.028 365.913 122.028C366.809 122.028 367.243 121.58 367.243 120.866ZM375.283 132.01V122.7H373.449L373.281 123.302H373.253C372.805 122.854 372.147 122.476 371.251 122.476C369.473 122.476 368.367 123.932 368.367 125.822C368.367 128.062 369.641 129.224 371.321 129.224C371.979 129.224 372.763 128.958 373.169 128.496H373.197C373.127 128.832 373.099 129.448 373.099 129.728V132.01H375.283ZM373.127 127.166C372.721 127.6 372.329 127.74 371.825 127.74C371.027 127.74 370.551 127.04 370.551 125.794C370.551 124.982 370.845 124.044 371.867 124.044C372.301 124.044 372.679 124.184 373.127 124.52V127.166ZM383.401 129V122.7H381.245V127.138C380.923 127.348 380.503 127.558 380.041 127.558C379.439 127.558 379.117 127.278 379.117 126.368V122.7H376.961V126.508C376.961 128.286 377.661 129.196 379.271 129.196C380.097 129.196 380.853 128.832 381.413 128.216H381.441L381.637 129H383.401ZM390.935 127.208C390.207 127.586 389.563 127.796 388.737 127.796C387.491 127.796 386.805 127.348 386.763 126.41H391.285C391.383 126.116 391.397 125.822 391.397 125.486C391.397 123.918 390.305 122.476 388.177 122.476C385.993 122.476 384.733 123.848 384.733 125.794C384.733 127.824 385.881 129.252 388.415 129.252C389.325 129.252 390.221 129.07 390.935 128.734V127.208ZM386.763 125.22C386.833 124.366 387.351 123.834 388.191 123.834C388.989 123.834 389.493 124.324 389.535 125.22H386.763Z" fill="#231F20"/>
<path d="M434 24.1631V60.4066" stroke="#474747" stroke-width="2"/>
<path d="M409.681 77.0859V72.1419C409.681 69.2779 407.857 68.0779 405.217 68.0779C402.705 68.0779 400.753 69.2779 400.753 72.1419V77.0859H403.217V75.0859C403.585 74.5099 404.241 74.1899 404.993 74.1899C405.361 74.1899 405.585 74.2379 405.841 74.3019V72.2539C405.649 72.1899 405.425 72.1579 405.153 72.1579C404.337 72.1579 403.665 72.5899 403.217 73.3419V72.1899C403.217 70.7019 403.761 69.9499 405.217 69.9499C406.737 69.9499 407.217 70.7019 407.217 72.1899V77.0859H409.681ZM409.677 81.5019V79.6779C409.677 78.5419 409.117 78.0619 407.917 78.0619C407.469 78.0619 406.733 78.1419 406.269 78.2219V79.6939C406.445 79.6459 406.701 79.6299 406.829 79.6299C407.229 79.6299 407.437 79.7899 407.437 80.1099V81.5019H409.677ZM425.549 77.0859V68.3339H423.085V74.2539C422.589 74.8939 421.821 75.4699 421.037 75.4699C420.141 75.4699 419.853 74.8139 419.853 74.2539V71.9019C419.853 69.1339 418.269 68.0779 415.757 68.0779C414.253 68.0779 412.525 68.4459 411.613 68.7979V74.7339C411.613 76.6539 412.845 77.3099 414.333 77.3099C414.925 77.3099 415.485 77.2299 415.997 77.0859V75.4059C415.613 75.5179 415.373 75.5659 414.941 75.5659C414.301 75.5659 414.077 75.3579 414.077 74.5739V70.1419C414.573 70.0139 415.165 69.9499 415.693 69.9499C416.973 69.9499 417.389 70.6379 417.389 72.0299V74.4299C417.389 76.3019 418.461 77.3419 420.125 77.3419C421.469 77.3419 422.397 76.7819 423.085 76.0139H423.117L423.485 77.0859H425.549ZM430.703 73.5659V71.8699H427.743C427.439 72.3499 427.183 73.3739 427.183 74.0939C427.183 76.3659 428.943 77.3739 431.487 77.3739C434.095 77.3739 436.127 75.9019 436.127 72.7019C436.127 69.8379 434.303 68.0779 431.151 68.0779C429.615 68.0779 428.255 68.4459 427.487 68.7659V70.7979C428.367 70.3019 429.551 69.9019 430.943 69.9019C432.703 69.9019 433.663 70.9419 433.663 72.7019C433.663 74.4619 432.879 75.5499 431.439 75.5499C430.191 75.5499 429.551 75.1339 429.551 74.1579C429.551 73.9339 429.599 73.7419 429.647 73.5659H430.703ZM443.61 75.0539C443.098 75.3099 442.458 75.5019 441.69 75.5019C440.458 75.5019 439.85 75.0379 439.85 74.1099C439.85 73.7899 439.946 73.4539 440.186 73.1179H442.25V71.5659H441.258C440.362 71.5659 439.914 71.1499 439.914 70.6859C439.914 69.9979 440.474 69.9179 441.05 69.9179C441.482 69.9179 441.738 69.9979 441.946 70.0779V68.3019C441.69 68.2219 441.21 68.1419 440.442 68.1419C438.57 68.1419 437.514 69.0219 437.514 70.5579C437.514 71.6459 438.026 72.2379 438.618 72.6059V72.6379C437.866 73.0059 437.434 73.6779 437.434 74.5259C437.434 76.6539 439.322 77.3739 441.45 77.3739C443.578 77.3739 445.05 76.7819 446.074 75.8059V68.3339H443.61V75.0539ZM446.068 78.2379H444.02V79.5819C444.02 80.1419 443.764 80.2859 443.38 80.2859C442.996 80.2859 442.74 80.1419 442.74 79.5819V78.2379H439.86V79.6619H440.692V79.7259C440.692 81.2619 441.892 81.7259 443.38 81.7259C444.884 81.7259 446.068 81.2619 446.068 79.7259V78.2379ZM445.86 67.0699L445.988 63.5819H443.556L443.7 67.0699H445.86ZM456.692 77.0859V71.5179C456.692 69.2779 455.572 68.0779 453.604 68.0779C452.18 68.0779 451.156 68.6379 450.468 69.4059H450.436L450.068 68.3339H448.004V77.0859H450.468V71.1659C450.964 70.5259 451.812 69.9499 452.884 69.9499C453.892 69.9499 454.228 70.6059 454.228 71.5659V77.0859H456.692ZM456.693 67.0699V63.9019H454.453L454.517 65.3099H448.677V67.0699H456.693ZM456.629 63.1819L456.693 60.1579H454.517L454.581 63.1819H456.629ZM467.029 77.0859V68.3339H464.565V74.2539C464.069 74.9419 463.285 75.4699 462.437 75.4699C461.349 75.4699 461.045 74.7979 461.045 73.9659V68.3339H458.581V74.0459C458.581 76.1419 459.653 77.3419 461.749 77.3419C462.949 77.3419 463.877 76.7659 464.565 76.0139H464.597L464.965 77.0859H467.029ZM467.084 67.0699V63.9019H464.844L464.908 65.3099H459.068V67.0699H467.084ZM467.02 63.1819L467.084 60.1579H464.908L464.972 63.1819H467.02Z" fill="#323232"/>
<rect x="417" width="33.5588" height="33.5588" rx="16.7794" fill="#EC1C24"/>
</svg>
