<svg width="100%" height="100%" preserveAspectRatio="none" viewBox="0 0 610 470" fill="none" xmlns="http://www.w3.org/2000/svg">
<path d="M410 20.0408V1H17L2 235.502L417 430.921L609 468V1H463V20.0408H410Z" fill="#F4F4F4" stroke="#575757" stroke-width="2"/>
<path d="M390.333 304.972C333.116 301.769 307.451 263.323 244.892 261.721C207.484 260.76 173.895 282.546 150.251 303.467L242.598 347.022L315.824 381.575L418.036 429.92L607.317 466.763V234.97C545.062 261.129 434.237 309.314 390.333 304.972Z" stroke="#575757" stroke-width="0.5" stroke-miterlimit="10"/>
<path d="M298.827 228.081L272.905 219.671L245.363 203.524L199.888 247.56L232.418 262.346C236.89 261.823 241.392 261.615 245.893 261.721C308.452 263.323 334.117 301.768 391.334 304.972C435.238 309.249 546.064 261.064 608.286 234.825V1.26953H491.316V29.4468H456.027V44.9371H412.717V70.0227H345.345V122.885H285.465L329.85 183.228L298.827 228.081Z" fill="#BBBBBB" stroke="#575757" stroke-miterlimit="10"/>
<rect x="403.824" y="101" width="32" height="32" rx="16" fill="#EC1C24"/>
<path d="M416.813 122.155C417.357 122.336 418.116 122.534 419.187 122.534C422.023 122.534 424.05 120.671 424.05 117.16C424.05 113.665 422.336 112 419.665 112C417.258 112 415.824 113.451 415.824 115.594C415.824 117.358 416.929 118.808 419.154 118.808C420.143 118.808 420.951 118.512 421.544 117.984C421.413 119.517 420.786 120.589 418.874 120.589C418.066 120.589 417.291 120.391 416.813 120.127V122.155ZM421.577 115.989C421.198 116.583 420.473 117.094 419.698 117.094C418.627 117.094 418.198 116.303 418.198 115.561C418.198 114.225 419.138 113.945 419.797 113.945C420.737 113.945 421.462 114.736 421.577 115.989Z" fill="white"/>
<path d="M212.186 185.664C203.284 200.753 182.896 211.294 159.139 211.294C137.18 211.294 118.075 202.259 108.29 188.867C103.86 183.059 101.414 175.984 101.312 168.684C101.382 161.341 103.823 154.217 108.274 148.372C108.274 148.372 108.547 127.547 108.274 127.227H87.036V69.1581H14.9648L17.5956 28.8545L19.3921 1.33398H138.367V30.7127H195.311V47.933H239.423V202.115L212.186 185.664Z" stroke="#575757" stroke-width="0.5" stroke-miterlimit="10"/>
<path d="M5.35645 235.082L73.3533 267.216L150.349 303.242L159.316 295.874C178.934 280.127 203.845 265.598 231.371 262.41L198.84 247.625L109.012 206.792L5.35645 235.082Z" fill="#BBBBBB" stroke="#575757" stroke-miterlimit="10"/>
<path d="M294.635 188.451C291.805 195.029 290.347 202.115 290.352 209.275C290.352 223.295 295.929 236.741 305.856 246.655C315.783 256.568 329.247 262.138 343.286 262.138C353.391 262.151 363.287 259.26 371.791 253.808L305.334 197.469L294.635 188.451Z" fill="#BBBBBB" stroke="#575757" stroke-width="0.5" stroke-miterlimit="10"/>
<path d="M343.286 156.461C333.029 156.463 322.995 159.452 314.413 165.063L325.353 174.45L391.457 231.285C394.617 224.416 396.258 216.947 396.269 209.387C396.278 202.436 394.913 195.551 392.254 189.127C389.594 182.703 385.692 176.866 380.771 171.95C375.849 167.033 370.005 163.135 363.573 160.477C357.141 157.819 350.247 156.455 343.286 156.461Z" fill="#BBBBBB" stroke="#575757" stroke-width="0.5" stroke-miterlimit="10"/>
<path d="M304.468 173.393C303.292 174.653 302.185 175.967 301.147 177.334L313.371 187.826L381.287 246.103C382.41 244.95 383.469 243.748 384.495 242.515L317.124 184.302L304.468 173.393Z" fill="#BBBBBB" stroke="#575757" stroke-width="0.5" stroke-miterlimit="10"/>
<path d="M325.288 174.45L314.348 165.063L307.595 159.2L298.772 168.411L304.467 173.329L317.091 184.238L384.462 242.45C387.256 238.995 389.6 235.2 391.44 231.157L325.288 174.45Z" fill="white" stroke="#575757" stroke-width="0.5" stroke-miterlimit="10"/>
<path d="M313.37 187.826L301.147 177.334L295.966 172.88L287.144 182.091L294.635 188.499L305.334 197.566L371.791 253.904C375.247 251.697 378.434 249.095 381.287 246.151L313.37 187.826Z" fill="white" stroke="#575757" stroke-width="0.5" stroke-miterlimit="10"/>
<path d="M322.835 106.61H264.286V94.7881L329.46 94.9963L322.835 106.61Z" stroke="#575757" stroke-width="0.5" stroke-miterlimit="10"/>
<path d="M285.54 107.075V94.5317" stroke="#575757" stroke-width="0.5" stroke-miterlimit="10"/>
<path d="M288.877 107.075V94.5317" stroke="#575757" stroke-width="0.5" stroke-miterlimit="10"/>
<path d="M291.555 107.075V94.5317" stroke="#575757" stroke-width="0.5" stroke-miterlimit="10"/>
<path d="M294.233 107.075V94.5317" stroke="#575757" stroke-width="0.5" stroke-miterlimit="10"/>
<path d="M296.896 107.075V94.5317" stroke="#575757" stroke-width="0.5" stroke-miterlimit="10"/>
<path d="M299.574 107.075V94.5317" stroke="#575757" stroke-width="0.5" stroke-miterlimit="10"/>
<path d="M302.255 107.075V94.5317" stroke="#575757" stroke-width="0.5" stroke-miterlimit="10"/>
<path d="M304.918 107.075V94.5317" stroke="#575757" stroke-width="0.5" stroke-miterlimit="10"/>
<path d="M307.597 107.075V94.5317" stroke="#575757" stroke-width="0.5" stroke-miterlimit="10"/>
<path d="M310.274 107.075V94.5317" stroke="#575757" stroke-width="0.5" stroke-miterlimit="10"/>
<path d="M312.938 107.075V94.5317" stroke="#575757" stroke-width="0.5" stroke-miterlimit="10"/>
<path d="M315.616 107.075V94.5317" stroke="#575757" stroke-width="0.5" stroke-miterlimit="10"/>
<path d="M318.295 107.075V94.5317" stroke="#575757" stroke-width="0.5" stroke-miterlimit="10"/>
<path d="M320.957 107.075V94.5317" stroke="#575757" stroke-width="0.5" stroke-miterlimit="10"/>
<path d="M322.835 123.029H264.286V111.208L329.46 111.416L322.835 123.029Z" stroke="#575757" stroke-width="0.5" stroke-miterlimit="10"/>
<path d="M285.54 123.494V110.951" stroke="#575757" stroke-width="0.5" stroke-miterlimit="10"/>
<path d="M288.877 123.494V110.951" stroke="#575757" stroke-width="0.5" stroke-miterlimit="10"/>
<path d="M291.555 123.494V110.951" stroke="#575757" stroke-width="0.5" stroke-miterlimit="10"/>
<path d="M294.233 123.494V110.951" stroke="#575757" stroke-width="0.5" stroke-miterlimit="10"/>
<path d="M296.896 123.494V110.951" stroke="#575757" stroke-width="0.5" stroke-miterlimit="10"/>
<path d="M299.574 123.494V110.951" stroke="#575757" stroke-width="0.5" stroke-miterlimit="10"/>
<path d="M302.255 123.494V110.951" stroke="#575757" stroke-width="0.5" stroke-miterlimit="10"/>
<path d="M304.918 123.494V110.951" stroke="#575757" stroke-width="0.5" stroke-miterlimit="10"/>
<path d="M307.597 123.494V110.951" stroke="#575757" stroke-width="0.5" stroke-miterlimit="10"/>
<path d="M310.274 123.494V110.951" stroke="#575757" stroke-width="0.5" stroke-miterlimit="10"/>
<path d="M312.938 123.494V110.951" stroke="#575757" stroke-width="0.5" stroke-miterlimit="10"/>
<path d="M315.616 123.494V110.951" stroke="#575757" stroke-width="0.5" stroke-miterlimit="10"/>
<path d="M318.295 123.494V110.951" stroke="#575757" stroke-width="0.5" stroke-miterlimit="10"/>
<path d="M320.957 123.494V110.951" stroke="#575757" stroke-width="0.5" stroke-miterlimit="10"/>
<path d="M316.418 184.094L325.24 174.755" stroke="#575757" stroke-width="0.5" stroke-miterlimit="10"/>
<path d="M319.498 186.641L328.32 177.286" stroke="#575757" stroke-width="0.5" stroke-miterlimit="10"/>
<path d="M322.562 189.172L331.384 179.833" stroke="#575757" stroke-width="0.5" stroke-miterlimit="10"/>
<path d="M325.643 191.702L334.465 182.363" stroke="#575757" stroke-width="0.5" stroke-miterlimit="10"/>
<path d="M328.723 194.25L337.545 184.895" stroke="#575757" stroke-width="0.5" stroke-miterlimit="10"/>
<path d="M331.786 196.781L340.609 187.442" stroke="#575757" stroke-width="0.5" stroke-miterlimit="10"/>
<path d="M334.865 199.312L343.688 189.973" stroke="#575757" stroke-width="0.5" stroke-miterlimit="10"/>
<path d="M337.945 201.858L346.768 192.503" stroke="#575757" stroke-width="0.5" stroke-miterlimit="10"/>
<path d="M341.009 204.39L349.831 195.051" stroke="#575757" stroke-width="0.5" stroke-miterlimit="10"/>
<path d="M343.752 207.321L352.911 197.582" stroke="#575757" stroke-width="0.5" stroke-miterlimit="10"/>
<path d="M346.767 209.932L355.589 200.577" stroke="#575757" stroke-width="0.5" stroke-miterlimit="10"/>
<path d="M349.831 212.463L358.653 203.124" stroke="#575757" stroke-width="0.5" stroke-miterlimit="10"/>
<path d="M352.977 214.866L361.799 205.527" stroke="#575757" stroke-width="0.5" stroke-miterlimit="10"/>
<path d="M355.991 217.477L364.814 208.122" stroke="#575757" stroke-width="0.5" stroke-miterlimit="10"/>
<path d="M359.056 220.2L367.878 210.861" stroke="#575757" stroke-width="0.5" stroke-miterlimit="10"/>
<path d="M362.006 222.747L370.828 213.392" stroke="#575757" stroke-width="0.5" stroke-miterlimit="10"/>
<path d="M365.006 225.215L373.828 215.875" stroke="#575757" stroke-width="0.5" stroke-miterlimit="10"/>
<path d="M367.941 227.745L376.764 218.406" stroke="#575757" stroke-width="0.5" stroke-miterlimit="10"/>
<path d="M370.828 230.485L379.651 221.146" stroke="#575757" stroke-width="0.5" stroke-miterlimit="10"/>
<path d="M373.892 232.951L382.714 223.612" stroke="#575757" stroke-width="0.5" stroke-miterlimit="10"/>
<path d="M376.572 235.563L385.395 226.208" stroke="#575757" stroke-width="0.5" stroke-miterlimit="10"/>
<path d="M379.78 237.901L388.603 228.546" stroke="#575757" stroke-width="0.5" stroke-miterlimit="10"/>
<path d="M382.587 240.432L391.409 231.093" stroke="#575757" stroke-width="0.5" stroke-miterlimit="10"/>
<path d="M304.019 196.348L312.841 187.009" stroke="#575757" stroke-width="0.5" stroke-miterlimit="10"/>
<path d="M307.082 198.879L315.904 189.54" stroke="#575757" stroke-width="0.5" stroke-miterlimit="10"/>
<path d="M310.162 201.426L318.985 192.071" stroke="#575757" stroke-width="0.5" stroke-miterlimit="10"/>
<path d="M313.241 203.957L321.631 194.97" stroke="#575757" stroke-width="0.5" stroke-miterlimit="10"/>
<path d="M316.306 206.488L324.711 197.582" stroke="#575757" stroke-width="0.5" stroke-miterlimit="10"/>
<path d="M319.387 209.035L327.648 200.177" stroke="#575757" stroke-width="0.5" stroke-miterlimit="10"/>
<path d="M322.466 211.566L330.647 202.788" stroke="#575757" stroke-width="0.5" stroke-miterlimit="10"/>
<path d="M325.53 214.097L333.727 205.383" stroke="#575757" stroke-width="0.5" stroke-miterlimit="10"/>
<path d="M328.609 216.644L336.742 207.994" stroke="#575757" stroke-width="0.5" stroke-miterlimit="10"/>
<path d="M331.352 219.576L339.741 210.525" stroke="#575757" stroke-width="0.5" stroke-miterlimit="10"/>
<path d="M334.352 222.171L343.174 212.832" stroke="#575757" stroke-width="0.5" stroke-miterlimit="10"/>
<path d="M337.431 224.718L345.82 215.731" stroke="#575757" stroke-width="0.5" stroke-miterlimit="10"/>
<path d="M340.577 227.121L348.774 218.406" stroke="#575757" stroke-width="0.5" stroke-miterlimit="10"/>
<path d="M343.576 229.715L351.837 220.873" stroke="#575757" stroke-width="0.5" stroke-miterlimit="10"/>
<path d="M346.655 232.455L354.916 223.612" stroke="#575757" stroke-width="0.5" stroke-miterlimit="10"/>
<path d="M349.591 234.986L357.852 226.208" stroke="#575757" stroke-width="0.5" stroke-miterlimit="10"/>
<path d="M352.606 237.469L360.803 228.69" stroke="#575757" stroke-width="0.5" stroke-miterlimit="10"/>
<path d="M355.542 240L363.867 231.35" stroke="#575757" stroke-width="0.5" stroke-miterlimit="10"/>
<path d="M358.413 242.739L366.883 233.816" stroke="#575757" stroke-width="0.5" stroke-miterlimit="10"/>
<path d="M361.492 245.206L369.882 236.428" stroke="#575757" stroke-width="0.5" stroke-miterlimit="10"/>
<path d="M364.173 247.801L372.995 238.462" stroke="#575757" stroke-width="0.5" stroke-miterlimit="10"/>
<path d="M367.381 250.14L375.642 241.361" stroke="#575757" stroke-width="0.5" stroke-miterlimit="10"/>
<path d="M370.188 252.687L378.449 243.764" stroke="#575757" stroke-width="0.5" stroke-miterlimit="10"/>
<path d="M123.079 202.035L8.38743 234.873L3.5752 234.072L15.6058 69.0776H86.9872V127.547H107.84V149.172C91.7994 174.162 111.316 194.826 123.079 202.035Z" fill="#BBBBBB" stroke="#575757"/>
<path d="M565.003 141.728H446.302V212.211H565.003V141.728Z" fill="#17212E"/>
<path d="M550.101 150.804H541.213V159.695H550.101V150.804Z" fill="white"/>
<path d="M474.163 172.658C473.642 173.234 473.003 173.691 472.289 173.997C471.576 174.304 470.805 174.454 470.029 174.437C468.541 174.348 467.142 173.694 466.119 172.608C465.097 171.523 464.527 170.087 464.527 168.596C464.527 167.104 465.097 165.669 466.119 164.583C467.142 163.497 468.541 162.843 470.029 162.755C470.806 162.732 471.579 162.879 472.293 163.186C473.007 163.494 473.645 163.953 474.163 164.533L476.374 162.3C474.734 160.645 472.504 159.708 470.174 159.695C469.007 159.695 467.851 159.925 466.773 160.372C465.694 160.818 464.715 161.473 463.889 162.299C463.064 163.124 462.409 164.104 461.963 165.183C461.516 166.262 461.286 167.418 461.286 168.585C461.286 169.753 461.516 170.909 461.963 171.988C462.409 173.066 463.064 174.046 463.889 174.872C464.715 175.697 465.694 176.352 466.773 176.799C467.851 177.246 469.007 177.476 470.174 177.476C472.504 177.462 474.734 176.526 476.374 174.871L474.163 172.658Z" fill="white"/>
<path d="M486.998 162.755C488.154 162.743 489.288 163.074 490.256 163.705C491.224 164.337 491.983 165.242 492.438 166.305C492.892 167.368 493.022 168.542 492.81 169.679C492.598 170.816 492.054 171.864 491.247 172.692C490.439 173.52 489.405 174.089 488.274 174.33C487.143 174.57 485.967 174.469 484.893 174.041C483.819 173.613 482.897 172.876 482.241 171.923C481.586 170.971 481.227 169.845 481.211 168.689C481.192 167.925 481.326 167.165 481.607 166.454C481.888 165.743 482.309 165.096 482.845 164.552C483.382 164.008 484.022 163.577 484.729 163.286C485.435 162.995 486.193 162.85 486.957 162.858L486.998 162.755ZM486.957 159.798C485.199 159.798 483.481 160.32 482.019 161.297C480.558 162.274 479.419 163.662 478.746 165.287C478.073 166.911 477.897 168.699 478.24 170.423C478.583 172.148 479.43 173.732 480.672 174.975C481.915 176.219 483.499 177.066 485.223 177.409C486.947 177.752 488.734 177.576 490.358 176.903C491.982 176.23 493.37 175.09 494.347 173.628C495.323 172.166 495.845 170.447 495.845 168.689C495.845 167.521 495.615 166.365 495.168 165.287C494.721 164.208 494.067 163.228 493.241 162.402C492.416 161.577 491.436 160.922 490.358 160.475C489.28 160.028 488.124 159.798 486.957 159.798Z" fill="white"/>
<path d="M532.325 162.755C533.486 162.738 534.626 163.068 535.599 163.702C536.572 164.335 537.335 165.245 537.79 166.313C538.245 167.382 538.371 168.562 538.153 169.703C537.935 170.844 537.382 171.895 536.566 172.72C535.749 173.546 534.705 174.11 533.567 174.34C532.429 174.571 531.248 174.457 530.174 174.013C529.101 173.57 528.184 172.817 527.54 171.85C526.896 170.883 526.554 169.747 526.558 168.585C526.539 167.819 526.674 167.057 526.956 166.345C527.238 165.633 527.661 164.985 528.2 164.441C528.738 163.896 529.381 163.466 530.09 163.176C530.799 162.887 531.559 162.743 532.325 162.755ZM532.325 159.695C530.569 159.682 528.849 160.191 527.382 161.156C525.914 162.121 524.765 163.499 524.08 165.116C523.395 166.734 523.204 168.518 523.532 170.244C523.86 171.969 524.691 173.559 525.921 174.813C527.151 176.066 528.725 176.927 530.444 177.287C532.163 177.647 533.949 177.489 535.579 176.834C537.208 176.179 538.607 175.055 539.598 173.606C540.59 172.156 541.13 170.445 541.151 168.688C541.151 166.331 540.214 164.069 538.548 162.402C536.881 160.735 534.62 159.798 532.263 159.798L532.325 159.695Z" fill="white"/>
<path d="M508.432 160.253H497.188V163.168H501.281V176.917H504.34V163.168H508.432V160.253Z" fill="white"/>
<path d="M522.115 160.253H510.892V163.168H514.984V176.917H518.022V163.168H522.115V160.253Z" fill="white"/>
<path d="M527.014 186.201C527.321 186.165 527.603 186.016 527.806 185.783C528.008 185.549 528.117 185.249 528.109 184.94C528.134 184.76 528.121 184.577 528.072 184.403C528.022 184.228 527.936 184.066 527.82 183.927C527.748 183.836 527.657 183.763 527.553 183.713C527.45 183.663 527.336 183.637 527.221 183.637C526.912 183.682 526.629 183.836 526.425 184.071C526.22 184.306 526.106 184.607 526.104 184.919C526.064 185.282 526.168 185.646 526.394 185.932C526.557 186.1 526.78 186.197 527.014 186.201Z" fill="white"/>
<path d="M544.375 193.499C544.189 193.396 543.879 193.499 543.61 193.892C543.224 194.57 542.643 195.116 541.943 195.458C541.243 195.801 540.455 195.926 539.683 195.815C539.204 195.704 538.772 195.444 538.449 195.073C538.126 194.701 537.929 194.238 537.885 193.747C538.692 193.724 539.479 193.493 540.171 193.077C540.862 192.66 541.435 192.072 541.833 191.37C542.08 190.942 542.209 190.457 542.209 189.964C542.209 189.47 542.08 188.985 541.833 188.558C541.63 188.283 541.353 188.073 541.034 187.952C540.715 187.831 540.368 187.805 540.035 187.875C539.392 188.023 538.791 188.316 538.279 188.732C537.766 189.147 537.356 189.675 537.079 190.274C536.537 191.295 536.307 192.452 536.418 193.603V193.975C536.04 194.16 535.614 194.224 535.198 194.161C533.743 193.989 532.396 193.308 531.395 192.238C531.34 192.172 531.269 192.122 531.188 192.093C531.188 191.638 531.354 191.163 531.498 190.646C531.784 189.105 532.15 187.58 532.594 186.077C532.987 184.567 533.317 183.43 533.648 182.376C533.648 182.21 533.648 182.066 533.793 181.9C533.934 181.438 534.114 180.989 534.33 180.556C534.361 180.481 534.377 180.4 534.377 180.319C534.377 180.237 534.361 180.156 534.33 180.081C534.297 179.997 534.247 179.92 534.183 179.856C534.119 179.792 534.042 179.742 533.958 179.709C533.802 179.647 533.627 179.649 533.473 179.715C533.318 179.781 533.195 179.905 533.131 180.06C532.839 180.611 532.61 181.194 532.449 181.797C532.41 181.951 532.362 182.103 532.304 182.252C531.374 185.353 530.651 188.206 530.093 190.956C529.872 192.004 529.686 193.017 529.535 193.995C528.936 194.807 528.167 195.477 527.282 195.96H526.972C525.897 195.96 525.67 194.698 525.587 193.685C525.697 191.99 526.095 190.326 526.765 188.765C526.83 188.605 526.832 188.426 526.77 188.265C526.709 188.104 526.589 187.972 526.435 187.896C526.356 187.862 526.271 187.845 526.186 187.844C526.1 187.844 526.016 187.86 525.937 187.893C525.858 187.926 525.786 187.974 525.726 188.035C525.666 188.096 525.619 188.168 525.587 188.248C525.331 188.824 525.116 189.418 524.946 190.026C524.693 190.807 524.513 191.61 524.409 192.424C524.357 192.884 524.357 193.349 524.409 193.809C524.138 194.246 523.776 194.62 523.348 194.906C522.92 195.191 522.436 195.381 521.929 195.463C521.004 195.439 520.084 195.328 519.18 195.133C518.076 194.881 516.941 194.79 515.811 194.864C516.036 194.449 516.237 194.021 516.41 193.582C516.962 191.926 517.363 190.224 517.609 188.496V188.082C517.712 187.255 517.836 186.47 517.981 185.663L518.126 184.94C518.266 184.06 518.509 183.199 518.849 182.376C518.892 182.29 518.927 182.2 518.952 182.107C519.138 181.735 519.262 181.445 519.614 181.28C519.7 181.225 519.801 181.195 519.903 181.195C520.006 181.195 520.106 181.225 520.192 181.28C520.431 181.468 520.625 181.706 520.76 181.978C520.896 182.25 520.97 182.548 520.978 182.851C520.98 183.044 521.049 183.23 521.174 183.378C521.298 183.525 521.47 183.624 521.66 183.658C521.893 183.658 522.12 183.578 522.301 183.43C522.429 183.305 522.504 183.134 522.507 182.955C522.498 182.414 522.38 181.881 522.16 181.387C521.94 180.893 521.622 180.449 521.226 180.081C521.006 179.902 520.749 179.775 520.473 179.71C520.197 179.646 519.911 179.645 519.634 179.709C518.394 179.936 517.568 181.032 516.865 182.975C516.632 183.784 516.446 184.606 516.307 185.436C516.183 186.118 516.079 186.8 515.976 187.503C515.76 189.846 515.159 192.137 514.199 194.285C513.885 194.95 513.342 195.479 512.669 195.774C512.571 195.808 512.482 195.866 512.41 195.941C512.338 196.017 512.286 196.108 512.256 196.208C512.215 196.292 512.194 196.383 512.194 196.477C512.194 196.57 512.215 196.661 512.256 196.745C512.32 196.865 512.415 196.965 512.532 197.034C512.648 197.103 512.782 197.139 512.917 197.138H513.268C514.17 196.745 515.124 196.488 516.1 196.373C517.023 196.225 517.968 196.31 518.849 196.621C519.564 196.892 520.326 197.015 521.09 196.983C521.854 196.951 522.603 196.765 523.293 196.435C523.794 196.092 524.246 195.681 524.636 195.215C524.757 195.658 524.976 196.068 525.277 196.415C525.5 196.656 525.772 196.846 526.075 196.971C526.379 197.096 526.706 197.153 527.034 197.138H527.261C528.035 196.951 528.747 196.566 529.328 196.022C529.154 197.268 529.078 198.526 529.101 199.785C529.101 200.901 529.411 202.803 530.775 203.155H531.188C531.558 203.117 531.913 202.99 532.222 202.785C532.532 202.579 532.787 202.302 532.966 201.976C533.757 200.65 534.125 199.113 534.02 197.572C533.954 196.554 533.695 195.557 533.255 194.636C534.36 195.138 535.613 195.212 536.769 194.843C537.079 195.609 537.612 196.264 538.298 196.725C538.817 197.013 539.4 197.162 539.993 197.159C540.45 197.152 540.903 197.076 541.337 196.931C542.685 196.47 543.799 195.497 544.437 194.223C544.511 194.113 544.545 193.982 544.534 193.85C544.522 193.718 544.466 193.595 544.375 193.499ZM537.864 192.383C537.922 191.864 538.092 191.363 538.361 190.915C538.671 190.253 539.911 188.847 540.634 189.199C540.944 189.364 541.047 189.633 540.944 190.108C540.727 190.754 540.313 191.314 539.761 191.711C539.208 192.108 538.545 192.321 537.864 192.321V192.383ZM531.664 201.604C531.599 201.635 531.529 201.651 531.457 201.651C531.385 201.651 531.315 201.635 531.25 201.604C529.783 201.191 530.362 197.986 530.796 195.649C530.94 194.781 531.085 194.057 531.106 193.582C531.385 193.91 531.634 194.263 531.85 194.636C532.673 196.107 532.937 197.825 532.594 199.475C532.565 200.242 532.265 200.975 531.746 201.542L531.664 201.604Z" fill="white"/>
<path d="M315.289 40.6909H283.36V72.5568H315.289V40.6909Z" stroke="#BBBBBB" stroke-width="0.5" stroke-miterlimit="10"/>
<path fill-rule="evenodd" clip-rule="evenodd" d="M286.855 50.354C286.987 50.0078 287.19 49.6943 287.45 49.4346C287.7 49.1759 287.999 48.9728 288.33 48.8382C288.661 48.7035 289.015 48.6402 289.371 48.6521H293.214C293.569 48.6436 293.923 48.7086 294.253 48.8431C294.583 48.9775 294.883 49.1788 295.135 49.4346C295.395 49.6943 295.598 50.0078 295.73 50.354C295.738 50.4255 295.738 50.4976 295.73 50.5691L297.651 57.9048C297.717 58.1794 297.675 58.4692 297.535 58.7134C297.396 58.9577 297.169 59.1375 296.902 59.2154C296.768 59.2536 296.628 59.264 296.49 59.2462C296.353 59.2283 296.22 59.1824 296.1 59.1112C295.98 59.0401 295.875 58.9451 295.792 58.832C295.709 58.7188 295.648 58.5898 295.615 58.4525L294.02 52.3884H293.502L295.922 61.7193H294.001V67.8225C294.001 68.1079 293.89 68.3815 293.692 68.5833C293.494 68.7851 293.225 68.8984 292.945 68.8984H292.676C292.395 68.8984 292.127 68.7851 291.928 68.5833C291.73 68.3815 291.619 68.1079 291.619 67.8225V61.8563H291.062V67.8225C291.062 68.1079 290.951 68.3815 290.753 68.5833C290.554 68.7851 290.286 68.8984 290.005 68.8984H289.66C289.379 68.8984 289.111 68.7851 288.912 68.5833C288.714 68.3815 288.603 68.1079 288.603 67.8225V61.7389H286.682L289.102 52.4079H288.545L286.951 58.4721C286.917 58.6093 286.857 58.7384 286.774 58.8516C286.691 58.9647 286.586 59.0597 286.466 59.1308C286.346 59.202 286.213 59.2479 286.075 59.2657C285.937 59.2836 285.798 59.2731 285.664 59.2349C285.529 59.2009 285.402 59.1397 285.291 59.0548C285.18 58.97 285.087 58.8633 285.017 58.7411C284.947 58.6188 284.902 58.4836 284.884 58.3433C284.867 58.203 284.877 58.0605 284.915 57.9243L286.836 50.5887C286.828 50.5172 286.828 50.4451 286.836 50.3735L286.855 50.354ZM291.273 43.7813C291.834 43.7813 292.371 44.008 292.767 44.4115C293.164 44.8151 293.386 45.3624 293.386 45.933C293.386 46.2147 293.332 46.4936 293.225 46.7536C293.119 47.0136 292.963 47.2494 292.766 47.4477C292.57 47.6459 292.337 47.8026 292.081 47.9086C291.824 48.0146 291.55 48.0678 291.273 48.0653C290.718 48.0653 290.185 47.8406 289.793 47.4408C289.4 47.0409 289.179 46.4985 289.179 45.933C289.177 45.6514 289.229 45.372 289.333 45.1111C289.437 44.8501 289.591 44.6127 289.786 44.4127C289.98 44.2126 290.212 44.0538 290.467 43.9454C290.723 43.837 290.997 43.7812 291.273 43.7813Z" fill="#212121"/>
<path fill-rule="evenodd" clip-rule="evenodd" d="M299.958 44.0747C299.958 44.0361 299.951 43.998 299.936 43.9624C299.922 43.9268 299.9 43.8945 299.873 43.8672C299.847 43.84 299.815 43.8183 299.78 43.8036C299.745 43.7888 299.707 43.7813 299.669 43.7813C299.632 43.7812 299.596 43.7888 299.562 43.8038C299.528 43.8188 299.497 43.8407 299.472 43.8683C299.447 43.8958 299.427 43.9283 299.415 43.9639C299.403 43.9994 299.397 44.0371 299.4 44.0747V68.5855C299.4 68.66 299.428 68.7318 299.478 68.7863C299.528 68.8408 299.596 68.8739 299.669 68.8789C299.707 68.8789 299.745 68.8713 299.78 68.8566C299.815 68.8418 299.847 68.8202 299.873 68.7929C299.9 68.7657 299.922 68.7333 299.936 68.6977C299.951 68.6621 299.958 68.624 299.958 68.5855V44.0747Z" fill="#212121"/>
<path fill-rule="evenodd" clip-rule="evenodd" d="M305.413 52.3884V67.8225C305.412 68.1045 305.521 68.3752 305.715 68.5764C305.909 68.7777 306.173 68.8933 306.45 68.8984H306.738C307.018 68.8984 307.287 68.7851 307.485 68.5833C307.683 68.3815 307.795 68.1079 307.795 67.8225V59.5088H308.352V67.8225C308.352 68.1079 308.463 68.3815 308.661 68.5833C308.86 68.7851 309.128 68.8984 309.409 68.8984H309.697C309.977 68.8984 310.246 68.7851 310.444 68.5833C310.642 68.3815 310.753 68.1079 310.753 67.8225V52.4079H311.349V58.433C311.346 58.575 311.372 58.7161 311.424 58.8478C311.476 58.9795 311.554 59.0992 311.653 59.1996C311.751 59.3 311.869 59.3792 311.998 59.4324C312.127 59.4855 312.266 59.5115 312.405 59.5088C312.543 59.5089 312.68 59.4809 312.807 59.4266C312.934 59.3723 313.049 59.2927 313.146 59.1926C313.242 59.0924 313.318 58.9736 313.369 58.8432C313.42 58.7128 313.445 58.5733 313.443 58.433V51.3516C313.451 50.9896 313.387 50.6296 313.255 50.2934C313.123 49.9572 312.925 49.6517 312.674 49.3954C312.423 49.1396 312.123 48.9384 311.793 48.804C311.462 48.6695 311.109 48.6045 310.753 48.613H305.278C304.923 48.6045 304.569 48.6695 304.239 48.804C303.909 48.9384 303.609 49.1396 303.357 49.3954C303.106 49.6517 302.908 49.9572 302.776 50.2934C302.644 50.6296 302.58 50.9896 302.589 51.3516V58.433C302.586 58.575 302.611 58.7161 302.664 58.8478C302.716 58.9795 302.794 59.0992 302.892 59.1996C302.991 59.3 303.108 59.3792 303.238 59.4324C303.367 59.4855 303.506 59.5115 303.645 59.5088C303.783 59.5089 303.92 59.4809 304.047 59.4266C304.174 59.3723 304.289 59.2927 304.386 59.1926C304.482 59.0924 304.558 58.9736 304.609 58.8432C304.66 58.7128 304.685 58.5733 304.683 58.433V52.4079L305.413 52.3884ZM308.083 43.7813C308.359 43.7812 308.633 43.837 308.889 43.9454C309.144 44.0538 309.376 44.2126 309.57 44.4127C309.765 44.6127 309.919 44.8501 310.023 45.1111C310.127 45.372 310.18 45.6514 310.177 45.933C310.177 46.4985 309.956 47.0409 309.564 47.4408C309.171 47.8406 308.638 48.0653 308.083 48.0653C307.806 48.0678 307.532 48.0146 307.276 47.9086C307.019 47.8026 306.786 47.6459 306.59 47.4477C306.393 47.2494 306.238 47.0136 306.131 46.7536C306.025 46.4936 305.97 46.2147 305.97 45.933C305.97 45.3624 306.192 44.8151 306.589 44.4115C306.985 44.008 307.522 43.7813 308.083 43.7813Z" fill="#212121"/>
<rect x="20.8252" y="97" width="32" height="32" rx="16" fill="#EC1C24"/>
<path d="M35.2469 118.321V108H33.0443C32.7393 108.525 31.4686 109.387 29.8252 109.303V111.485C30.8587 111.502 32.0278 111.299 32.7055 110.555V118.321H35.2469Z" fill="white"/>
<path d="M42.3946 118.321V108H40.192C39.8871 108.525 38.6164 109.387 36.9729 109.303V111.485C38.0064 111.502 39.1755 111.299 39.8532 110.555V118.321H42.3946Z" fill="white"/>
<path d="M23.3996 145.215V140.166H24.6473C26.2138 140.166 26.9624 140.856 26.9624 142.567C26.9624 144.387 26.3386 145.215 24.6057 145.215H23.3996ZM24.6334 146.898C27.2813 146.898 29.1528 145.615 29.1528 142.567C29.1528 139.753 27.2258 138.484 24.675 138.484H21.237V146.898H24.6334Z" fill="#323232"/>
<path d="M36.3728 145.132C35.6519 145.505 35.0142 145.712 34.1963 145.712C32.9625 145.712 32.2832 145.27 32.2416 144.346H36.7194C36.8164 144.056 36.8303 143.767 36.8303 143.436C36.8303 141.891 35.749 140.47 33.6418 140.47C31.4791 140.47 30.2314 141.822 30.2314 143.739C30.2314 145.739 31.3682 147.146 33.8774 147.146C34.7785 147.146 35.6658 146.967 36.3728 146.636V145.132ZM32.2416 143.174C32.3109 142.332 32.8238 141.808 33.6556 141.808C34.4458 141.808 34.9449 142.291 34.9865 143.174H32.2416Z" fill="#323232"/>
<path d="M37.8396 146.788C38.2694 146.967 39.1427 147.146 40.1825 147.146C41.6935 147.146 42.9828 146.443 42.9828 145.077C42.9828 143.767 41.8876 143.325 40.9588 143.036C40.3072 142.829 39.7804 142.677 39.7804 142.332C39.7804 142.042 40.1963 141.836 40.9311 141.836C41.4995 141.836 42.0401 141.946 42.5947 142.208V140.787C42.1649 140.622 41.3192 140.47 40.5013 140.47C38.7962 140.47 37.8257 141.353 37.8257 142.429C37.8257 143.684 38.7684 144.043 39.5863 144.415C40.2795 144.705 40.9865 144.829 40.9865 145.229C40.9865 145.505 40.6677 145.739 39.725 145.739C39.1566 145.739 38.4357 145.56 37.8396 145.325V146.788Z" fill="#323232"/>
<path d="M46.5081 146.898V140.691H44.4009V146.898H46.5081ZM46.7715 138.884C46.7715 138.18 46.3417 137.739 45.4545 137.739C44.5672 137.739 44.1375 138.18 44.1375 138.884C44.1375 139.587 44.5672 140.029 45.4545 140.029C46.3417 140.029 46.7715 139.587 46.7715 138.884Z" fill="#323232"/>
<path d="M52.7087 146.319C52.6394 146.719 52.6394 146.87 52.6394 147.091C52.6394 148.263 51.8353 148.539 50.8649 148.539C50.1856 148.539 49.1874 148.319 48.4111 147.919V149.615C49.2429 149.988 50.241 150.084 51.1976 150.084C53.4573 150.084 54.7743 148.912 54.7743 147.091V140.691H52.9166L52.7641 141.298H52.7364C52.3066 140.87 51.7244 140.498 50.8787 140.498C49.0349 140.498 47.9259 141.905 47.9259 143.767C47.9259 145.974 49.2013 147.077 50.7401 147.077C51.6689 147.077 52.3066 146.829 52.681 146.319H52.7087ZM52.6394 144.967C52.2373 145.394 51.8492 145.546 51.3501 145.546C50.5599 145.546 50.0885 144.967 50.0885 143.739C50.0885 142.939 50.3797 142.015 51.4194 142.015C51.8492 142.015 52.2651 142.18 52.6394 142.456V144.967Z" fill="#323232"/>
<path d="M63.0339 146.898V143.146C63.0339 141.394 62.2714 140.498 60.6217 140.498C59.7899 140.498 58.972 140.87 58.4036 141.463H58.3759L58.1818 140.691H56.435V146.898H58.57V142.525C58.8888 142.318 59.3463 142.111 59.9008 142.111C60.4969 142.111 60.899 142.387 60.899 143.284V146.898H63.0339Z" fill="#323232"/>
<path d="M20.8211 161.236C21.2924 161.553 22.5678 161.898 23.7878 161.898C25.5623 161.898 27.1704 161.153 27.1704 159.498C27.1704 156.67 23.1362 156.725 23.1362 155.401C23.1362 154.918 23.6214 154.697 24.3285 154.697C25.2157 154.697 25.992 154.946 26.6436 155.277V153.539C26.0752 153.249 25.188 153.07 24.176 153.07C22.4015 153.07 20.9736 153.828 20.9736 155.442C20.9736 158.215 24.98 158.022 24.98 159.498C24.98 160.118 24.4255 160.27 23.6353 160.27C22.6926 160.27 21.5142 159.98 20.8211 159.511V161.236Z" fill="#323232"/>
<path d="M33.2053 160.036C32.8726 160.242 32.4428 160.325 32.0131 160.325C31.4447 160.325 31.0842 160.118 31.0842 159.401V156.891H33.2053V155.47H31.0842V153.511H29.6425L29.0048 155.47H27.868V156.891H28.9493V159.484C28.9493 161.084 29.6425 161.898 31.5972 161.898C32.3042 161.898 32.831 161.774 33.2053 161.594V160.036Z" fill="#323232"/>
<path d="M40.7989 161.677V155.47H38.664V159.842C38.3452 160.049 37.9293 160.256 37.4718 160.256C36.8757 160.256 36.5568 159.98 36.5568 159.084V155.47H34.4219V159.222C34.4219 160.974 35.1151 161.87 36.7093 161.87C37.5272 161.87 38.2759 161.511 38.8304 160.905H38.8581L39.0522 161.677H40.7989Z" fill="#323232"/>
<path d="M48.9941 161.677V152.711H46.8592V155.856H46.8315C46.4849 155.539 45.8056 155.249 45.0293 155.249C43.2548 155.249 42.1457 156.684 42.1457 158.546C42.1457 160.753 43.3241 161.898 45.0431 161.898C45.9719 161.898 46.6512 161.553 47.081 160.905H47.1087L47.3028 161.677H48.9941ZM46.8592 159.746C46.4572 160.173 46.069 160.367 45.5699 160.367C44.7797 160.367 44.3084 159.746 44.3084 158.518C44.3084 157.718 44.5995 156.794 45.6254 156.794C46.0551 156.794 46.4849 156.918 46.8592 157.18V159.746Z" fill="#323232"/>
<path d="M52.8439 161.677V155.47H50.7368V161.677H52.8439ZM53.1073 153.663C53.1073 152.959 52.6776 152.518 51.7904 152.518C50.9031 152.518 50.4734 152.959 50.4734 153.663C50.4734 154.366 50.9031 154.808 51.7904 154.808C52.6776 154.808 53.1073 154.366 53.1073 153.663Z" fill="#323232"/>
<path d="M61.4706 158.587C61.4706 156.684 60.1536 155.249 57.8662 155.249C55.5788 155.249 54.2618 156.684 54.2618 158.587C54.2618 160.491 55.5788 161.925 57.8662 161.925C60.1536 161.925 61.4706 160.491 61.4706 158.587ZM57.8662 160.449C56.9928 160.449 56.4522 159.815 56.4522 158.587C56.4522 157.36 56.9928 156.725 57.8662 156.725C58.7396 156.725 59.2802 157.36 59.2802 158.587C59.2802 159.815 58.7396 160.449 57.8662 160.449Z" fill="#323232"/>
<path d="M29.7212 176.456L27.9329 174.759C28.6399 173.877 29.0281 172.773 29.0281 171.725H26.9902C26.9902 172.401 26.8793 172.994 26.6575 173.518L24.2037 171.104C23.871 170.773 23.5105 170.332 23.5105 169.876C23.5105 169.435 23.871 169.104 24.4255 169.104C25.0909 169.104 25.4375 169.338 25.4375 170.207H27.3922C27.3922 168.676 26.4356 167.821 24.4532 167.821C22.6649 167.821 21.5281 168.621 21.5281 169.89C21.5281 170.925 22.1103 171.518 22.4985 171.835C21.4311 172.456 20.7656 173.021 20.7656 174.194C20.7656 175.739 22.1242 176.677 23.9957 176.677C25.0493 176.677 25.9782 176.36 26.7545 175.849L27.3783 176.456H29.7212ZM25.6039 174.815C25.188 175.077 24.7305 175.201 24.2175 175.201C23.6214 175.201 22.7896 174.925 22.7896 174.084C22.7896 173.49 23.2055 173.118 23.6353 172.828L25.6039 174.815Z" fill="#323232"/>
<path d="M44.4666 176.456L43.5101 168.042H40.9592L39.4482 172.594L39.1016 174.594H39.0738L38.7273 172.594L37.2162 168.042H34.6654L33.7088 176.456H35.8715L36.1765 172.249V170.152H36.2042L36.7171 172.152L38.1727 176.456H40.0027L41.4583 172.152L41.9712 170.152H41.999V172.249L42.304 176.456H44.4666Z" fill="#323232"/>
<path d="M51.5762 174.69C50.8553 175.063 50.2176 175.27 49.3997 175.27C48.1659 175.27 47.4866 174.828 47.445 173.904H51.9228C52.0199 173.615 52.0337 173.325 52.0337 172.994C52.0337 171.449 50.9524 170.028 48.8452 170.028C46.6825 170.028 45.4349 171.38 45.4349 173.297C45.4349 175.297 46.5716 176.704 49.0809 176.704C49.982 176.704 50.8692 176.525 51.5762 176.194V174.69ZM47.445 172.732C47.5143 171.89 48.0273 171.366 48.8591 171.366C49.6493 171.366 50.1483 171.849 50.1899 172.732H47.445Z" fill="#323232"/>
<path d="M59.1982 174.69C58.4774 175.063 57.8397 175.27 57.0217 175.27C55.7879 175.27 55.1086 174.828 55.067 173.904H59.5448C59.6419 173.615 59.6557 173.325 59.6557 172.994C59.6557 171.449 58.5744 170.028 56.4672 170.028C54.3046 170.028 53.0569 171.38 53.0569 173.297C53.0569 175.297 54.1937 176.704 56.7029 176.704C57.604 176.704 58.4912 176.525 59.1982 176.194V174.69ZM55.067 172.732C55.1363 171.89 55.6493 171.366 56.4811 171.366C57.2713 171.366 57.7703 171.849 57.8119 172.732H55.067Z" fill="#323232"/>
<path d="M65.6835 174.815C65.3508 175.022 64.921 175.104 64.4913 175.104C63.9229 175.104 63.5624 174.897 63.5624 174.18V171.67H65.6835V170.249H63.5624V168.29H62.1207L61.483 170.249H60.3462V171.67H61.4275V174.263C61.4275 175.863 62.1207 176.677 64.0754 176.677C64.7824 176.677 65.3092 176.553 65.6835 176.373V174.815Z" fill="#323232"/>
<path d="M69.0627 176.456V170.249H66.9555V176.456H69.0627ZM69.3261 168.442C69.3261 167.738 68.8964 167.297 68.0091 167.297C67.1219 167.297 66.6921 167.738 66.6921 168.442C66.6921 169.145 67.1219 169.587 68.0091 169.587C68.8964 169.587 69.3261 169.145 69.3261 168.442Z" fill="#323232"/>
<path d="M77.3844 176.456V172.704C77.3844 170.952 76.6219 170.056 74.9722 170.056C74.1404 170.056 73.3225 170.428 72.7541 171.021H72.7264L72.5323 170.249H70.7856V176.456H72.9205V172.083C73.2393 171.877 73.6968 171.67 74.2513 171.67C74.8475 171.67 75.2495 171.946 75.2495 172.842V176.456H77.3844Z" fill="#323232"/>
<path d="M83.481 175.877C83.4117 176.277 83.4117 176.429 83.4117 176.649C83.4117 177.822 82.6077 178.098 81.6373 178.098C80.958 178.098 79.9598 177.877 79.1835 177.477V179.173C80.0153 179.546 81.0134 179.642 81.97 179.642C84.2297 179.642 85.5467 178.47 85.5467 176.649V170.249H83.689L83.5365 170.856H83.5088C83.079 170.428 82.4968 170.056 81.6511 170.056C79.8073 170.056 78.6983 171.463 78.6983 173.325C78.6983 175.532 79.9737 176.635 81.5125 176.635C82.4413 176.635 83.079 176.387 83.4533 175.877H83.481ZM83.4117 174.525C83.0097 174.953 82.6215 175.104 82.1225 175.104C81.3323 175.104 80.8609 174.525 80.8609 173.297C80.8609 172.497 81.152 171.573 82.1918 171.573C82.6215 171.573 83.0374 171.739 83.4117 172.014V174.525Z" fill="#323232"/>
<path d="M23.358 186.421V184.449H24.5364C25.4236 184.449 25.9366 184.642 25.9366 185.414C25.9366 186.187 25.4236 186.421 24.5364 186.421H23.358ZM28.529 191.235L27.8081 188.835C27.6002 188.132 27.1843 187.663 26.4218 187.456V187.428C27.3229 187.138 28.0299 186.518 28.0299 185.345C28.0299 183.704 26.8931 182.821 24.578 182.821H21.237V191.235H23.3996V188.049H24.3007C25.1464 188.049 25.4514 188.421 25.6593 189.125L26.2832 191.235H28.529Z" fill="#323232"/>
<path d="M36.4926 188.145C36.4926 186.242 35.1756 184.807 32.8882 184.807C30.6008 184.807 29.2838 186.242 29.2838 188.145C29.2838 190.049 30.6008 191.484 32.8882 191.484C35.1756 191.484 36.4926 190.049 36.4926 188.145ZM32.8882 190.008C32.0148 190.008 31.4741 189.373 31.4741 188.145C31.4741 186.918 32.0148 186.283 32.8882 186.283C33.7616 186.283 34.3022 186.918 34.3022 188.145C34.3022 189.373 33.7616 190.008 32.8882 190.008Z" fill="#323232"/>
<path d="M44.5885 188.145C44.5885 186.242 43.2715 184.807 40.984 184.807C38.6966 184.807 37.3796 186.242 37.3796 188.145C37.3796 190.049 38.6966 191.484 40.984 191.484C43.2715 191.484 44.5885 190.049 44.5885 188.145ZM40.984 190.008C40.1107 190.008 39.57 189.373 39.57 188.145C39.57 186.918 40.1107 186.283 40.984 186.283C41.8574 186.283 42.3981 186.918 42.3981 188.145C42.3981 189.373 41.8574 190.008 40.984 190.008Z" fill="#323232"/>
<path d="M56.4512 191.235V187.497C56.4512 185.745 55.6748 184.835 54.1776 184.835C53.3458 184.835 52.4447 185.249 51.9318 185.869C51.5852 185.207 50.9337 184.835 49.991 184.835C49.1592 184.835 48.3828 185.207 47.8976 185.8H47.8838L47.6897 185.028H45.9429V191.235H48.0778V186.78C48.369 186.6 48.771 186.421 49.2701 186.421C49.8385 186.421 50.1435 186.738 50.1435 187.69V191.235H52.2507V187.29C52.2507 187.125 52.2368 186.959 52.2229 186.807C52.5141 186.628 52.9161 186.421 53.4567 186.421C54.0251 186.421 54.3163 186.738 54.3163 187.69V191.235H56.4512Z" fill="#323232"/>
<rect x="64.8242" y="230" width="32" height="32" rx="16" fill="#EC1C24"/>
<path d="M77.2459 251.592V241.271H75.0433C74.7384 241.795 73.4677 242.658 71.8242 242.574V244.756C72.8577 244.773 74.0268 244.57 74.7045 243.826V251.592H77.2459Z" fill="white"/>
<path d="M84.1225 251.896C86.9181 251.896 88.9343 250.035 88.9343 246.448C88.9343 242.861 86.9181 241 84.1225 241C81.327 241 79.3108 242.861 79.3108 246.448C79.3108 250.035 81.327 251.896 84.1225 251.896ZM84.1225 249.9C82.496 249.9 81.9539 248.529 81.9539 246.448C81.9539 244.367 82.496 242.997 84.1225 242.997C85.749 242.997 86.2912 244.367 86.2912 246.448C86.2912 248.529 85.749 249.9 84.1225 249.9Z" fill="white"/>
<path d="M113.822 244.332V235.833H111.646V239.107H108.13V235.833H105.953V244.332H108.13V240.835H111.646V244.332H113.822Z" fill="#323232"/>
<path d="M122.506 241.211C122.506 239.288 121.181 237.839 118.879 237.839C116.576 237.839 115.251 239.288 115.251 241.211C115.251 243.134 116.576 244.583 118.879 244.583C121.181 244.583 122.506 243.134 122.506 241.211ZM118.879 243.092C118 243.092 117.455 242.451 117.455 241.211C117.455 239.971 118 239.33 118.879 239.33C119.758 239.33 120.302 239.971 120.302 241.211C120.302 242.451 119.758 243.092 118.879 243.092Z" fill="#323232"/>
<path d="M134.446 244.332V240.556C134.446 238.787 133.664 237.867 132.158 237.867C131.32 237.867 130.413 238.285 129.897 238.912C129.548 238.243 128.893 237.867 127.944 237.867C127.107 237.867 126.325 238.243 125.837 238.842H125.823L125.628 238.062H123.87V244.332H126.018V239.832C126.311 239.651 126.716 239.469 127.218 239.469C127.79 239.469 128.097 239.79 128.097 240.751V244.332H130.218V240.347C130.218 240.18 130.204 240.013 130.19 239.86C130.483 239.678 130.888 239.469 131.432 239.469C132.004 239.469 132.297 239.79 132.297 240.751V244.332H134.446Z" fill="#323232"/>
<path d="M141.952 242.549C141.227 242.925 140.585 243.134 139.762 243.134C138.52 243.134 137.836 242.688 137.794 241.755H142.301C142.399 241.462 142.413 241.169 142.413 240.835C142.413 239.274 141.325 237.839 139.204 237.839C137.027 237.839 135.771 239.205 135.771 241.142C135.771 243.162 136.915 244.583 139.441 244.583C140.348 244.583 141.241 244.402 141.952 244.068V242.549ZM137.794 240.57C137.864 239.72 138.381 239.191 139.218 239.191C140.013 239.191 140.515 239.678 140.557 240.57H137.794Z" fill="#323232"/>
<path d="M149.498 244.332V235.833H147.322V244.332H149.498Z" fill="#323232"/>
<path d="M157.871 244.332V235.275H155.722V238.452H155.694C155.346 238.132 154.662 237.839 153.881 237.839C152.095 237.839 150.978 239.288 150.978 241.169C150.978 243.399 152.164 244.555 153.895 244.555C154.829 244.555 155.513 244.207 155.946 243.552H155.974L156.169 244.332H157.871ZM155.722 242.382C155.318 242.814 154.927 243.009 154.425 243.009C153.629 243.009 153.155 242.382 153.155 241.142C153.155 240.333 153.448 239.4 154.481 239.4C154.913 239.4 155.346 239.525 155.722 239.79V242.382Z" fill="#323232"/>
<path d="M165.443 242.549C164.718 242.925 164.076 243.134 163.253 243.134C162.011 243.134 161.327 242.688 161.285 241.755H165.792C165.89 241.462 165.904 241.169 165.904 240.835C165.904 239.274 164.815 237.839 162.695 237.839C160.518 237.839 159.262 239.205 159.262 241.142C159.262 243.162 160.406 244.583 162.932 244.583C163.839 244.583 164.732 244.402 165.443 244.068V242.549ZM161.285 240.57C161.355 239.72 161.871 239.191 162.709 239.191C163.504 239.191 164.006 239.678 164.048 240.57H161.285Z" fill="#323232"/>
<path d="M170.84 242.507C170.561 242.897 170.185 243.106 169.626 243.106C169.222 243.106 168.775 242.911 168.775 242.368C168.775 241.713 169.32 241.504 169.975 241.504C170.24 241.504 170.631 241.532 170.84 241.573V242.507ZM172.933 244.332V240.528C172.933 238.313 171.468 237.839 169.85 237.839C168.957 237.839 167.994 238.034 167.436 238.299V239.776C168.008 239.483 168.859 239.288 169.473 239.288C170.38 239.288 170.84 239.553 170.84 240.236V240.431C170.547 240.389 170.059 240.361 169.766 240.361C168.413 240.361 166.85 240.863 166.85 242.535C166.85 243.817 167.701 244.514 168.943 244.514C169.947 244.514 170.729 244.068 171.008 243.552H171.036L171.231 244.332H172.933Z" fill="#323232"/>
<path d="M114.492 259.261L112.692 257.548C113.404 256.656 113.794 255.541 113.794 254.482H111.743C111.743 255.165 111.632 255.764 111.408 256.294L108.939 253.855C108.604 253.521 108.241 253.075 108.241 252.615C108.241 252.169 108.604 251.835 109.162 251.835C109.832 251.835 110.181 252.072 110.181 252.949H112.148C112.148 251.403 111.185 250.539 109.19 250.539C107.39 250.539 106.246 251.347 106.246 252.629C106.246 253.674 106.832 254.273 107.223 254.594C106.148 255.221 105.479 255.792 105.479 256.976C105.479 258.537 106.846 259.484 108.73 259.484C109.79 259.484 110.725 259.164 111.506 258.648L112.134 259.261H114.492ZM110.348 257.603C109.929 257.868 109.469 257.993 108.953 257.993C108.353 257.993 107.516 257.715 107.516 256.865C107.516 256.266 107.934 255.889 108.367 255.597L110.348 257.603Z" fill="#323232"/>
<path d="M122.761 259.261C124.742 259.261 126.166 258.579 126.166 256.823C126.166 255.583 125.44 254.998 124.742 254.775V254.747C125.231 254.426 125.733 253.813 125.733 252.936C125.733 251.347 124.394 250.762 122.691 250.762H118.952V259.261H122.761ZM121.087 254.162V252.392H122.44C123.277 252.392 123.542 252.629 123.542 253.242C123.542 253.618 123.445 253.953 123.333 254.162H121.087ZM121.087 257.631V255.792H122.51C123.333 255.792 123.961 255.834 123.961 256.656C123.961 257.534 123.208 257.631 122.58 257.631H121.087Z" fill="#323232"/>
<path d="M134.374 256.14C134.374 254.217 133.049 252.768 130.747 252.768C128.444 252.768 127.119 254.217 127.119 256.14C127.119 258.063 128.444 259.512 130.747 259.512C133.049 259.512 134.374 258.063 134.374 256.14ZM130.747 258.021C129.868 258.021 129.323 257.38 129.323 256.14C129.323 254.9 129.868 254.259 130.747 254.259C131.626 254.259 132.17 254.9 132.17 256.14C132.17 257.38 131.626 258.021 130.747 258.021Z" fill="#323232"/>
<path d="M142.523 256.14C142.523 254.217 141.197 252.768 138.895 252.768C136.593 252.768 135.267 254.217 135.267 256.14C135.267 258.063 136.593 259.512 138.895 259.512C141.197 259.512 142.523 258.063 142.523 256.14ZM138.895 258.021C138.016 258.021 137.472 257.38 137.472 256.14C137.472 254.9 138.016 254.259 138.895 254.259C139.774 254.259 140.318 254.9 140.318 256.14C140.318 257.38 139.774 258.021 138.895 258.021Z" fill="#323232"/>
<path d="M150.946 259.261L148.183 255.848L150.806 252.991H148.49L146.063 255.708V250.204H143.914V259.261H146.063V256.266L148.532 259.261H150.946Z" fill="#323232"/>
<path d="M163.257 259.261V250.762H161.08V254.036H157.564V250.762H155.387V259.261H157.564V255.764H161.08V259.261H163.257Z" fill="#323232"/>
<path d="M171.411 259.261V252.991H169.262V257.408C168.941 257.617 168.522 257.826 168.062 257.826C167.462 257.826 167.141 257.548 167.141 256.642V252.991H164.992V256.781C164.992 258.551 165.69 259.457 167.294 259.457C168.118 259.457 168.871 259.094 169.429 258.481H169.457L169.653 259.261H171.411Z" fill="#323232"/>
<path d="M174.775 259.261L174.971 258.481H174.999C175.347 259.039 176.087 259.484 177.133 259.484C178.654 259.484 179.966 258.244 179.966 256.015C179.966 254.134 178.905 252.796 177.203 252.796C176.366 252.796 175.738 253.061 175.25 253.493H175.222V250.204H173.073V259.261H174.775ZM175.222 254.914C175.598 254.524 176.031 254.329 176.491 254.329C177.496 254.329 177.789 255.262 177.789 256.071C177.789 257.311 177.315 257.924 176.547 257.924C175.975 257.924 175.487 257.617 175.222 257.408V254.914Z" fill="#323232"/>
<path fill-rule="evenodd" clip-rule="evenodd" d="M158.113 7.10213H161.596V21.6322H158.113V23.3672H163.337V5.36719H158.113V7.10213ZM151.412 9.30999C152.25 9.30999 152.936 8.62686 152.936 7.79192C152.936 6.95698 152.25 6.27385 151.412 6.27385C150.574 6.27385 149.888 6.95698 149.888 7.79192C149.888 8.62686 150.574 9.30999 151.412 9.30999ZM148.67 19.8606L149.431 16.5208L151.031 18.0389V22.5931H152.555V16.9004L150.955 15.3823L151.412 13.1052C152.402 14.2437 153.926 15.0028 155.602 15.0028V13.4847C154.155 13.4847 152.936 12.7257 152.326 11.663L151.564 10.4485C151.26 9.99313 150.803 9.68951 150.269 9.68951C150.155 9.68951 150.06 9.70849 149.965 9.72746C149.869 9.74644 149.774 9.76542 149.66 9.76542L145.699 11.4353V15.0028H147.222V12.422L148.593 11.8907L147.374 18.0389L143.642 17.2799L143.337 18.7979L148.67 19.8606ZM156.345 8.67294L158.06 10.3815H153.325V11.6827H158.06L156.345 13.3914L157.269 14.3115L160.56 11.0322L157.269 7.75285L156.345 8.67294Z" fill="#231F20"/>
<path fill-rule="evenodd" clip-rule="evenodd" d="M481.042 7.10213H484.524V21.6322H481.042V23.3672H486.266V5.36719H481.042V7.10213ZM474.341 9.30999C475.179 9.30999 475.864 8.62686 475.864 7.79192C475.864 6.95698 475.179 6.27385 474.341 6.27385C473.503 6.27385 472.817 6.95698 472.817 7.79192C472.817 8.62686 473.503 9.30999 474.341 9.30999ZM471.598 19.8606L472.36 16.5208L473.96 18.0389V22.5931H475.483V16.9004L473.884 15.3823L474.341 13.1052C475.331 14.2437 476.855 15.0028 478.531 15.0028V13.4847C477.083 13.4847 475.864 12.7257 475.255 11.663L474.493 10.4485C474.188 9.99313 473.731 9.68951 473.198 9.68951C473.084 9.68951 472.989 9.70849 472.893 9.72746C472.798 9.74644 472.703 9.76542 472.589 9.76542L468.627 11.4353V15.0028H470.151V12.422L471.522 11.8907L470.303 18.0389L466.57 17.2799L466.266 18.7979L471.598 19.8606ZM479.274 8.67294L480.989 10.3815H476.253V11.6827H480.989L479.274 13.3914L480.198 14.3115L483.489 11.0322L480.198 7.75285L479.274 8.67294Z" fill="#231F20"/>
</svg>
