<svg width="100%" height="100%" preserveAspectRatio="none"  viewBox="0 0 391 320" fill="none" xmlns="http://www.w3.org/2000/svg">
<path d="M61.8447 98.4609L70.0127 48.3216L12.4069 38.9736L8.10791 89.9627L61.8447 98.4609Z" fill="#D4D4D4"/>
<path d="M327.98 144.339V123.076H283.583V210.256H291.773L380.567 171.557V144.339H327.98Z" fill="#C4C4C4"/>
<path d="M188.663 171.45L140.464 148.718L123.68 182.172L115.073 177.883L108.187 191.608L167.576 219.487L188.663 171.45Z" fill="#C4C4C4"/>
<path d="M140.171 148.067L107.155 132.309L90.647 166.381L124.509 182.566L140.171 148.067Z" fill="#EC1C24"/>
<path d="M108.479 106.839L7.66663 90.2559V99.185L26.9711 107.689L25.6842 112.791L62.5772 129.799L49.2786 156.586L4.66371 135.752L2.94775 170.193L156.097 242.051L165.964 219.09L107.621 192.303L114.914 177.421L90.4615 165.941L107.192 131.925L105.047 130.65L108.479 106.839Z" fill="#D4D4D4"/>
<path d="M146.373 61.0971L69.4501 49.231L61.7578 98.8144L108.766 106.443L105.348 130.175L187.399 171.282L206.202 130.175L163.04 110.257V67.4539H146.373V61.0971Z" fill="#D5D5D5"/>
<path d="M212.306 246.663L204.138 264.164L268.192 294.898L389.852 317.948V170.256L212.306 246.663Z" fill="#D4D4D4"/>
<path d="M390.885 20.5122H295.458V34.8364H263.993V20.5122H10.7885L0.884766 171.141L267.697 296.15L390.885 320V20.5122ZM261.93 22.5585V36.8827H297.522V22.5585H388.821V67.1885H147.326V60.8757L17.1021 40.4433L11.6241 39.5838L12.7383 22.5585H261.93ZM211.875 246.629L203.478 263.829L156.806 241.964L175.5 200.117L188.354 171.468L188.436 171.294L197.865 150.218L206.696 157.666L207.088 157.993L208.326 159.017L208.718 159.344L209.636 160.111L210.029 160.449L210.947 161.216L211.339 161.554L212.257 162.321L212.649 162.659L213.567 163.437L213.959 163.774L214.877 164.552L215.269 164.879L216.187 165.657L216.579 165.984L217.498 166.762L217.89 167.089L218.808 167.867L219.2 168.194L220.118 168.972L220.51 169.299L221.418 170.067L221.81 170.394L222.718 171.161L223.11 171.489L224.018 172.256L224.41 172.594L225.369 173.402L225.761 173.74L227.009 174.763L227.401 175.101L228.319 175.878L228.711 176.216L229.63 176.993L230.022 177.321L230.94 178.098L231.332 178.426L232.25 179.203L232.642 179.531L233.56 180.308L233.962 180.636L234.881 181.403L235.283 181.731L236.201 182.498L236.603 182.825L248.024 192.443L248.22 192.607L253.45 186.611L241.803 176.758L241.411 176.431L240.493 175.653L240.101 175.326L239.183 174.558L238.791 174.231L237.872 173.515L237.48 173.187L236.572 172.41L236.18 172.082L201.724 142.943L201.528 142.769L200.806 143.608L206.624 130.542L206.727 130.307L163.595 110.304V67.7001H328.378V123.247H284.533V210.471H293.364L381.352 172.338L381.507 172.277V144.478H388.821V170.056L211.958 246.568L211.875 246.629ZM68.8903 49.1605L61.2458 98.804L32.0712 94.0463L8.28162 90.1686L11.5725 40.167L40.675 44.7303L68.8903 49.1605ZM61.7617 98.8245L65.5787 74.0027L69.3958 49.181L146.769 61.3258V67.7103H163.017V110.632L206.057 130.542L199.599 144.958L196.246 148.887L197.412 149.911L187.951 171.059L186.631 170.425L140.207 148.038L106.607 131.831L105.039 131.074L108.392 106.457L61.7617 98.8245ZM106.854 132.476L110.899 134.42L139.991 148.458L123.897 181.485L90.4928 166.138L106.854 132.476ZM114.829 177.894L124.114 182.16L140.424 148.683L184.97 170.169L187.704 171.489L168.773 213.807L166.266 219.557L107.7 192.504L114.829 177.894ZM380.991 171.939L293.251 209.96H285.049V123.759H328.378V144.478H380.991V171.939ZM328.894 143.966V67.7001H388.821V143.966H328.894ZM26.5622 108.974L25.0148 113.241L61.6172 130.45L49.2892 156.592L5.22795 136.487L7.61103 100.226L26.5622 108.974ZM5.1867 137.039L49.2995 157.144L49.5368 157.247L62.3084 130.184L25.6647 112.975L27.2121 108.708L7.61103 99.6737L8.19907 90.6085L107.886 106.836L104.544 131.33L106.452 132.251L89.8634 166.434L114.427 177.689L107.061 192.699L166.112 219.986L165.08 222.35L156.373 241.708L3.06154 169.883L5.1867 137.039ZM212.257 246.998L388.821 170.619V317.513L268.46 294.247L203.942 264.023L212.257 246.998Z" fill="#575757"/>
<path d="M371.282 36.9238H352.71V54.3597H371.282V36.9238ZM370.741 53.882H353.251V37.4431H370.741V53.882Z" fill="#575757"/>
<path d="M221.361 176.052H221.111C209.463 175.791 202.92 169.78 201.646 158.181V157.95L194.852 158.191V158.443C194.852 163.92 197.66 169.78 202.293 174.109C205.957 177.532 212.396 181.539 222.447 181.539H223.49H223.741V179.576H221.393L221.361 176.052ZM223.188 180.13V181.016C212.876 181.217 206.312 177.18 202.617 173.737C198.247 169.804 195.629 164.391 195.311 158.634L201.125 158.413C202.481 170.072 209.098 176.153 220.808 176.536V180.08L223.188 180.13Z" fill="#575757"/>
<path d="M249.135 168.647L248.728 168.317V168.327L247.8 167.544L247.811 167.534L247.404 167.204V167.215L246.476 166.432L246.08 166.092V166.102L245.152 165.319H245.163L244.756 164.979L243.828 164.206H243.839L243.432 163.866L208.611 134.524L208.413 134.359L203.106 140.541L213.626 149.381L213.605 149.412L214.001 149.741L214.022 149.71L215.283 150.772L215.252 150.802L215.659 151.132L215.68 151.101L216.607 151.884L216.576 151.915L216.983 152.245L217.004 152.214L217.931 152.997L217.9 153.028L218.296 153.358L218.328 153.327L219.255 154.099L219.224 154.141L219.631 154.47L219.652 154.439L220.579 155.212L220.548 155.253L220.955 155.583L220.976 155.552L221.904 156.325L221.883 156.356L222.279 156.696L222.3 156.665L223.228 157.437L223.207 157.468L223.603 157.808L223.624 157.767L224.552 158.55L224.52 158.581L224.927 158.921L224.948 158.88L225.876 159.663L225.855 159.694L226.251 160.023L226.272 159.992L227.2 160.775L227.179 160.806L227.575 161.136L227.596 161.105L228.524 161.888L228.503 161.919L228.899 162.249L228.92 162.218L229.848 163.001L229.827 163.032L230.223 163.361L230.244 163.331L231.172 164.114L231.151 164.144L231.547 164.474L231.568 164.443L232.548 165.267L232.517 165.298L232.923 165.628L232.944 165.597L234.206 166.648L234.174 166.689L234.57 167.019L234.602 166.988L235.53 167.761L235.498 167.802L235.894 168.132L235.926 168.101L236.854 168.873L236.822 168.904L237.218 169.244L237.25 169.213L238.178 169.986L238.146 170.017L238.543 170.357L238.574 170.326L239.502 171.099L239.47 171.13L239.867 171.47L239.898 171.428L240.826 172.211L240.794 172.242L241.191 172.582L241.222 172.541L242.15 173.324L242.118 173.355L242.515 173.685L242.546 173.654L243.474 174.437L243.442 174.468L243.839 174.797L243.87 174.766L255.411 184.451L255.609 184.616L260.884 178.578L249.124 168.657L249.135 168.647Z" fill="#575757"/>
<g clipPath="url(#clip0_1259_12726)">
<path fillRule="evenodd" clipRule="evenodd" d="M356.625 43.7136C356.676 43.5738 356.753 43.4463 356.852 43.3388C356.952 43.2348 357.071 43.153 357.201 43.0982C357.331 43.0434 357.471 43.0167 357.612 43.0197H359.13C359.27 43.0167 359.41 43.0434 359.54 43.0982C359.671 43.153 359.789 43.2348 359.889 43.3388C359.99 43.4459 360.07 43.5734 360.124 43.7136C360.128 43.7454 360.128 43.7775 360.124 43.8093L360.883 46.8001C360.911 46.9132 360.896 47.0334 360.841 47.1348C360.785 47.2362 360.694 47.3107 360.587 47.3424C360.481 47.3717 360.367 47.3553 360.272 47.2971C360.177 47.2388 360.107 47.1433 360.079 47.0314L359.441 44.551H359.221L360.185 48.3633H359.426V50.8516C359.426 50.968 359.382 51.0796 359.304 51.1618C359.225 51.2441 359.119 51.2903 359.008 51.2903H358.894C358.784 51.2903 358.678 51.2441 358.599 51.1618C358.521 51.0796 358.477 50.968 358.477 50.8516V48.4112H358.287V50.8516C358.287 50.968 358.243 51.0796 358.165 51.1618C358.087 51.2441 357.98 51.2903 357.87 51.2903H357.756C357.645 51.2903 357.539 51.2441 357.46 51.1618C357.382 51.0796 357.338 50.968 357.338 50.8516V48.3633H356.579L357.536 44.551H357.315L356.685 47.0314C356.655 47.1439 356.584 47.2395 356.488 47.2976C356.391 47.3558 356.277 47.3719 356.169 47.3424V47.3424C356.062 47.3107 355.971 47.2362 355.916 47.1348C355.86 47.0334 355.845 46.9132 355.873 46.8001L356.632 43.8093C356.629 43.7775 356.629 43.7454 356.632 43.7136H356.625ZM358.378 41.0259C358.488 41.0259 358.597 41.0486 358.698 41.0927C358.799 41.1368 358.891 41.2014 358.969 41.2828C359.046 41.3643 359.108 41.461 359.15 41.5674C359.192 41.6739 359.213 41.788 359.213 41.9032C359.213 42.0184 359.192 42.1325 359.15 42.2389C359.108 42.3454 359.046 42.4421 358.969 42.5235C358.891 42.605 358.799 42.6696 358.698 42.7137C358.597 42.7578 358.488 42.7805 358.378 42.7805C358.269 42.7805 358.16 42.7578 358.059 42.7137C357.957 42.6696 357.865 42.605 357.788 42.5235C357.71 42.4421 357.649 42.3454 357.607 42.2389C357.565 42.1325 357.543 42.0184 357.543 41.9032C357.543 41.788 357.565 41.6739 357.607 41.5674C357.649 41.461 357.71 41.3643 357.788 41.2828C357.865 41.2014 357.957 41.1368 358.059 41.0927C358.16 41.0486 358.269 41.0259 358.378 41.0259Z" fill="#212121"/>
<path fillRule="evenodd" clipRule="evenodd" d="M363.973 44.551V50.8516C363.973 50.968 364.017 51.0796 364.095 51.1618C364.174 51.2441 364.28 51.2903 364.391 51.2903H364.505C364.615 51.2903 364.721 51.2441 364.8 51.1618C364.878 51.0796 364.922 50.968 364.922 50.8516V47.486H365.119V50.8835C365.119 50.9999 365.163 51.1114 365.242 51.1937C365.32 51.276 365.426 51.3222 365.537 51.3222H365.651C365.762 51.3222 365.868 51.276 365.946 51.1937C366.024 51.1114 366.068 50.9999 366.068 50.8835V44.5829H366.304V47.0474C366.304 47.1637 366.348 47.2752 366.426 47.3575C366.504 47.4398 366.61 47.486 366.721 47.486C366.832 47.486 366.938 47.4398 367.016 47.3575C367.095 47.2752 367.139 47.1637 367.139 47.0474V44.1523C367.141 43.8548 367.032 43.5684 366.835 43.3547C366.735 43.2508 366.617 43.169 366.486 43.1142C366.356 43.0594 366.216 43.0327 366.076 43.0357H363.912C363.774 43.0346 363.638 43.0624 363.51 43.1173C363.383 43.1723 363.267 43.2533 363.169 43.3557C363.072 43.4581 362.995 43.5799 362.942 43.7139C362.89 43.8479 362.864 43.9915 362.865 44.1363V47.0314C362.865 47.1477 362.909 47.2593 362.987 47.3416C363.065 47.4238 363.172 47.4701 363.282 47.4701V47.4701C363.393 47.4701 363.499 47.4238 363.578 47.3416C363.656 47.2593 363.7 47.1477 363.7 47.0314V44.567L363.973 44.551ZM365.028 41.0259C365.193 41.0259 365.355 41.0773 365.492 41.1737C365.63 41.2701 365.737 41.4071 365.8 41.5674C365.863 41.7278 365.88 41.9042 365.847 42.0743C365.815 42.2445 365.736 42.4008 365.619 42.5235C365.502 42.6462 365.353 42.7298 365.191 42.7636C365.029 42.7975 364.861 42.7801 364.709 42.7137C364.556 42.6473 364.426 42.5348 364.334 42.3906C364.242 42.2463 364.193 42.0767 364.193 41.9032C364.193 41.6705 364.281 41.4474 364.438 41.2828C364.594 41.1183 364.807 41.0259 365.028 41.0259V41.0259Z" fill="#212121"/>
</g>
<path d="M114.376 97.4355L114.376 155.897" stroke="#131313"/>
<ellipse cx="113.344" cy="97.9489" rx="7.22222" ry="6.66668" fill="#131313"/>
<g clipPath="url(#clip1_1259_12726)">
<path d="M277.909 3.3335C271.421 3.3335 266.173 8.55017 266.173 15.0002C266.173 23.7502 277.909 36.6669 277.909 36.6669C277.909 36.6669 289.646 23.7502 289.646 15.0002C289.646 8.55017 284.398 3.3335 277.909 3.3335ZM277.909 19.1669C275.596 19.1669 273.718 17.3002 273.718 15.0002C273.718 12.7002 275.596 10.8335 277.909 10.8335C280.223 10.8335 282.101 12.7002 282.101 15.0002C282.101 17.3002 280.223 19.1669 277.909 19.1669Z" fill="#EC1C24"/>
</g>
<path d="M263.793 51.0762V47.9862C263.793 46.1962 262.653 45.4462 261.003 45.4462C259.433 45.4462 258.213 46.1962 258.213 47.9862V51.0762H259.753V49.8262C259.983 49.4662 260.393 49.2662 260.863 49.2662C261.093 49.2662 261.233 49.2962 261.393 49.3362V48.0562C261.273 48.0162 261.133 47.9962 260.963 47.9962C260.453 47.9962 260.033 48.2662 259.753 48.7362V48.0162C259.753 47.0862 260.093 46.6162 261.003 46.6162C261.953 46.6162 262.253 47.0862 262.253 48.0162V51.0762H263.793ZM263.79 53.8362V52.6962C263.79 51.9862 263.44 51.6862 262.69 51.6862C262.41 51.6862 261.95 51.7362 261.66 51.7862V52.7062C261.77 52.6762 261.93 52.6662 262.01 52.6662C262.26 52.6662 262.39 52.7662 262.39 52.9662V53.8362H263.79ZM273.71 51.0762V45.6062H272.17V49.3062C271.86 49.7062 271.38 50.0662 270.89 50.0662C270.33 50.0662 270.15 49.6562 270.15 49.3062V47.8362C270.15 46.1062 269.16 45.4462 267.59 45.4462C266.65 45.4462 265.57 45.6762 265 45.8962V49.6062C265 50.8062 265.77 51.2162 266.7 51.2162C267.07 51.2162 267.42 51.1662 267.74 51.0762V50.0262C267.5 50.0962 267.35 50.1262 267.08 50.1262C266.68 50.1262 266.54 49.9962 266.54 49.5062V46.7362C266.85 46.6562 267.22 46.6162 267.55 46.6162C268.35 46.6162 268.61 47.0462 268.61 47.9162V49.4162C268.61 50.5862 269.28 51.2362 270.32 51.2362C271.16 51.2362 271.74 50.8862 272.17 50.4062H272.19L272.42 51.0762H273.71ZM276.932 48.8762V47.8162H275.082C274.892 48.1162 274.732 48.7562 274.732 49.2062C274.732 50.6262 275.832 51.2562 277.422 51.2562C279.052 51.2562 280.322 50.3362 280.322 48.3362C280.322 46.5462 279.182 45.4462 277.212 45.4462C276.252 45.4462 275.402 45.6762 274.922 45.8762V47.1462C275.472 46.8362 276.212 46.5862 277.082 46.5862C278.182 46.5862 278.782 47.2362 278.782 48.3362C278.782 49.4362 278.292 50.1162 277.392 50.1162C276.612 50.1162 276.212 49.8562 276.212 49.2462C276.212 49.1062 276.242 48.9862 276.272 48.8762H276.932ZM284.998 49.8062C284.678 49.9662 284.278 50.0862 283.798 50.0862C283.028 50.0862 282.648 49.7962 282.648 49.2162C282.648 49.0162 282.708 48.8062 282.858 48.5962H284.148V47.6262H283.528C282.968 47.6262 282.688 47.3662 282.688 47.0762C282.688 46.6462 283.038 46.5962 283.398 46.5962C283.668 46.5962 283.828 46.6462 283.958 46.6962V45.5862C283.798 45.5362 283.498 45.4862 283.018 45.4862C281.848 45.4862 281.188 46.0362 281.188 46.9962C281.188 47.6762 281.508 48.0462 281.878 48.2762V48.2962C281.408 48.5262 281.138 48.9462 281.138 49.4762C281.138 50.8062 282.318 51.2562 283.648 51.2562C284.978 51.2562 285.898 50.8862 286.538 50.2762V45.6062H284.998V49.8062ZM286.535 51.7962H285.255V52.6362C285.255 52.9862 285.095 53.0762 284.855 53.0762C284.615 53.0762 284.455 52.9862 284.455 52.6362V51.7962H282.655V52.6862H283.175V52.7262C283.175 53.6862 283.925 53.9762 284.855 53.9762C285.795 53.9762 286.535 53.6862 286.535 52.7262V51.7962ZM286.405 44.8162L286.485 42.6362H284.965L285.055 44.8162H286.405ZM293.175 51.0762V47.5962C293.175 46.1962 292.475 45.4462 291.245 45.4462C290.355 45.4462 289.715 45.7962 289.285 46.2762H289.265L289.035 45.6062H287.745V51.0762H289.285V47.3762C289.595 46.9762 290.125 46.6162 290.795 46.6162C291.425 46.6162 291.635 47.0262 291.635 47.6262V51.0762H293.175ZM293.175 44.8162V42.8362H291.775L291.815 43.7162H288.165V44.8162H293.175ZM293.135 42.3862L293.175 40.4962H291.815L291.855 42.3862H293.135ZM299.635 51.0762V45.6062H298.095V49.3062C297.785 49.7362 297.295 50.0662 296.765 50.0662C296.085 50.0662 295.895 49.6462 295.895 49.1262V45.6062H294.355V49.1762C294.355 50.4862 295.025 51.2362 296.335 51.2362C297.085 51.2362 297.665 50.8762 298.095 50.4062H298.115L298.345 51.0762H299.635ZM299.669 44.8162V42.8362H298.269L298.309 43.7162H294.659V44.8162H299.669ZM299.629 42.3862L299.669 40.4962H298.309L298.349 42.3862H299.629Z" fill="#323232"/>
<path d="M131.939 100.231V98.619H128.585V92.301H126.557V100.231H131.939ZM135.084 100.231V94.381H133.108V100.231H135.084ZM135.331 92.678C135.331 92.015 134.928 91.599 134.096 91.599C133.264 91.599 132.861 92.015 132.861 92.678C132.861 93.341 133.264 93.757 134.096 93.757C134.928 93.757 135.331 93.341 135.331 92.678ZM140.261 100.231L142.523 94.381H140.495L139.819 96.435L139.286 98.671H139.26L138.727 96.435L138.051 94.381H136.023L138.285 100.231H140.261ZM145.431 100.231V94.381H143.455V100.231H145.431ZM145.678 92.678C145.678 92.015 145.275 91.599 144.443 91.599C143.611 91.599 143.208 92.015 143.208 92.678C143.208 93.341 143.611 93.757 144.443 93.757C145.275 93.757 145.678 93.341 145.678 92.678ZM153.234 100.231V96.695C153.234 95.044 152.519 94.199 150.972 94.199C150.192 94.199 149.425 94.55 148.892 95.109H148.866L148.684 94.381H147.046V100.231H149.048V96.11C149.347 95.915 149.776 95.72 150.296 95.72C150.855 95.72 151.232 95.98 151.232 96.825V100.231H153.234ZM158.951 99.685C158.886 100.062 158.886 100.205 158.886 100.413C158.886 101.518 158.132 101.778 157.222 101.778C156.585 101.778 155.649 101.57 154.921 101.193V102.792C155.701 103.143 156.637 103.234 157.534 103.234C159.653 103.234 160.888 102.129 160.888 100.413V94.381H159.146L159.003 94.953H158.977C158.574 94.55 158.028 94.199 157.235 94.199C155.506 94.199 154.466 95.525 154.466 97.28C154.466 99.36 155.662 100.4 157.105 100.4C157.976 100.4 158.574 100.166 158.925 99.685H158.951ZM158.886 98.411C158.509 98.814 158.145 98.957 157.677 98.957C156.936 98.957 156.494 98.411 156.494 97.254C156.494 96.5 156.767 95.629 157.742 95.629C158.145 95.629 158.535 95.785 158.886 96.045V98.411ZM167.776 98.645V93.887H168.946C170.415 93.887 171.117 94.537 171.117 96.149C171.117 97.865 170.532 98.645 168.907 98.645H167.776ZM168.933 100.231C171.416 100.231 173.171 99.022 173.171 96.149C173.171 93.497 171.364 92.301 168.972 92.301H165.748V100.231H168.933ZM179.941 98.567C179.265 98.918 178.667 99.113 177.9 99.113C176.743 99.113 176.106 98.697 176.067 97.826H180.266C180.357 97.553 180.37 97.28 180.37 96.968C180.37 95.512 179.356 94.173 177.38 94.173C175.352 94.173 174.182 95.447 174.182 97.254C174.182 99.139 175.248 100.465 177.601 100.465C178.446 100.465 179.278 100.296 179.941 99.984V98.567ZM176.067 96.721C176.132 95.928 176.613 95.434 177.393 95.434C178.134 95.434 178.602 95.889 178.641 96.721H176.067ZM181.316 100.127C181.719 100.296 182.538 100.465 183.513 100.465C184.93 100.465 186.139 99.802 186.139 98.515C186.139 97.28 185.112 96.864 184.241 96.591C183.63 96.396 183.136 96.253 183.136 95.928C183.136 95.655 183.526 95.46 184.215 95.46C184.748 95.46 185.255 95.564 185.775 95.811V94.472C185.372 94.316 184.579 94.173 183.812 94.173C182.213 94.173 181.303 95.005 181.303 96.019C181.303 97.202 182.187 97.54 182.954 97.891C183.604 98.164 184.267 98.281 184.267 98.658C184.267 98.918 183.968 99.139 183.084 99.139C182.551 99.139 181.875 98.97 181.316 98.749V100.127ZM189.445 100.231V94.381H187.469V100.231H189.445ZM189.692 92.678C189.692 92.015 189.289 91.599 188.457 91.599C187.625 91.599 187.222 92.015 187.222 92.678C187.222 93.341 187.625 93.757 188.457 93.757C189.289 93.757 189.692 93.341 189.692 92.678ZM195.26 99.685C195.195 100.062 195.195 100.205 195.195 100.413C195.195 101.518 194.441 101.778 193.531 101.778C192.894 101.778 191.958 101.57 191.23 101.193V102.792C192.01 103.143 192.946 103.234 193.843 103.234C195.962 103.234 197.197 102.129 197.197 100.413V94.381H195.455L195.312 94.953H195.286C194.883 94.55 194.337 94.199 193.544 94.199C191.815 94.199 190.775 95.525 190.775 97.28C190.775 99.36 191.971 100.4 193.414 100.4C194.285 100.4 194.883 100.166 195.234 99.685H195.26ZM195.195 98.411C194.818 98.814 194.454 98.957 193.986 98.957C193.245 98.957 192.803 98.411 192.803 97.254C192.803 96.5 193.076 95.629 194.051 95.629C194.454 95.629 194.844 95.785 195.195 96.045V98.411ZM204.942 100.231V96.695C204.942 95.044 204.227 94.199 202.68 94.199C201.9 94.199 201.133 94.55 200.6 95.109H200.574L200.392 94.381H198.754V100.231H200.756V96.11C201.055 95.915 201.484 95.72 202.004 95.72C202.563 95.72 202.94 95.98 202.94 96.825V100.231H204.942ZM126.167 113.815C126.609 114.114 127.805 114.439 128.949 114.439C130.613 114.439 132.121 113.737 132.121 112.177C132.121 109.512 128.338 109.564 128.338 108.316C128.338 107.861 128.793 107.653 129.456 107.653C130.288 107.653 131.016 107.887 131.627 108.199V106.561C131.094 106.288 130.262 106.119 129.313 106.119C127.649 106.119 126.31 106.834 126.31 108.355C126.31 110.968 130.067 110.786 130.067 112.177C130.067 112.762 129.547 112.905 128.806 112.905C127.922 112.905 126.817 112.632 126.167 112.19V113.815ZM137.78 112.684C137.468 112.879 137.065 112.957 136.662 112.957C136.129 112.957 135.791 112.762 135.791 112.086V109.72H137.78V108.381H135.791V106.535H134.439L133.841 108.381H132.775V109.72H133.789V112.164C133.789 113.672 134.439 114.439 136.272 114.439C136.935 114.439 137.429 114.322 137.78 114.153V112.684ZM144.901 114.231V108.381H142.899V112.502C142.6 112.697 142.21 112.892 141.781 112.892C141.222 112.892 140.923 112.632 140.923 111.787V108.381H138.921V111.917C138.921 113.568 139.571 114.413 141.066 114.413C141.833 114.413 142.535 114.075 143.055 113.503H143.081L143.263 114.231H144.901ZM152.586 114.231V105.781H150.584V108.745H150.558C150.233 108.446 149.596 108.173 148.868 108.173C147.204 108.173 146.164 109.525 146.164 111.28C146.164 113.36 147.269 114.439 148.881 114.439C149.752 114.439 150.389 114.114 150.792 113.503H150.818L151 114.231H152.586ZM150.584 112.411C150.207 112.814 149.843 112.996 149.375 112.996C148.634 112.996 148.192 112.411 148.192 111.254C148.192 110.5 148.465 109.629 149.427 109.629C149.83 109.629 150.233 109.746 150.584 109.993V112.411ZM156.196 114.231V108.381H154.22V114.231H156.196ZM156.443 106.678C156.443 106.015 156.04 105.599 155.208 105.599C154.376 105.599 153.973 106.015 153.973 106.678C153.973 107.341 154.376 107.757 155.208 107.757C156.04 107.757 156.443 107.341 156.443 106.678ZM164.286 111.319C164.286 109.525 163.051 108.173 160.906 108.173C158.761 108.173 157.526 109.525 157.526 111.319C157.526 113.113 158.761 114.465 160.906 114.465C163.051 114.465 164.286 113.113 164.286 111.319ZM160.906 113.074C160.087 113.074 159.58 112.476 159.58 111.319C159.58 110.162 160.087 109.564 160.906 109.564C161.725 109.564 162.232 110.162 162.232 111.319C162.232 112.476 161.725 113.074 160.906 113.074Z" fill="#323232"/>
<defs>
<clipPath id="clip0_1259_12726">
<rect width="11.3492" height="10.2564" fill="white" transform="translate(355.805 41.0259)"/>
</clipPath>
<clipPath id="clip1_1259_12726">
<rect width="40.2381" height="40.0001" fill="white" transform="translate(257.791)"/>
</clipPath>
</defs>
</svg>
